G04 #@! TF.FileFunction,Soldermask,Top*
%FSLAX46Y46*%
G04 Gerber Fmt 4.6, Leading zero omitted, Abs format (unit mm)*
G04 Created by KiCad (PCBNEW 4.0.2-stable) date 2016-12-18 5:50:30 PM*
%MOMM*%
G01*
G04 APERTURE LIST*
%ADD10C,0.100000*%
%ADD11O,4.020000X2.520000*%
%ADD12O,2.520000X2.020000*%
%ADD13O,1.520000X3.520000*%
%ADD14C,2.018980*%
%ADD15O,2.520000X4.020000*%
%ADD16O,2.020000X2.520000*%
%ADD17O,3.520000X1.520000*%
%ADD18R,1.163000X0.832800*%
%ADD19R,0.832800X1.163000*%
%ADD20R,1.220000X1.220000*%
%ADD21C,1.220000*%
%ADD22R,1.747200X1.747200*%
%ADD23O,1.747200X1.747200*%
%ADD24C,2.270000*%
%ADD25R,1.620000X2.820000*%
%ADD26C,1.544000*%
%ADD27R,1.220000X2.520000*%
%ADD28C,1.520000*%
%ADD29R,1.544000X1.544000*%
G04 APERTURE END LIST*
D10*
D11*
X103000000Y-82700000D03*
D12*
X103000000Y-73300000D03*
D13*
X98100000Y-78000000D03*
X106300000Y-78000000D03*
D14*
X114359238Y-49280570D03*
X119290666Y-50105808D03*
X109427810Y-48455332D03*
D15*
X86700000Y-98000000D03*
D16*
X77300000Y-98000000D03*
D17*
X82000000Y-102900000D03*
X82000000Y-94700000D03*
D18*
X71250000Y-27399100D03*
X71250000Y-29100900D03*
X70750000Y-39649100D03*
X70750000Y-41350900D03*
X65250000Y-26399100D03*
X65250000Y-28100900D03*
X62750000Y-39600900D03*
X62750000Y-37899100D03*
X118000000Y-43850900D03*
X118000000Y-42149100D03*
X112500000Y-42600900D03*
X112500000Y-40899100D03*
X110000000Y-71899100D03*
X110000000Y-73600900D03*
D19*
X90600900Y-58000000D03*
X88899100Y-58000000D03*
D18*
X100400000Y-90349100D03*
X100400000Y-92050900D03*
X96800000Y-89650900D03*
X96800000Y-87949100D03*
X96000000Y-111600900D03*
X96000000Y-109899100D03*
D19*
X89899100Y-108500000D03*
X91600900Y-108500000D03*
D18*
X78000000Y-128100900D03*
X78000000Y-126399100D03*
X65250000Y-124649100D03*
X65250000Y-126350900D03*
X87500000Y-27850900D03*
X87500000Y-26149100D03*
X101300000Y-31350900D03*
X101300000Y-29649100D03*
X97500000Y-27850900D03*
X97500000Y-26149100D03*
X97500000Y-37399100D03*
X97500000Y-39100900D03*
X97500000Y-44850900D03*
X97500000Y-43149100D03*
D20*
X68000000Y-50770000D03*
D21*
X68000000Y-48230000D03*
D20*
X117000000Y-50770000D03*
D21*
X117000000Y-48230000D03*
D20*
X81270000Y-26000000D03*
D21*
X78730000Y-26000000D03*
D20*
X81270000Y-31000000D03*
D21*
X78730000Y-31000000D03*
D20*
X81270000Y-36000000D03*
D21*
X78730000Y-36000000D03*
D20*
X81270000Y-41000000D03*
D21*
X78730000Y-41000000D03*
D20*
X106270000Y-26000000D03*
D21*
X103730000Y-26000000D03*
D20*
X106270000Y-31000000D03*
D21*
X103730000Y-31000000D03*
D20*
X106270000Y-36000000D03*
D21*
X103730000Y-36000000D03*
D20*
X106270000Y-41000000D03*
D21*
X103730000Y-41000000D03*
D15*
X98300000Y-58000000D03*
D16*
X107700000Y-58000000D03*
D17*
X103000000Y-53100000D03*
X103000000Y-61300000D03*
D15*
X72700000Y-98000000D03*
D16*
X63300000Y-98000000D03*
D17*
X68000000Y-102900000D03*
X68000000Y-94700000D03*
D15*
X112300000Y-78000000D03*
D16*
X121700000Y-78000000D03*
D17*
X117000000Y-73100000D03*
X117000000Y-81300000D03*
D15*
X77300000Y-78000000D03*
D16*
X86700000Y-78000000D03*
D17*
X82000000Y-73100000D03*
X82000000Y-81300000D03*
D15*
X77300000Y-58000000D03*
D16*
X86700000Y-58000000D03*
D17*
X82000000Y-53100000D03*
X82000000Y-61300000D03*
D15*
X63300000Y-78000000D03*
D16*
X72700000Y-78000000D03*
D17*
X68000000Y-73100000D03*
X68000000Y-81300000D03*
D11*
X85500000Y-128200000D03*
D12*
X85500000Y-118800000D03*
D13*
X80600000Y-123500000D03*
X88800000Y-123500000D03*
D11*
X99500000Y-128200000D03*
D12*
X99500000Y-118800000D03*
D13*
X94600000Y-123500000D03*
X102800000Y-123500000D03*
D11*
X117000000Y-128200000D03*
D12*
X117000000Y-118800000D03*
D13*
X112100000Y-123500000D03*
X120300000Y-123500000D03*
D22*
X119750000Y-109750000D03*
D23*
X122290000Y-109750000D03*
X119750000Y-107210000D03*
X122290000Y-107210000D03*
X119750000Y-104670000D03*
X122290000Y-104670000D03*
X119750000Y-102130000D03*
X122290000Y-102130000D03*
X119750000Y-99590000D03*
X122290000Y-99590000D03*
D24*
X65500000Y-55500000D03*
X70500000Y-55500000D03*
X70500000Y-60500000D03*
X65500000Y-60500000D03*
X119500000Y-60500000D03*
X114500000Y-60500000D03*
X114500000Y-55500000D03*
X119500000Y-55500000D03*
D25*
X122500000Y-27750000D03*
D26*
X74000000Y-122000000D03*
X69000000Y-122000000D03*
D14*
X110000000Y-114000000D03*
X115000000Y-114000000D03*
X105000000Y-114000000D03*
X70640762Y-49280570D03*
X75572190Y-48455332D03*
X65709334Y-50105808D03*
X68000000Y-107500000D03*
X63000000Y-107500000D03*
X73000000Y-107500000D03*
D26*
X113000000Y-68050000D03*
X110000000Y-68050000D03*
X107000000Y-68050000D03*
D27*
X115850000Y-68050000D03*
X104150000Y-68050000D03*
D28*
X121750000Y-36000000D03*
X73250000Y-42500000D03*
X82000000Y-71000000D03*
D29*
X78500000Y-45460000D03*
D26*
X78500000Y-48000000D03*
X78500000Y-50540000D03*
M02*
