M48
INCH,TZ
T1C0.018
T2C0.020
T3C0.026
T4C0.028
T5C0.030
T6C0.035
T7C0.039
T8C0.040
T9C0.043
T10C0.047
T11C0.051
%
G90
G05
T1
X24606Y-16339
X24705Y-14567
X24902Y-13878
X24902Y-11024
X25492Y-46457
X26378Y-10827
X26575Y-13386
X26606Y-14193
X26693Y-11417
X26772Y-30709
X27244Y-35315
X27264Y-15551
X27795Y-25669
X27854Y-46555
X28031Y-12165
X28248Y-45374
X28346Y-12913
X28346Y-14488
X28661Y-35315
X29016Y-14449
X29035Y-15846
X29528Y-26772
X30020Y-49606
X30276Y-41969
X30413Y-11614
X31142Y-39213
X32283Y-50591
X33071Y-46890
X33307Y-26457
X33425Y-10315
X33583Y-44134
X33760Y-16240
X33957Y-33760
X34409Y-42087
X34449Y-11593
X34646Y-46102
X34724Y-12047
X34724Y-16969
X34882Y-45000
X35335Y-37303
X35531Y-19882
X35531Y-34252
X35531Y-43406
X35630Y-31988
X36181Y-13031
X36181Y-13543
X36516Y-36614
X36663Y-11575
X36693Y-16969
X36693Y-42205
X37677Y-27441
X37717Y-21024
X37835Y-17874
X37894Y-34154
X37894Y-44783
X37913Y-10965
X37913Y-14724
X38031Y-16496
X38189Y-25630
X38228Y-12520
X38583Y-18307
X38898Y-18898
X38937Y-12520
X38976Y-16043
X39252Y-13661
X39528Y-35197
X39665Y-41142
X40059Y-14764
X40394Y-26220
X40394Y-39016
X40551Y-29921
X40984Y-17126
X41417Y-18622
X41437Y-19291
X41535Y-37303
X42118Y-28966
X42480Y-10965
X42618Y-43799
X42698Y-27383
X43386Y-20709
X43504Y-15433
X43504Y-26063
X44016Y-11063
X44331Y-15709
X44449Y-28425
X44646Y-12283
X44764Y-13071
X44882Y-15256
X45118Y-16969
X45276Y-32776
X45472Y-37283
X45571Y-18307
X46161Y-12598
X46161Y-13583
X46181Y-11535
X46693Y-11063
X46850Y-12087
X47103Y-18846
X47146Y-17224
X47539Y-21161
X48031Y-21161
X48839Y-25906
T3
X26772Y-18988
X26772Y-19988
X30996Y-10236
X30996Y-12205
X30996Y-14173
X30996Y-16142
X31996Y-10236
X31996Y-12205
X31996Y-14173
X31996Y-16142
X40839Y-10236
X40839Y-12205
X40839Y-14173
X40839Y-16142
X41839Y-10236
X41839Y-12205
X41839Y-14173
X41839Y-16142
X46063Y-18988
X46063Y-19988
T4
X25000Y-44094
X25000Y-44882
X27165Y-44094
X27165Y-44882
X43110Y-40846
X43898Y-40846
X44882Y-46358
X44882Y-47146
X47638Y-33366
X48425Y-33366
T5
X30709Y-48031
X32677Y-48031
T6
X26969Y-47917
X26969Y-49917
X27969Y-48917
X29709Y-34646
X30709Y-33646
X31709Y-34646
X42110Y-38287
X43110Y-37287
X43110Y-39287
X46638Y-26870
X47638Y-27870
X48638Y-26870
T8
X40732Y-33366
X41732Y-33366
X43783Y-34350
X44783Y-34350
X47146Y-39209
X47146Y-40209
X47146Y-41209
X47146Y-42209
X47146Y-43209
X48146Y-39209
X48146Y-40209
X48146Y-41209
X48146Y-42209
X48146Y-43209
T9
X25787Y-21850
X25787Y-23819
X27756Y-21850
X27756Y-23819
X45079Y-21850
X45079Y-23819
X47047Y-21850
X47047Y-23819
T10
X24803Y-33661
X26772Y-41437
X28839Y-16732
X28937Y-27461
X32283Y-27953
X32283Y-41437
X38976Y-46949
X47933Y-14173
X48228Y-10925
T11
X25870Y-19727
X27811Y-19402
X29753Y-19077
X31015Y-42776
X32407Y-44168
X33799Y-45560
X41339Y-44882
X43082Y-19077
X43307Y-44882
X45023Y-19402
X45276Y-44882
X46965Y-19727
T2
X26378Y-28780G85X27165Y-28780
G05
X26378Y-32008G85X27165Y-32008
G05
X27165Y-37283G85X26378Y-37283
G05
X27165Y-40512G85X26378Y-40512
G05
X32677Y-21535G85X31890Y-21535
G05
X32677Y-24764G85X31890Y-24764
G05
X31890Y-28780G85X32677Y-28780
G05
X31890Y-32008G85X32677Y-32008
G05
X32677Y-37283G85X31890Y-37283
G05
X32677Y-40512G85X31890Y-40512
G05
X34488Y-49016G85X34488Y-48228
G05
X37717Y-49016G85X37717Y-48228
G05
X40000Y-49016G85X40000Y-48228
G05
X40945Y-21535G85X40157Y-21535
G05
X40945Y-24764G85X40157Y-24764
G05
X40157Y-28780G85X40945Y-28780
G05
X40157Y-32008G85X40945Y-32008
G05
X43228Y-49016G85X43228Y-48228
G05
X45512Y-49016G85X45512Y-48228
G05
X45669Y-28780G85X46457Y-28780
G05
X45669Y-32008G85X46457Y-32008
G05
X48740Y-49016G85X48740Y-48228
G05
T7
X24921Y-30413G85X24921Y-31004
G05
X24921Y-38681G85X24921Y-38484
G05
X28622Y-30610G85X28622Y-30807
G05
X28622Y-38878G85X28622Y-38287
G05
X30433Y-22933G85X30433Y-22736
G05
X30433Y-30413G85X30433Y-31004
G05
X30433Y-38681G85X30433Y-38484
G05
X34134Y-23130G85X34134Y-22539
G05
X34134Y-30610G85X34134Y-30807
G05
X34134Y-38878G85X34134Y-38287
G05
X36319Y-46772G85X36516Y-46772
G05
X36122Y-50472G85X36713Y-50472
G05
X38701Y-22933G85X38701Y-22736
G05
X38701Y-30413G85X38701Y-31004
G05
X41831Y-46772G85X42028Y-46772
G05
X41634Y-50472G85X42224Y-50472
G05
X42402Y-23130G85X42402Y-22539
G05
X42402Y-30610G85X42402Y-30807
G05
X44213Y-30413G85X44213Y-31004
G05
X47343Y-46772G85X47539Y-46772
G05
X47146Y-50472G85X47736Y-50472
G05
X47913Y-30610G85X47913Y-30807
G05
T0
M30
