G04 #@! TF.FileFunction,Soldermask,Bot*
%FSLAX46Y46*%
G04 Gerber Fmt 4.6, Leading zero omitted, Abs format (unit mm)*
G04 Created by KiCad (PCBNEW 4.0.2-stable) date 2016-11-14 12:04:28 PM*
%MOMM*%
G01*
G04 APERTURE LIST*
%ADD10C,0.100000*%
%ADD11R,1.197560X0.798780*%
%ADD12C,2.398980*%
%ADD13O,2.900000X4.400000*%
%ADD14O,2.400000X2.900000*%
%ADD15O,3.900000X1.900000*%
%ADD16R,1.850000X0.850000*%
%ADD17R,1.800000X1.800000*%
%ADD18C,1.800000*%
%ADD19R,1.212800X1.543000*%
%ADD20R,1.543000X1.212800*%
%ADD21R,1.162000X1.009600*%
%ADD22R,2.797760X2.797760*%
%ADD23R,1.009600X1.162000*%
%ADD24R,1.600000X1.600000*%
%ADD25C,1.600000*%
%ADD26O,4.400000X2.900000*%
%ADD27O,2.900000X2.400000*%
%ADD28O,1.900000X3.900000*%
%ADD29R,2.432000X2.432000*%
%ADD30O,2.432000X2.432000*%
%ADD31R,2.127200X2.127200*%
%ADD32O,2.127200X2.127200*%
%ADD33R,1.400760X1.101040*%
%ADD34R,1.101040X1.400760*%
%ADD35R,1.543000X1.797000*%
%ADD36C,2.650000*%
%ADD37R,3.200000X2.000000*%
%ADD38R,2.000000X3.200000*%
%ADD39R,2.599640X0.999440*%
%ADD40R,1.900000X0.850000*%
%ADD41C,2.178000*%
%ADD42C,1.924000*%
%ADD43R,1.797000X1.543000*%
%ADD44R,1.700480X0.800000*%
G04 APERTURE END LIST*
D10*
D11*
X94547560Y-72852300D03*
X94547560Y-73500000D03*
X94547560Y-74147700D03*
X92952440Y-74147700D03*
X92952440Y-73500000D03*
X92952440Y-72852300D03*
X87797560Y-90352300D03*
X87797560Y-91000000D03*
X87797560Y-91647700D03*
X86202440Y-91647700D03*
X86202440Y-91000000D03*
X86202440Y-90352300D03*
X68702440Y-34147700D03*
X68702440Y-33500000D03*
X68702440Y-32852300D03*
X70297560Y-32852300D03*
X70297560Y-33500000D03*
X70297560Y-34147700D03*
X68702440Y-36647700D03*
X68702440Y-36000000D03*
X68702440Y-35352300D03*
X70297560Y-35352300D03*
X70297560Y-36000000D03*
X70297560Y-36647700D03*
D12*
X114359238Y-49280570D03*
X119290666Y-50105808D03*
X109427810Y-48455332D03*
D13*
X86700000Y-98000000D03*
D14*
X77300000Y-98000000D03*
D15*
X82000000Y-102900000D03*
X82000000Y-94700000D03*
D16*
X100450000Y-43050000D03*
X100450000Y-43700000D03*
X100450000Y-44350000D03*
X100450000Y-45000000D03*
X100450000Y-45650000D03*
X100450000Y-46300000D03*
X100450000Y-46950000D03*
X94550000Y-46950000D03*
X94550000Y-46300000D03*
X94550000Y-45650000D03*
X94550000Y-45000000D03*
X94550000Y-44350000D03*
X94550000Y-43700000D03*
X94550000Y-43050000D03*
D17*
X63500000Y-114000000D03*
D18*
X63500000Y-112000000D03*
D17*
X69000000Y-112000000D03*
D18*
X69000000Y-114000000D03*
D19*
X88399100Y-104250000D03*
X90100900Y-104250000D03*
D20*
X88250000Y-111350900D03*
X88250000Y-109649100D03*
D19*
X97149100Y-70750000D03*
X98850900Y-70750000D03*
D20*
X106750000Y-91350900D03*
X106750000Y-89649100D03*
X76000000Y-111399100D03*
X76000000Y-113100900D03*
X79500000Y-116100900D03*
X79500000Y-114399100D03*
D17*
X109500000Y-103750000D03*
D18*
X111500000Y-103750000D03*
D17*
X121000000Y-84750000D03*
D18*
X123000000Y-84750000D03*
D17*
X114000000Y-119750000D03*
D18*
X114000000Y-117750000D03*
D19*
X94100900Y-104000000D03*
X92399100Y-104000000D03*
D20*
X99750000Y-112600900D03*
X99750000Y-110899100D03*
X64250000Y-43350900D03*
X64250000Y-41649100D03*
D19*
X64899100Y-31500000D03*
X66600900Y-31500000D03*
X76850900Y-42500000D03*
X75149100Y-42500000D03*
D20*
X93500000Y-48899100D03*
X93500000Y-50600900D03*
D19*
X102399100Y-45500000D03*
X104100900Y-45500000D03*
D20*
X100500000Y-50600900D03*
X100500000Y-48899100D03*
D21*
X97000000Y-66755400D03*
X97000000Y-69244600D03*
X108250000Y-92744600D03*
X108250000Y-90255400D03*
D22*
X122000000Y-93449640D03*
X122000000Y-89050360D03*
X119050360Y-115500000D03*
X123449640Y-115500000D03*
D23*
X94494600Y-108000000D03*
X92005400Y-108000000D03*
X92005400Y-109500000D03*
X94494600Y-109500000D03*
D21*
X122250000Y-45255400D03*
X122250000Y-47744600D03*
X112500000Y-64244600D03*
X112500000Y-61755400D03*
D24*
X68000000Y-50770000D03*
D25*
X68000000Y-48230000D03*
D24*
X117000000Y-50770000D03*
D25*
X117000000Y-48230000D03*
D21*
X61000000Y-40744600D03*
X61000000Y-38255400D03*
X72000000Y-35994600D03*
X72000000Y-33505400D03*
D24*
X81270000Y-26000000D03*
D25*
X78730000Y-26000000D03*
D24*
X81270000Y-31000000D03*
D25*
X78730000Y-31000000D03*
D24*
X81270000Y-36000000D03*
D25*
X78730000Y-36000000D03*
D24*
X81270000Y-41000000D03*
D25*
X78730000Y-41000000D03*
D24*
X106270000Y-26000000D03*
D25*
X103730000Y-26000000D03*
D24*
X106270000Y-31000000D03*
D25*
X103730000Y-31000000D03*
D24*
X106270000Y-36000000D03*
D25*
X103730000Y-36000000D03*
D24*
X106270000Y-41000000D03*
D25*
X103730000Y-41000000D03*
D23*
X98244600Y-52250000D03*
X95755400Y-52250000D03*
D13*
X107700000Y-58000000D03*
D14*
X98300000Y-58000000D03*
D15*
X103000000Y-62900000D03*
X103000000Y-54700000D03*
D13*
X98300000Y-78000000D03*
D14*
X107700000Y-78000000D03*
D15*
X103000000Y-73100000D03*
X103000000Y-81300000D03*
D13*
X72700000Y-98000000D03*
D14*
X63300000Y-98000000D03*
D15*
X68000000Y-102900000D03*
X68000000Y-94700000D03*
D13*
X112300000Y-78000000D03*
D14*
X121700000Y-78000000D03*
D15*
X117000000Y-73100000D03*
X117000000Y-81300000D03*
D13*
X77300000Y-78000000D03*
D14*
X86700000Y-78000000D03*
D15*
X82000000Y-73100000D03*
X82000000Y-81300000D03*
D13*
X86700000Y-58000000D03*
D14*
X77300000Y-58000000D03*
D15*
X82000000Y-62900000D03*
X82000000Y-54700000D03*
D13*
X63300000Y-78000000D03*
D14*
X72700000Y-78000000D03*
D15*
X68000000Y-73100000D03*
X68000000Y-81300000D03*
D26*
X92500000Y-128200000D03*
D27*
X92500000Y-118800000D03*
D28*
X87600000Y-123500000D03*
X95800000Y-123500000D03*
D26*
X120500000Y-128200000D03*
D27*
X120500000Y-118800000D03*
D28*
X115600000Y-123500000D03*
X123800000Y-123500000D03*
D26*
X106500000Y-128200000D03*
D27*
X106500000Y-118800000D03*
D28*
X101600000Y-123500000D03*
X109800000Y-123500000D03*
D29*
X106000000Y-84750000D03*
D30*
X103460000Y-84750000D03*
D29*
X113750000Y-87250000D03*
D30*
X111210000Y-87250000D03*
D31*
X119750000Y-109750000D03*
D32*
X122290000Y-109750000D03*
X119750000Y-107210000D03*
X122290000Y-107210000D03*
X119750000Y-104670000D03*
X122290000Y-104670000D03*
X119750000Y-102130000D03*
X122290000Y-102130000D03*
X119750000Y-99590000D03*
X122290000Y-99590000D03*
D33*
X83270000Y-100000000D03*
X80730000Y-99047500D03*
X80730000Y-100952500D03*
X86770000Y-108250000D03*
X84230000Y-107297500D03*
X84230000Y-109202500D03*
X71730000Y-112250000D03*
X74270000Y-113202500D03*
X74270000Y-111297500D03*
D34*
X112750000Y-92770000D03*
X113702500Y-90230000D03*
X111797500Y-90230000D03*
X71500000Y-110020000D03*
X72452500Y-107480000D03*
X70547500Y-107480000D03*
D33*
X103020000Y-68000000D03*
X100480000Y-67047500D03*
X100480000Y-68952500D03*
D34*
X104000000Y-110270000D03*
X104952500Y-107730000D03*
X103047500Y-107730000D03*
X104000000Y-105770000D03*
X104952500Y-103230000D03*
X103047500Y-103230000D03*
X97500000Y-101980000D03*
X96547500Y-104520000D03*
X98452500Y-104520000D03*
X115500000Y-37730000D03*
X114547500Y-40270000D03*
X116452500Y-40270000D03*
X82000000Y-66230000D03*
X81047500Y-68770000D03*
X82952500Y-68770000D03*
D33*
X108980000Y-54750000D03*
X111520000Y-55702500D03*
X111520000Y-53797500D03*
D20*
X63500000Y-116399100D03*
X63500000Y-118100900D03*
X69000000Y-116399100D03*
X69000000Y-118100900D03*
D19*
X88399100Y-106000000D03*
X90100900Y-106000000D03*
X88149100Y-83500000D03*
X89850900Y-83500000D03*
X93100900Y-83500000D03*
X91399100Y-83500000D03*
X86600900Y-105250000D03*
X84899100Y-105250000D03*
X86600900Y-102500000D03*
X84899100Y-102500000D03*
X91399100Y-85250000D03*
X93100900Y-85250000D03*
D20*
X63500000Y-123100900D03*
X63500000Y-121399100D03*
D19*
X88399100Y-107750000D03*
X90100900Y-107750000D03*
D20*
X82250000Y-107649100D03*
X82250000Y-109350900D03*
D19*
X93100900Y-87000000D03*
X91399100Y-87000000D03*
X89850900Y-85250000D03*
X88149100Y-85250000D03*
D20*
X91500000Y-116100900D03*
X91500000Y-114399100D03*
X93500000Y-114399100D03*
X93500000Y-116100900D03*
D19*
X101850900Y-70750000D03*
X100149100Y-70750000D03*
D20*
X81250000Y-116100900D03*
X81250000Y-114399100D03*
X88000000Y-86899100D03*
X88000000Y-88600900D03*
X86250000Y-88600900D03*
X86250000Y-86899100D03*
X79500000Y-113100900D03*
X79500000Y-111399100D03*
X98750000Y-68850900D03*
X98750000Y-67149100D03*
D19*
X84350900Y-91000000D03*
X82649100Y-91000000D03*
D20*
X110250000Y-90149100D03*
X110250000Y-91850900D03*
X77750000Y-111399100D03*
X77750000Y-113100900D03*
D19*
X94600900Y-69750000D03*
X92899100Y-69750000D03*
D20*
X68750000Y-109350900D03*
X68750000Y-107649100D03*
D19*
X77399100Y-101000000D03*
X79100900Y-101000000D03*
X92899100Y-71500000D03*
X94600900Y-71500000D03*
D20*
X64000000Y-107649100D03*
X64000000Y-109350900D03*
D19*
X92399100Y-101750000D03*
X94100900Y-101750000D03*
D20*
X115500000Y-90149100D03*
X115500000Y-91850900D03*
D19*
X72850900Y-103250000D03*
X71149100Y-103250000D03*
X96850900Y-83500000D03*
X95149100Y-83500000D03*
D20*
X91000000Y-92850900D03*
X91000000Y-91149100D03*
X106750000Y-109399100D03*
X106750000Y-111100900D03*
D19*
X103399100Y-70750000D03*
X105100900Y-70750000D03*
D20*
X91000000Y-96350900D03*
X91000000Y-94649100D03*
D19*
X79100900Y-105000000D03*
X77399100Y-105000000D03*
X65600900Y-105250000D03*
X63899100Y-105250000D03*
D35*
X119920500Y-96500000D03*
X122079500Y-96500000D03*
X119920500Y-112500000D03*
X122079500Y-112500000D03*
D20*
X92500000Y-96350900D03*
X92500000Y-94649100D03*
X106750000Y-108100900D03*
X106750000Y-106399100D03*
X104750000Y-99399100D03*
X104750000Y-101100900D03*
X104250000Y-92850900D03*
X104250000Y-91149100D03*
X104250000Y-96350900D03*
X104250000Y-94649100D03*
X102500000Y-96350900D03*
X102500000Y-94649100D03*
D19*
X101600900Y-101750000D03*
X99899100Y-101750000D03*
X103899100Y-65250000D03*
X105600900Y-65250000D03*
X102600900Y-65250000D03*
X100899100Y-65250000D03*
D20*
X105000000Y-67149100D03*
X105000000Y-68850900D03*
D19*
X107649100Y-66250000D03*
X109350900Y-66250000D03*
X107600900Y-62000000D03*
X105899100Y-62000000D03*
X108350900Y-45250000D03*
X106649100Y-45250000D03*
X76399100Y-69750000D03*
X78100900Y-69750000D03*
D20*
X78500000Y-66149100D03*
X78500000Y-67850900D03*
D19*
X96350900Y-106250000D03*
X94649100Y-106250000D03*
D20*
X100500000Y-85350900D03*
X100500000Y-83649100D03*
D19*
X108399100Y-43500000D03*
X110100900Y-43500000D03*
X108399100Y-41750000D03*
X110100900Y-41750000D03*
D20*
X65750000Y-46149100D03*
X65750000Y-47850900D03*
D19*
X97899100Y-109000000D03*
X99600900Y-109000000D03*
X107649100Y-68000000D03*
X109350900Y-68000000D03*
X72649100Y-64250000D03*
X74350900Y-64250000D03*
D20*
X122250000Y-38649100D03*
X122250000Y-40350900D03*
X111000000Y-73149100D03*
X111000000Y-74850900D03*
D19*
X112399100Y-45250000D03*
X114100900Y-45250000D03*
D20*
X98000000Y-110899100D03*
X98000000Y-112600900D03*
D19*
X110899100Y-68000000D03*
X112600900Y-68000000D03*
X116149100Y-75500000D03*
X117850900Y-75500000D03*
X112649100Y-66000000D03*
X114350900Y-66000000D03*
X97899100Y-106250000D03*
X99600900Y-106250000D03*
D20*
X99750000Y-113899100D03*
X99750000Y-115600900D03*
D19*
X115399100Y-45250000D03*
X117100900Y-45250000D03*
D20*
X120500000Y-40350900D03*
X120500000Y-38649100D03*
D19*
X118399100Y-45250000D03*
X120100900Y-45250000D03*
D20*
X84750000Y-71100900D03*
X84750000Y-69399100D03*
X121250000Y-41899100D03*
X121250000Y-43600900D03*
X68000000Y-54100900D03*
X68000000Y-52399100D03*
X110500000Y-60100900D03*
X110500000Y-58399100D03*
X110500000Y-61399100D03*
X110500000Y-63100900D03*
D19*
X115149100Y-52750000D03*
X116850900Y-52750000D03*
X120350900Y-33250000D03*
X118649100Y-33250000D03*
X66649100Y-41500000D03*
X68350900Y-41500000D03*
X66649100Y-43250000D03*
X68350900Y-43250000D03*
D20*
X64250000Y-40100900D03*
X64250000Y-38399100D03*
X62500000Y-38399100D03*
X62500000Y-40100900D03*
D19*
X75149100Y-38000000D03*
X76850900Y-38000000D03*
X73399100Y-30750000D03*
X75100900Y-30750000D03*
X66100900Y-35250000D03*
X64399100Y-35250000D03*
D20*
X73750000Y-35600900D03*
X73750000Y-33899100D03*
X76000000Y-35600900D03*
X76000000Y-33899100D03*
D19*
X71350900Y-41500000D03*
X69649100Y-41500000D03*
X69649100Y-43250000D03*
X71350900Y-43250000D03*
X85850900Y-38750000D03*
X84149100Y-38750000D03*
X111350900Y-37500000D03*
X109649100Y-37500000D03*
X75149100Y-40250000D03*
X76850900Y-40250000D03*
X69649100Y-45000000D03*
X71350900Y-45000000D03*
D20*
X85500000Y-126399100D03*
X85500000Y-128100900D03*
X95250000Y-48899100D03*
X95250000Y-50600900D03*
X97000000Y-48899100D03*
X97000000Y-50600900D03*
D19*
X102399100Y-47250000D03*
X104100900Y-47250000D03*
X83100900Y-124750000D03*
X81399100Y-124750000D03*
D20*
X98750000Y-50600900D03*
X98750000Y-48899100D03*
X91750000Y-48899100D03*
X91750000Y-50600900D03*
D19*
X102399100Y-49000000D03*
X104100900Y-49000000D03*
X79100900Y-124750000D03*
X77399100Y-124750000D03*
X81100900Y-130000000D03*
X79399100Y-130000000D03*
D36*
X65500000Y-55500000D03*
X70500000Y-55500000D03*
X70500000Y-60500000D03*
X65500000Y-60500000D03*
X119500000Y-60500000D03*
X114500000Y-60500000D03*
X114500000Y-55500000D03*
X119500000Y-55500000D03*
D37*
X82000000Y-105250000D03*
X68000000Y-105250000D03*
D38*
X122500000Y-27750000D03*
X63000000Y-85500000D03*
D37*
X73500000Y-69750000D03*
X82000000Y-71000000D03*
X121750000Y-36000000D03*
D38*
X73250000Y-42500000D03*
X99000000Y-119250000D03*
D39*
X94901580Y-100195000D03*
X94901580Y-98925000D03*
X94901580Y-97655000D03*
X94901580Y-96385000D03*
X94901580Y-95115000D03*
X94901580Y-93845000D03*
X94901580Y-92575000D03*
X94901580Y-91305000D03*
X100098420Y-91305000D03*
X100098420Y-92575000D03*
X100098420Y-93845000D03*
X100098420Y-95115000D03*
X100098420Y-96385000D03*
X100098420Y-97655000D03*
X100098420Y-98925000D03*
X100098420Y-100195000D03*
D40*
X94550000Y-32775000D03*
X94550000Y-32125000D03*
X94550000Y-31475000D03*
X94550000Y-30825000D03*
X94550000Y-30175000D03*
X94550000Y-29525000D03*
X94550000Y-28875000D03*
X94550000Y-28225000D03*
X100450000Y-28225000D03*
X100450000Y-28875000D03*
X100450000Y-29525000D03*
X100450000Y-30175000D03*
X100450000Y-30825000D03*
X100450000Y-31475000D03*
X100450000Y-32125000D03*
X100450000Y-32775000D03*
X94550000Y-40775000D03*
X94550000Y-40125000D03*
X94550000Y-39475000D03*
X94550000Y-38825000D03*
X94550000Y-38175000D03*
X94550000Y-37525000D03*
X94550000Y-36875000D03*
X94550000Y-36225000D03*
X100450000Y-36225000D03*
X100450000Y-36875000D03*
X100450000Y-37525000D03*
X100450000Y-38175000D03*
X100450000Y-38825000D03*
X100450000Y-39475000D03*
X100450000Y-40125000D03*
X100450000Y-40775000D03*
D16*
X65050000Y-29475000D03*
X65050000Y-28825000D03*
X65050000Y-28175000D03*
X65050000Y-27525000D03*
X69450000Y-27525000D03*
X69450000Y-28175000D03*
X69450000Y-28825000D03*
X69450000Y-29475000D03*
D39*
X90098420Y-28055000D03*
X90098420Y-29325000D03*
X90098420Y-30595000D03*
X90098420Y-31865000D03*
X90098420Y-33135000D03*
X90098420Y-34405000D03*
X90098420Y-35675000D03*
X90098420Y-36945000D03*
X84901580Y-36945000D03*
X84901580Y-35675000D03*
X84901580Y-34405000D03*
X84901580Y-33135000D03*
X84901580Y-31865000D03*
X84901580Y-30595000D03*
X84901580Y-29325000D03*
X84901580Y-28055000D03*
X115348420Y-26805000D03*
X115348420Y-28075000D03*
X115348420Y-29345000D03*
X115348420Y-30615000D03*
X115348420Y-31885000D03*
X115348420Y-33155000D03*
X115348420Y-34425000D03*
X115348420Y-35695000D03*
X110151580Y-35695000D03*
X110151580Y-34425000D03*
X110151580Y-33155000D03*
X110151580Y-31885000D03*
X110151580Y-30615000D03*
X110151580Y-29345000D03*
X110151580Y-28075000D03*
X110151580Y-26805000D03*
D41*
X68500000Y-126790000D03*
X71040000Y-124250000D03*
X68500000Y-121710000D03*
X80540000Y-88000000D03*
X78000000Y-85460000D03*
X75460000Y-88000000D03*
D35*
X79079500Y-103000000D03*
X76920500Y-103000000D03*
X70670500Y-105250000D03*
X72829500Y-105250000D03*
D42*
X83000000Y-122000000D03*
X78000000Y-122000000D03*
D35*
X81579500Y-122000000D03*
X79420500Y-122000000D03*
D43*
X67500000Y-68079500D03*
X67500000Y-65920500D03*
D41*
X118460000Y-68250000D03*
X121000000Y-70790000D03*
X123540000Y-68250000D03*
X109500000Y-94710000D03*
X106960000Y-97250000D03*
X109500000Y-99790000D03*
D12*
X110000000Y-114000000D03*
X115000000Y-114000000D03*
X105000000Y-114000000D03*
X70640762Y-49280570D03*
X75572190Y-48455332D03*
X65709334Y-50105808D03*
X82313708Y-112186292D03*
X78778175Y-108650758D03*
X85849242Y-115721825D03*
D44*
X77556000Y-128455400D03*
X77556000Y-127820400D03*
X77556000Y-127160000D03*
X77556000Y-126525000D03*
X83144000Y-126525000D03*
X83144000Y-127172700D03*
X83144000Y-127820400D03*
X83144000Y-128468100D03*
X66806000Y-39955400D03*
X66806000Y-39320400D03*
X66806000Y-38660000D03*
X66806000Y-38025000D03*
X72394000Y-38025000D03*
X72394000Y-38672700D03*
X72394000Y-39320400D03*
X72394000Y-39968100D03*
X76194000Y-66044600D03*
X76194000Y-66679600D03*
X76194000Y-67340000D03*
X76194000Y-67975000D03*
X70606000Y-67975000D03*
X70606000Y-67327300D03*
X70606000Y-66679600D03*
X70606000Y-66031900D03*
X90181000Y-112830400D03*
X90181000Y-112195400D03*
X90181000Y-111535000D03*
X90181000Y-110900000D03*
X95769000Y-110900000D03*
X95769000Y-111547700D03*
X95769000Y-112195400D03*
X95769000Y-112843100D03*
X94806000Y-88705400D03*
X94806000Y-88070400D03*
X94806000Y-87410000D03*
X94806000Y-86775000D03*
X100394000Y-86775000D03*
X100394000Y-87422700D03*
X100394000Y-88070400D03*
X100394000Y-88718100D03*
X107306000Y-71455400D03*
X107306000Y-70820400D03*
X107306000Y-70160000D03*
X107306000Y-69525000D03*
X112894000Y-69525000D03*
X112894000Y-70172700D03*
X112894000Y-70820400D03*
X112894000Y-71468100D03*
X112556000Y-43705400D03*
X112556000Y-43070400D03*
X112556000Y-42410000D03*
X112556000Y-41775000D03*
X118144000Y-41775000D03*
X118144000Y-42422700D03*
X118144000Y-43070400D03*
X118144000Y-43718100D03*
M02*
