G04 #@! TF.FileFunction,Soldermask,Top*
%FSLAX46Y46*%
G04 Gerber Fmt 4.6, Leading zero omitted, Abs format (unit mm)*
G04 Created by KiCad (PCBNEW 4.0.2-stable) date 2016-11-14 12:04:29 PM*
%MOMM*%
G01*
G04 APERTURE LIST*
%ADD10C,0.100000*%
%ADD11C,2.398980*%
%ADD12O,2.900000X4.400000*%
%ADD13O,2.400000X2.900000*%
%ADD14O,3.900000X1.900000*%
%ADD15R,1.800000X1.800000*%
%ADD16C,1.800000*%
%ADD17R,1.543000X1.212800*%
%ADD18R,1.212800X1.543000*%
%ADD19R,1.600000X1.600000*%
%ADD20C,1.600000*%
%ADD21O,4.400000X2.900000*%
%ADD22O,2.900000X2.400000*%
%ADD23O,1.900000X3.900000*%
%ADD24R,2.432000X2.432000*%
%ADD25O,2.432000X2.432000*%
%ADD26R,2.127200X2.127200*%
%ADD27O,2.127200X2.127200*%
%ADD28C,2.650000*%
%ADD29R,3.200000X2.000000*%
%ADD30R,2.000000X3.200000*%
%ADD31C,2.178000*%
%ADD32C,1.924000*%
G04 APERTURE END LIST*
D10*
D11*
X114359238Y-49280570D03*
X119290666Y-50105808D03*
X109427810Y-48455332D03*
D12*
X86700000Y-98000000D03*
D13*
X77300000Y-98000000D03*
D14*
X82000000Y-102900000D03*
X82000000Y-94700000D03*
D15*
X63500000Y-114000000D03*
D16*
X63500000Y-112000000D03*
D15*
X69000000Y-112000000D03*
D16*
X69000000Y-114000000D03*
D17*
X71250000Y-27399100D03*
X71250000Y-29100900D03*
X70750000Y-39649100D03*
X70750000Y-41350900D03*
X65250000Y-26399100D03*
X65250000Y-28100900D03*
X62750000Y-39600900D03*
X62750000Y-37899100D03*
X118000000Y-43850900D03*
X118000000Y-42149100D03*
X112500000Y-42600900D03*
X112500000Y-40899100D03*
X110000000Y-74649100D03*
X110000000Y-76350900D03*
D18*
X108850900Y-65100000D03*
X107149100Y-65100000D03*
D17*
X100400000Y-90349100D03*
X100400000Y-92050900D03*
X96800000Y-89650900D03*
X96800000Y-87949100D03*
X96000000Y-111600900D03*
X96000000Y-109899100D03*
D18*
X89899100Y-108500000D03*
X91600900Y-108500000D03*
X83149100Y-129750000D03*
X84850900Y-129750000D03*
D17*
X80000000Y-128100900D03*
X80000000Y-126399100D03*
X87500000Y-27850900D03*
X87500000Y-26149100D03*
X101300000Y-31350900D03*
X101300000Y-29649100D03*
D15*
X109500000Y-103750000D03*
D16*
X111500000Y-103750000D03*
D15*
X121000000Y-84750000D03*
D16*
X123000000Y-84750000D03*
D15*
X114000000Y-119750000D03*
D16*
X114000000Y-117750000D03*
D17*
X97500000Y-27850900D03*
X97500000Y-26149100D03*
X97500000Y-37399100D03*
X97500000Y-39100900D03*
X97500000Y-44850900D03*
X97500000Y-43149100D03*
D19*
X68000000Y-50770000D03*
D20*
X68000000Y-48230000D03*
D19*
X117000000Y-50770000D03*
D20*
X117000000Y-48230000D03*
D19*
X81270000Y-26000000D03*
D20*
X78730000Y-26000000D03*
D19*
X81270000Y-31000000D03*
D20*
X78730000Y-31000000D03*
D19*
X81270000Y-36000000D03*
D20*
X78730000Y-36000000D03*
D19*
X81270000Y-41000000D03*
D20*
X78730000Y-41000000D03*
D19*
X106270000Y-26000000D03*
D20*
X103730000Y-26000000D03*
D19*
X106270000Y-31000000D03*
D20*
X103730000Y-31000000D03*
D19*
X106270000Y-36000000D03*
D20*
X103730000Y-36000000D03*
D19*
X106270000Y-41000000D03*
D20*
X103730000Y-41000000D03*
D12*
X107700000Y-58000000D03*
D13*
X98300000Y-58000000D03*
D14*
X103000000Y-62900000D03*
X103000000Y-54700000D03*
D12*
X98300000Y-78000000D03*
D13*
X107700000Y-78000000D03*
D14*
X103000000Y-73100000D03*
X103000000Y-81300000D03*
D12*
X72700000Y-98000000D03*
D13*
X63300000Y-98000000D03*
D14*
X68000000Y-102900000D03*
X68000000Y-94700000D03*
D12*
X112300000Y-78000000D03*
D13*
X121700000Y-78000000D03*
D14*
X117000000Y-73100000D03*
X117000000Y-81300000D03*
D12*
X77300000Y-78000000D03*
D13*
X86700000Y-78000000D03*
D14*
X82000000Y-73100000D03*
X82000000Y-81300000D03*
D12*
X86700000Y-58000000D03*
D13*
X77300000Y-58000000D03*
D14*
X82000000Y-62900000D03*
X82000000Y-54700000D03*
D12*
X63300000Y-78000000D03*
D13*
X72700000Y-78000000D03*
D14*
X68000000Y-73100000D03*
X68000000Y-81300000D03*
D21*
X92500000Y-128200000D03*
D22*
X92500000Y-118800000D03*
D23*
X87600000Y-123500000D03*
X95800000Y-123500000D03*
D21*
X120500000Y-128200000D03*
D22*
X120500000Y-118800000D03*
D23*
X115600000Y-123500000D03*
X123800000Y-123500000D03*
D21*
X106500000Y-128200000D03*
D22*
X106500000Y-118800000D03*
D23*
X101600000Y-123500000D03*
X109800000Y-123500000D03*
D24*
X106000000Y-84750000D03*
D25*
X103460000Y-84750000D03*
D24*
X113750000Y-87250000D03*
D25*
X111210000Y-87250000D03*
D26*
X119750000Y-109750000D03*
D27*
X122290000Y-109750000D03*
X119750000Y-107210000D03*
X122290000Y-107210000D03*
X119750000Y-104670000D03*
X122290000Y-104670000D03*
X119750000Y-102130000D03*
X122290000Y-102130000D03*
X119750000Y-99590000D03*
X122290000Y-99590000D03*
D28*
X65500000Y-55500000D03*
X70500000Y-55500000D03*
X70500000Y-60500000D03*
X65500000Y-60500000D03*
X119500000Y-60500000D03*
X114500000Y-60500000D03*
X114500000Y-55500000D03*
X119500000Y-55500000D03*
D29*
X82000000Y-105250000D03*
X68000000Y-105250000D03*
D30*
X122500000Y-27750000D03*
X63000000Y-85500000D03*
D29*
X73500000Y-69750000D03*
X82000000Y-71000000D03*
X121750000Y-36000000D03*
D30*
X73250000Y-42500000D03*
X99000000Y-119250000D03*
D31*
X68500000Y-126790000D03*
X71040000Y-124250000D03*
X68500000Y-121710000D03*
X80540000Y-88000000D03*
X78000000Y-85460000D03*
X75460000Y-88000000D03*
D32*
X83000000Y-122000000D03*
X78000000Y-122000000D03*
D31*
X118460000Y-68250000D03*
X121000000Y-70790000D03*
X123540000Y-68250000D03*
X109500000Y-94710000D03*
X106960000Y-97250000D03*
X109500000Y-99790000D03*
D11*
X110000000Y-114000000D03*
X115000000Y-114000000D03*
X105000000Y-114000000D03*
X70640762Y-49280570D03*
X75572190Y-48455332D03*
X65709334Y-50105808D03*
X82313708Y-112186292D03*
X78778175Y-108650758D03*
X85849242Y-115721825D03*
M02*
