M48
INCH,TZ
T1C0.018
T2C0.020
T3C0.026
T4C0.028
T5C0.030
T6C0.033
T7C0.039
T8C0.040
T9C0.043
T10C0.047
T11C0.051
%
G90
G05
T1
X24213Y-46358
X24606Y-16339
X24705Y-14567
X24902Y-13878
X24902Y-11024
X26378Y-10827
X26378Y-49803
X26575Y-13386
X26606Y-14193
X26693Y-11417
X26772Y-30709
X27244Y-35315
X27264Y-15551
X27795Y-25669
X28031Y-12165
X28248Y-45374
X28346Y-12913
X28346Y-14468
X28445Y-26772
X28583Y-28150
X28740Y-50591
X29016Y-14449
X29035Y-15846
X29134Y-35295
X29331Y-26772
X29724Y-49114
X30236Y-42579
X30413Y-11614
X31102Y-41929
X31142Y-39291
X32087Y-42579
X32520Y-36299
X32598Y-34882
X32717Y-26063
X32972Y-17421
X32972Y-19094
X33425Y-10315
X33504Y-25433
X33760Y-16240
X33957Y-33760
X34390Y-24776
X34409Y-42087
X34449Y-11593
X34724Y-12047
X34724Y-16969
X34866Y-23744
X34911Y-19882
X35039Y-18012
X35335Y-29232
X35335Y-30217
X35335Y-37303
X35531Y-34252
X35531Y-43406
X35945Y-32992
X36024Y-27264
X36102Y-21102
X36181Y-13031
X36181Y-13543
X36535Y-36614
X36663Y-11575
X36693Y-16969
X36693Y-42205
X37283Y-20591
X37402Y-22677
X37835Y-17874
X37894Y-34154
X37894Y-44783
X37913Y-10965
X37913Y-14724
X37992Y-27264
X38031Y-16496
X38228Y-12520
X38583Y-18307
X38780Y-25295
X38898Y-18898
X38937Y-12520
X38976Y-16043
X39252Y-13661
X39528Y-35197
X39665Y-41142
X40059Y-14764
X40394Y-39016
X40984Y-17126
X41417Y-18622
X41437Y-19291
X41535Y-37303
X42028Y-34843
X42480Y-10965
X42520Y-34252
X42618Y-43799
X43071Y-37402
X43209Y-46752
X43307Y-25984
X43386Y-20709
X43504Y-15433
X43661Y-46752
X43858Y-39287
X44016Y-11063
X44114Y-46752
X44331Y-15709
X44764Y-13071
X44882Y-15256
X45177Y-22835
X45472Y-37402
X45531Y-24882
X45571Y-18307
X45650Y-40197
X45669Y-41201
X45689Y-42205
X46161Y-12598
X46161Y-13583
X46181Y-11535
X46654Y-33740
X46693Y-11063
X46850Y-12087
X46996Y-24880
X47067Y-33740
X47103Y-18846
X47146Y-17224
X47461Y-33740
X47500Y-27854
X47638Y-15157
X47992Y-24528
X48405Y-24507
X48839Y-25906
T3
X26772Y-18988
X26772Y-19988
X30996Y-10236
X30996Y-12205
X30996Y-14173
X30996Y-16142
X31996Y-10236
X31996Y-12205
X31996Y-14173
X31996Y-16142
X40839Y-10236
X40839Y-12205
X40839Y-14173
X40839Y-16142
X41839Y-10236
X41839Y-12205
X41839Y-14173
X41839Y-16142
X46063Y-18988
X46063Y-19988
T5
X27165Y-48031
X29134Y-48031
T6
X28839Y-16732
X32283Y-27953
X47933Y-14173
T7
X42126Y-26791
X43307Y-26791
X44488Y-26791
T8
X30906Y-17898
X30906Y-18898
X30906Y-19898
X47146Y-39209
X47146Y-40209
X47146Y-41209
X47146Y-42209
X47146Y-43209
X48146Y-39209
X48146Y-40209
X48146Y-41209
X48146Y-42209
X48146Y-43209
T9
X25787Y-21850
X25787Y-23819
X27756Y-21850
X27756Y-23819
X45079Y-21850
X45079Y-23819
X47047Y-21850
X47047Y-23819
T10
X48228Y-10925
T11
X24803Y-42323
X25870Y-19727
X26772Y-42323
X27811Y-19402
X28740Y-42323
X29753Y-19077
X41339Y-44882
X43082Y-19077
X43307Y-44882
X45023Y-19402
X45276Y-44882
X46965Y-19727
T2
X26378Y-28780G85X27165Y-28780
G05
X26378Y-32008G85X27165Y-32008
G05
X27165Y-37283G85X26378Y-37283
G05
X27165Y-40512G85X26378Y-40512
G05
X31732Y-49016G85X31732Y-48228
G05
X31890Y-20906G85X32677Y-20906
G05
X31890Y-24134G85X32677Y-24134
G05
X31890Y-28780G85X32677Y-28780
G05
X31890Y-32008G85X32677Y-32008
G05
X32677Y-37283G85X31890Y-37283
G05
X32677Y-40512G85X31890Y-40512
G05
X34961Y-49016G85X34961Y-48228
G05
X37244Y-49016G85X37244Y-48228
G05
X38622Y-31102G85X38622Y-30315
G05
X40472Y-49016G85X40472Y-48228
G05
X40157Y-20906G85X40945Y-20906
G05
X40157Y-24134G85X40945Y-24134
G05
X41850Y-31102G85X41850Y-30315
G05
X44134Y-49016G85X44134Y-48228
G05
X45669Y-28780G85X46457Y-28780
G05
X45669Y-32008G85X46457Y-32008
G05
X47362Y-49016G85X47362Y-48228
G05
T4
X41004Y-27067G85X41004Y-26516
G05
X45610Y-27067G85X45610Y-26516
G05
T7
X24921Y-30413G85X24921Y-31004
G05
X24921Y-38681G85X24921Y-38484
G05
X28622Y-30610G85X28622Y-30807
G05
X28622Y-38878G85X28622Y-38287
G05
X30433Y-22539G85X30433Y-23130
G05
X30433Y-30413G85X30433Y-31004
G05
X30433Y-38681G85X30433Y-38484
G05
X33563Y-46772G85X33760Y-46772
G05
X33366Y-50472G85X33957Y-50472
G05
X34134Y-22736G85X34134Y-22933
G05
X34134Y-30610G85X34134Y-30807
G05
X34134Y-38878G85X34134Y-38287
G05
X38701Y-22539G85X38701Y-23130
G05
X39075Y-46772G85X39272Y-46772
G05
X38878Y-50472G85X39469Y-50472
G05
X40453Y-28858G85X40650Y-28858
G05
X40256Y-32559G85X40846Y-32559
G05
X42402Y-22736G85X42402Y-22933
G05
X44213Y-30413G85X44213Y-31004
G05
X45965Y-46772G85X46161Y-46772
G05
X45768Y-50472G85X46358Y-50472
G05
X47913Y-30610G85X47913Y-30807
G05
T0
M30
