M48
INCH,TZ
T1C0.018
T2C0.020
T3C0.026
T4C0.028
T5C0.030
T6C0.033
T7C0.039
T8C0.040
T9C0.043
T10C0.047
T11C0.051
T12C0.079
%
G90
G05
T1
X21654Y-68209
X22362Y-38583
X22736Y-66240
X22795Y-35276
X23622Y-32795
X23819Y-71654
X24016Y-35236
X24047Y-36044
X24134Y-33268
X24213Y-52559
X24685Y-57165
X24705Y-37402
X25157Y-34291
X25236Y-47520
X25453Y-57854
X25709Y-66890
X25787Y-34764
X25787Y-36319
X25886Y-48622
X26024Y-50000
X26181Y-72441
X26457Y-36299
X26476Y-37697
X26496Y-63425
X26654Y-56732
X26772Y-48622
X27165Y-70965
X27402Y-58150
X27441Y-48937
X27677Y-64429
X27854Y-33465
X28386Y-32815
X28543Y-63780
X28583Y-61142
X28819Y-51811
X28976Y-47795
X29370Y-46732
X29528Y-64429
X29528Y-66890
X30157Y-47913
X30413Y-39272
X30413Y-40945
X30945Y-47283
X31201Y-38091
X31398Y-55610
X31772Y-33504
X31850Y-46339
X31850Y-48543
X32126Y-47913
X32165Y-38819
X32307Y-45594
X32323Y-33898
X32352Y-41732
X32480Y-39862
X32776Y-59154
X32835Y-54764
X32972Y-56102
X32972Y-65256
X33307Y-49331
X33622Y-34882
X33622Y-35394
X33661Y-44094
X33976Y-58465
X33976Y-63346
X34104Y-33425
X34134Y-38819
X34154Y-63799
X34154Y-65295
X34252Y-68031
X34528Y-45984
X34606Y-54803
X34843Y-44528
X34921Y-42165
X35000Y-67087
X35197Y-35591
X35276Y-39724
X35335Y-56004
X35335Y-66634
X35354Y-32815
X35354Y-36575
X35394Y-38268
X35433Y-49114
X35787Y-48622
X36339Y-40748
X36378Y-34193
X36417Y-37894
X36850Y-35472
X37106Y-62992
X37500Y-36614
X37677Y-57244
X37992Y-44665
X38031Y-62008
X38091Y-41929
X38366Y-57304
X38425Y-38976
X38701Y-65551
X38858Y-40472
X38878Y-41142
X38976Y-59154
X39173Y-47323
X39882Y-57126
X39921Y-32815
X39961Y-56102
X40236Y-37323
X40354Y-50157
X40512Y-59252
X40709Y-38622
X41063Y-42323
X41260Y-68110
X41296Y-38232
X41299Y-49252
X41299Y-61138
X41457Y-32913
X41634Y-68110
X41960Y-40141
X42047Y-68110
X42205Y-34921
X42323Y-37106
X42421Y-69390
X42441Y-68110
X42618Y-44685
X42638Y-47953
X42795Y-59252
X42972Y-46732
X42992Y-42165
X43091Y-62047
X43110Y-63051
X43110Y-63976
X43465Y-43268
X43602Y-34449
X43602Y-35433
X43622Y-33386
X44094Y-55591
X44094Y-55984
X44094Y-56378
X44094Y-32795
X44449Y-33976
X44449Y-47165
X44508Y-55591
X44537Y-40682
X44587Y-39075
X44685Y-56220
X44902Y-55591
X44941Y-49705
X45079Y-37008
X45157Y-44882
X45551Y-46772
X45866Y-46260
X46102Y-59803
X46280Y-47756
X47244Y-68209
X47953Y-38583
X48327Y-66240
X48386Y-35276
X49213Y-32795
X49409Y-71654
X49606Y-35236
X49638Y-36044
X49724Y-33268
X49803Y-52559
X50276Y-57165
X50295Y-37402
X50748Y-34291
X50827Y-47520
X51043Y-57854
X51299Y-66890
X51378Y-34764
X51378Y-36319
X51476Y-48622
X51614Y-50000
X51772Y-72441
X52047Y-36299
X52067Y-37697
X52087Y-63425
X52244Y-56732
X52362Y-48622
X52756Y-70965
X52992Y-58150
X53031Y-48937
X53268Y-64429
X53445Y-33465
X53976Y-32815
X54134Y-63780
X54173Y-61142
X54409Y-51811
X54567Y-47795
X54961Y-46732
X55118Y-64429
X55118Y-66890
X55748Y-47913
X56004Y-39272
X56004Y-40945
X56535Y-47283
X56791Y-38091
X56988Y-55610
X57362Y-33504
X57441Y-46339
X57441Y-48543
X57717Y-47913
X57756Y-38819
X57897Y-45594
X57913Y-33898
X57943Y-41732
X58071Y-39862
X58366Y-59154
X58425Y-54764
X58563Y-56102
X58563Y-65256
X58898Y-49331
X59213Y-34882
X59213Y-35394
X59252Y-44094
X59567Y-58465
X59567Y-63346
X59695Y-33425
X59724Y-38819
X59744Y-63799
X59744Y-65295
X59843Y-68031
X60118Y-45984
X60197Y-54803
X60433Y-44528
X60512Y-42165
X60591Y-67087
X60787Y-35591
X60866Y-39724
X60925Y-56004
X60925Y-66634
X60945Y-32815
X60945Y-36575
X60984Y-38268
X61024Y-49114
X61378Y-48622
X61929Y-40748
X61969Y-34193
X62008Y-37894
X62441Y-35472
X62697Y-62992
X63091Y-36614
X63268Y-57244
X63583Y-44665
X63622Y-62008
X63681Y-41929
X63957Y-57304
X64016Y-38976
X64291Y-65551
X64449Y-40472
X64469Y-41142
X64567Y-59154
X64764Y-47323
X65472Y-57126
X65512Y-32815
X65551Y-56102
X65827Y-37323
X65945Y-50157
X66102Y-59252
X66299Y-38622
X66654Y-42323
X66850Y-68110
X66887Y-38232
X66890Y-49252
X66890Y-61138
X67047Y-32913
X67224Y-68110
X67550Y-40141
X67638Y-68110
X67795Y-34921
X67913Y-37106
X68012Y-69390
X68031Y-68110
X68209Y-44685
X68228Y-47953
X68386Y-59252
X68563Y-46732
X68583Y-42165
X68681Y-62047
X68701Y-63051
X68701Y-63976
X69055Y-43268
X69193Y-34449
X69193Y-35433
X69213Y-33386
X69685Y-55591
X69685Y-55984
X69685Y-56378
X69685Y-32795
X70039Y-33976
X70039Y-47165
X70098Y-55591
X70128Y-40682
X70177Y-39075
X70276Y-56220
X70492Y-55591
X70531Y-49705
X70669Y-37008
X70748Y-44882
X71142Y-46772
X71457Y-46260
X71693Y-59803
X71870Y-47756
X72835Y-68209
X73543Y-38583
X73917Y-66240
X73976Y-35276
X74803Y-32795
X75000Y-71654
X75197Y-35236
X75228Y-36044
X75315Y-33268
X75394Y-52559
X75866Y-57165
X75886Y-37402
X76339Y-34291
X76417Y-47520
X76634Y-57854
X76890Y-66890
X76969Y-34764
X76969Y-36319
X77067Y-48622
X77205Y-50000
X77362Y-72441
X77638Y-36299
X77657Y-37697
X77677Y-63425
X77835Y-56732
X77953Y-48622
X78346Y-70965
X78583Y-58150
X78622Y-48937
X78858Y-64429
X79035Y-33465
X79567Y-32815
X79724Y-63780
X79764Y-61142
X80000Y-51811
X80157Y-47795
X80551Y-46732
X80709Y-64429
X80709Y-66890
X81338Y-47913
X81594Y-39272
X81594Y-40945
X82126Y-47283
X82382Y-38091
X82579Y-55610
X82953Y-33504
X83031Y-46339
X83031Y-48543
X83307Y-47913
X83346Y-38819
X83488Y-45594
X83504Y-33898
X83533Y-41732
X83661Y-39862
X83957Y-59154
X84016Y-54764
X84154Y-56102
X84154Y-65256
X84488Y-49331
X84803Y-34882
X84803Y-35394
X84843Y-44094
X85157Y-58465
X85157Y-63346
X85285Y-33425
X85315Y-38819
X85335Y-63799
X85335Y-65295
X85433Y-68031
X85709Y-45984
X85787Y-54803
X86024Y-44528
X86102Y-42165
X86181Y-67087
X86378Y-35591
X86457Y-39724
X86516Y-56004
X86516Y-66634
X86535Y-32815
X86535Y-36575
X86575Y-38268
X86614Y-49114
X86969Y-48622
X87520Y-40748
X87559Y-34193
X87598Y-37894
X88031Y-35472
X88287Y-62992
X88681Y-36614
X88858Y-57244
X89173Y-44665
X89213Y-62008
X89272Y-41929
X89548Y-57304
X89606Y-38976
X89882Y-65551
X90039Y-40472
X90059Y-41142
X90157Y-59154
X90354Y-47323
X91063Y-57126
X91102Y-32815
X91142Y-56102
X91417Y-37323
X91535Y-50157
X91693Y-59252
X91890Y-38622
X92244Y-42323
X92441Y-68110
X92478Y-38232
X92480Y-49252
X92480Y-61138
X92638Y-32913
X92815Y-68110
X93141Y-40141
X93228Y-68110
X93386Y-34921
X93504Y-37106
X93602Y-69390
X93622Y-68110
X93799Y-44685
X93819Y-47953
X93976Y-59252
X94154Y-46732
X94173Y-42165
X94272Y-62047
X94291Y-63051
X94291Y-63976
X94646Y-43268
X94783Y-34449
X94783Y-35433
X94803Y-33386
X95276Y-55591
X95276Y-55984
X95276Y-56378
X95276Y-32795
X95630Y-33976
X95630Y-47165
X95689Y-55591
X95719Y-40682
X95768Y-39075
X95866Y-56220
X96083Y-55591
X96122Y-49705
X96260Y-37008
X96339Y-44882
X96732Y-46772
X97047Y-46260
X97283Y-59803
X97461Y-47756
X98425Y-68209
X99134Y-38583
X99508Y-66240
X99567Y-35276
X100394Y-32795
X100591Y-71654
X100787Y-35236
X100819Y-36044
X100906Y-33268
X100984Y-52559
X101457Y-57165
X101476Y-37402
X101929Y-34291
X102008Y-47520
X102224Y-57854
X102480Y-66890
X102559Y-34764
X102559Y-36319
X102657Y-48622
X102795Y-50000
X102953Y-72441
X103228Y-36299
X103248Y-37697
X103268Y-63425
X103425Y-56732
X103543Y-48622
X103937Y-70965
X104173Y-58150
X104213Y-48937
X104449Y-64429
X104626Y-33465
X105157Y-32815
X105315Y-63780
X105354Y-61142
X105591Y-51811
X105748Y-47795
X106142Y-46732
X106299Y-64429
X106299Y-66890
X106929Y-47913
X107185Y-39272
X107185Y-40945
X107717Y-47283
X107972Y-38091
X108169Y-55610
X108543Y-33504
X108622Y-46339
X108622Y-48543
X108898Y-47913
X108937Y-38819
X109078Y-45594
X109094Y-33898
X109124Y-41732
X109252Y-39862
X109547Y-59154
X109606Y-54764
X109744Y-56102
X109744Y-65256
X110079Y-49331
X110394Y-34882
X110394Y-35394
X110433Y-44094
X110748Y-58465
X110748Y-63346
X110876Y-33425
X110906Y-38819
X110925Y-63799
X110925Y-65295
X111024Y-68031
X111299Y-45984
X111378Y-54803
X111614Y-44528
X111693Y-42165
X111772Y-67087
X111969Y-35591
X112047Y-39724
X112106Y-56004
X112106Y-66634
X112126Y-32815
X112126Y-36575
X112165Y-38268
X112205Y-49114
X112559Y-48622
X113110Y-40748
X113150Y-34193
X113189Y-37894
X113622Y-35472
X113878Y-62992
X114272Y-36614
X114449Y-57244
X114764Y-44665
X114803Y-62008
X114862Y-41929
X115138Y-57304
X115197Y-38976
X115472Y-65551
X115630Y-40472
X115650Y-41142
X115748Y-59154
X115945Y-47323
X116654Y-57126
X116693Y-32815
X116732Y-56102
X117008Y-37323
X117126Y-50157
X117283Y-59252
X117480Y-38622
X117835Y-42323
X118032Y-68110
X118068Y-38232
X118071Y-49252
X118071Y-61138
X118228Y-32913
X118406Y-68110
X118732Y-40141
X118819Y-68110
X118976Y-34921
X119094Y-37106
X119193Y-69390
X119213Y-68110
X119390Y-44685
X119409Y-47953
X119567Y-59252
X119744Y-46732
X119764Y-42165
X119862Y-62047
X119882Y-63051
X119882Y-63976
X120236Y-43268
X120374Y-34449
X120374Y-35433
X120394Y-33386
X120866Y-55591
X120866Y-55984
X120866Y-56378
X120866Y-32795
X121220Y-33976
X121220Y-47165
X121280Y-55591
X121309Y-40682
X121358Y-39075
X121457Y-56220
X121673Y-55591
X121713Y-49705
X121850Y-37008
X121929Y-44882
X122323Y-46772
X122638Y-46260
X122874Y-59803
X123051Y-47756
T3
X22461Y-34252
X24213Y-40839
X24213Y-41839
X24232Y-34252
X28437Y-32087
X28437Y-34055
X28437Y-36024
X28437Y-37992
X29437Y-32087
X29437Y-34055
X29437Y-36024
X29437Y-37992
X38280Y-32087
X38280Y-34055
X38280Y-36024
X38280Y-37992
X39280Y-32087
X39280Y-34055
X39280Y-36024
X39280Y-37992
X43504Y-40839
X43504Y-41839
X48051Y-34252
X49803Y-40839
X49803Y-41839
X49823Y-34252
X54028Y-32087
X54028Y-34055
X54028Y-36024
X54028Y-37992
X55028Y-32087
X55028Y-34055
X55028Y-36024
X55028Y-37992
X63870Y-32087
X63870Y-34055
X63870Y-36024
X63870Y-37992
X64870Y-32087
X64870Y-34055
X64870Y-36024
X64870Y-37992
X69094Y-40839
X69094Y-41839
X73642Y-34252
X75394Y-40839
X75394Y-41839
X75413Y-34252
X79618Y-32087
X79618Y-34055
X79618Y-36024
X79618Y-37992
X80618Y-32087
X80618Y-34055
X80618Y-36024
X80618Y-37992
X89461Y-32087
X89461Y-34055
X89461Y-36024
X89461Y-37992
X90461Y-32087
X90461Y-34055
X90461Y-36024
X90461Y-37992
X94685Y-40839
X94685Y-41839
X99232Y-34252
X100984Y-40839
X100984Y-41839
X101004Y-34252
X105209Y-32087
X105209Y-34055
X105209Y-36024
X105209Y-37992
X106209Y-32087
X106209Y-34055
X106209Y-36024
X106209Y-37992
X115051Y-32087
X115051Y-34055
X115051Y-36024
X115051Y-37992
X116051Y-32087
X116051Y-34055
X116051Y-36024
X116051Y-37992
X120276Y-40839
X120276Y-41839
T5
X24508Y-69783
X26476Y-69783
X50098Y-69783
X52067Y-69783
X75689Y-69783
X77657Y-69783
X101280Y-69783
X103248Y-69783
T6
X26280Y-38583
X29724Y-49803
X45374Y-36024
X51870Y-38583
X55315Y-49803
X70965Y-36024
X77461Y-38583
X80906Y-49803
X96555Y-36024
X103051Y-38583
X106496Y-49803
X122146Y-36024
T7
X39567Y-48642
X40748Y-48642
X41929Y-48642
X65157Y-48642
X66339Y-48642
X67520Y-48642
X90748Y-48642
X91929Y-48642
X93110Y-48642
X116339Y-48642
X117520Y-48642
X118701Y-48642
T8
X28346Y-39748
X28346Y-40748
X28346Y-41748
X44587Y-61059
X44587Y-62059
X44587Y-63059
X44587Y-64059
X44587Y-65059
X45587Y-61059
X45587Y-62059
X45587Y-63059
X45587Y-64059
X45587Y-65059
X53937Y-39748
X53937Y-40748
X53937Y-41748
X70177Y-61059
X70177Y-62059
X70177Y-63059
X70177Y-64059
X70177Y-65059
X71177Y-61059
X71177Y-62059
X71177Y-63059
X71177Y-64059
X71177Y-65059
X79528Y-39748
X79528Y-40748
X79528Y-41748
X95768Y-61059
X95768Y-62059
X95768Y-63059
X95768Y-64059
X95768Y-65059
X96768Y-61059
X96768Y-62059
X96768Y-63059
X96768Y-64059
X96768Y-65059
X105118Y-39748
X105118Y-40748
X105118Y-41748
X121358Y-61059
X121358Y-62059
X121358Y-63059
X121358Y-64059
X121358Y-65059
X122358Y-61059
X122358Y-62059
X122358Y-63059
X122358Y-64059
X122358Y-65059
T9
X23228Y-43701
X23228Y-45669
X25197Y-43701
X25197Y-45669
X42520Y-43701
X42520Y-45669
X44488Y-43701
X44488Y-45669
X48819Y-43701
X48819Y-45669
X50787Y-43701
X50787Y-45669
X68110Y-43701
X68110Y-45669
X70079Y-43701
X70079Y-45669
X74409Y-43701
X74409Y-45669
X76378Y-43701
X76378Y-45669
X93701Y-43701
X93701Y-45669
X95669Y-43701
X95669Y-45669
X100000Y-43701
X100000Y-45669
X101969Y-43701
X101969Y-45669
X119291Y-43701
X119291Y-45669
X121260Y-43701
X121260Y-45669
T10
X45965Y-33957
X71555Y-33957
X97146Y-33957
X122736Y-33957
T11
X22244Y-64173
X23311Y-41577
X24213Y-64173
X25252Y-41252
X26181Y-64173
X27194Y-40927
X38780Y-66732
X40523Y-40927
X40748Y-66732
X42464Y-41252
X42717Y-66732
X44406Y-41577
X47835Y-64173
X48901Y-41577
X49803Y-64173
X50843Y-41252
X51772Y-64173
X52784Y-40927
X64370Y-66732
X66113Y-40927
X66339Y-66732
X68055Y-41252
X68307Y-66732
X69996Y-41577
X73425Y-64173
X74492Y-41577
X75394Y-64173
X76433Y-41252
X77362Y-64173
X78375Y-40927
X89961Y-66732
X91704Y-40927
X91929Y-66732
X93645Y-41252
X93898Y-66732
X95587Y-41577
X99016Y-64173
X100082Y-41577
X100984Y-64173
X102024Y-41252
X102953Y-64173
X103965Y-40927
X115551Y-66732
X117294Y-40927
X117520Y-66732
X119236Y-41252
X119488Y-66732
X121177Y-41577
T12
X22244Y-30512
X22244Y-74803
X122244Y-30512
X122244Y-74803
T2
X23819Y-50630G85X24606Y-50630
G05
X23819Y-53858G85X24606Y-53858
G05
X24606Y-59134G85X23819Y-59134
G05
X24606Y-62362G85X23819Y-62362
G05
X29173Y-70866G85X29173Y-70079
G05
X29331Y-42756G85X30118Y-42756
G05
X29331Y-45984G85X30118Y-45984
G05
X29331Y-50630G85X30118Y-50630
G05
X29331Y-53858G85X30118Y-53858
G05
X30118Y-59134G85X29331Y-59134
G05
X30118Y-62362G85X29331Y-62362
G05
X32402Y-70866G85X32402Y-70079
G05
X34685Y-70866G85X34685Y-70079
G05
X36063Y-52953G85X36063Y-52165
G05
X37913Y-70866G85X37913Y-70079
G05
X37598Y-42756G85X38386Y-42756
G05
X37598Y-45984G85X38386Y-45984
G05
X39291Y-52953G85X39291Y-52165
G05
X41575Y-70866G85X41575Y-70079
G05
X43110Y-50630G85X43898Y-50630
G05
X43110Y-53858G85X43898Y-53858
G05
X44803Y-70866G85X44803Y-70079
G05
X49409Y-50630G85X50197Y-50630
G05
X49409Y-53858G85X50197Y-53858
G05
X50197Y-59134G85X49409Y-59134
G05
X50197Y-62362G85X49409Y-62362
G05
X54764Y-70866G85X54764Y-70079
G05
X54921Y-42756G85X55709Y-42756
G05
X54921Y-45984G85X55709Y-45984
G05
X54921Y-50630G85X55709Y-50630
G05
X54921Y-53858G85X55709Y-53858
G05
X55709Y-59134G85X54921Y-59134
G05
X55709Y-62362G85X54921Y-62362
G05
X57992Y-70866G85X57992Y-70079
G05
X60276Y-70866G85X60276Y-70079
G05
X61654Y-52953G85X61654Y-52165
G05
X63504Y-70866G85X63504Y-70079
G05
X63189Y-42756G85X63976Y-42756
G05
X63189Y-45984G85X63976Y-45984
G05
X64882Y-52953G85X64882Y-52165
G05
X67165Y-70866G85X67165Y-70079
G05
X68701Y-50630G85X69488Y-50630
G05
X68701Y-53858G85X69488Y-53858
G05
X70394Y-70866G85X70394Y-70079
G05
X75000Y-50630G85X75787Y-50630
G05
X75000Y-53858G85X75787Y-53858
G05
X75787Y-59134G85X75000Y-59134
G05
X75787Y-62362G85X75000Y-62362
G05
X80354Y-70866G85X80354Y-70079
G05
X80512Y-42756G85X81299Y-42756
G05
X80512Y-45984G85X81299Y-45984
G05
X80512Y-50630G85X81299Y-50630
G05
X80512Y-53858G85X81299Y-53858
G05
X81299Y-59134G85X80512Y-59134
G05
X81299Y-62362G85X80512Y-62362
G05
X83583Y-70866G85X83583Y-70079
G05
X85866Y-70866G85X85866Y-70079
G05
X87244Y-52953G85X87244Y-52165
G05
X89094Y-70866G85X89094Y-70079
G05
X88780Y-42756G85X89567Y-42756
G05
X88780Y-45984G85X89567Y-45984
G05
X90472Y-52953G85X90472Y-52165
G05
X92756Y-70866G85X92756Y-70079
G05
X94291Y-50630G85X95079Y-50630
G05
X94291Y-53858G85X95079Y-53858
G05
X95984Y-70866G85X95984Y-70079
G05
X100591Y-50630G85X101378Y-50630
G05
X100591Y-53858G85X101378Y-53858
G05
X101378Y-59134G85X100591Y-59134
G05
X101378Y-62362G85X100591Y-62362
G05
X105945Y-70866G85X105945Y-70079
G05
X106102Y-42756G85X106890Y-42756
G05
X106102Y-45984G85X106890Y-45984
G05
X106102Y-50630G85X106890Y-50630
G05
X106102Y-53858G85X106890Y-53858
G05
X106890Y-59134G85X106102Y-59134
G05
X106890Y-62362G85X106102Y-62362
G05
X109173Y-70866G85X109173Y-70079
G05
X111457Y-70866G85X111457Y-70079
G05
X112835Y-52953G85X112835Y-52165
G05
X114685Y-70866G85X114685Y-70079
G05
X114370Y-42756G85X115157Y-42756
G05
X114370Y-45984G85X115157Y-45984
G05
X116063Y-52953G85X116063Y-52165
G05
X118346Y-70866G85X118346Y-70079
G05
X119882Y-50630G85X120669Y-50630
G05
X119882Y-53858G85X120669Y-53858
G05
X121575Y-70866G85X121575Y-70079
G05
T4
X38189Y-48750G85X38189Y-48533
G05
X43307Y-48750G85X43307Y-48533
G05
X63780Y-48750G85X63780Y-48533
G05
X68898Y-48750G85X68898Y-48533
G05
X89370Y-48750G85X89370Y-48533
G05
X94488Y-48750G85X94488Y-48533
G05
X114961Y-48750G85X114961Y-48533
G05
X120079Y-48750G85X120079Y-48533
G05
T7
X22362Y-52264G85X22362Y-52854
G05
X22362Y-60531G85X22362Y-60335
G05
X26063Y-52461G85X26063Y-52657
G05
X26063Y-60728G85X26063Y-60138
G05
X27874Y-44390G85X27874Y-44980
G05
X27874Y-52264G85X27874Y-52854
G05
X27874Y-60531G85X27874Y-60335
G05
X31004Y-68622G85X31201Y-68622
G05
X30807Y-72323G85X31398Y-72323
G05
X31575Y-44587G85X31575Y-44783
G05
X31575Y-52461G85X31575Y-52657
G05
X31575Y-60728G85X31575Y-60138
G05
X36142Y-44390G85X36142Y-44980
G05
X36516Y-68622G85X36713Y-68622
G05
X36319Y-72323G85X36909Y-72323
G05
X37894Y-50709G85X38091Y-50709
G05
X37697Y-54409G85X38287Y-54409
G05
X39843Y-44587G85X39843Y-44783
G05
X41654Y-52264G85X41654Y-52854
G05
X43406Y-68622G85X43602Y-68622
G05
X43209Y-72323G85X43799Y-72323
G05
X45354Y-52461G85X45354Y-52657
G05
X47953Y-52264G85X47953Y-52854
G05
X47953Y-60531G85X47953Y-60335
G05
X51654Y-52461G85X51654Y-52657
G05
X51654Y-60728G85X51654Y-60138
G05
X53465Y-44390G85X53465Y-44980
G05
X53465Y-52264G85X53465Y-52854
G05
X53465Y-60531G85X53465Y-60335
G05
X56594Y-68622G85X56791Y-68622
G05
X56398Y-72323G85X56988Y-72323
G05
X57165Y-44587G85X57165Y-44783
G05
X57165Y-52461G85X57165Y-52657
G05
X57165Y-60728G85X57165Y-60138
G05
X61732Y-44390G85X61732Y-44980
G05
X62106Y-68622G85X62303Y-68622
G05
X61909Y-72323G85X62500Y-72323
G05
X63484Y-50709G85X63681Y-50709
G05
X63287Y-54409G85X63878Y-54409
G05
X65433Y-44587G85X65433Y-44783
G05
X67244Y-52264G85X67244Y-52854
G05
X68996Y-68622G85X69193Y-68622
G05
X68799Y-72323G85X69390Y-72323
G05
X70945Y-52461G85X70945Y-52657
G05
X73543Y-52264G85X73543Y-52854
G05
X73543Y-60531G85X73543Y-60335
G05
X77244Y-52461G85X77244Y-52657
G05
X77244Y-60728G85X77244Y-60138
G05
X79055Y-44390G85X79055Y-44980
G05
X79055Y-52264G85X79055Y-52854
G05
X79055Y-60531G85X79055Y-60335
G05
X82185Y-68622G85X82382Y-68622
G05
X81988Y-72323G85X82579Y-72323
G05
X82756Y-44587G85X82756Y-44783
G05
X82756Y-52461G85X82756Y-52657
G05
X82756Y-60728G85X82756Y-60138
G05
X87323Y-44390G85X87323Y-44980
G05
X87697Y-68622G85X87894Y-68622
G05
X87500Y-72323G85X88091Y-72323
G05
X89075Y-50709G85X89272Y-50709
G05
X88878Y-54409G85X89469Y-54409
G05
X91024Y-44587G85X91024Y-44783
G05
X92835Y-52264G85X92835Y-52854
G05
X94587Y-68622G85X94783Y-68622
G05
X94390Y-72323G85X94980Y-72323
G05
X96535Y-52461G85X96535Y-52657
G05
X99134Y-52264G85X99134Y-52854
G05
X99134Y-60531G85X99134Y-60335
G05
X102835Y-52461G85X102835Y-52657
G05
X102835Y-60728G85X102835Y-60138
G05
X104646Y-44390G85X104646Y-44980
G05
X104646Y-52264G85X104646Y-52854
G05
X104646Y-60531G85X104646Y-60335
G05
X107776Y-68622G85X107972Y-68622
G05
X107579Y-72323G85X108169Y-72323
G05
X108346Y-44587G85X108346Y-44783
G05
X108346Y-52461G85X108346Y-52657
G05
X108346Y-60728G85X108346Y-60138
G05
X112913Y-44390G85X112913Y-44980
G05
X113287Y-68622G85X113484Y-68622
G05
X113091Y-72323G85X113681Y-72323
G05
X114665Y-50709G85X114862Y-50709
G05
X114469Y-54409G85X115059Y-54409
G05
X116614Y-44587G85X116614Y-44783
G05
X118425Y-52264G85X118425Y-52854
G05
X120177Y-68622G85X120374Y-68622
G05
X119980Y-72323G85X120571Y-72323
G05
X122126Y-52461G85X122126Y-52657
G05
T0
M30
