G04 #@! TF.FileFunction,Soldermask,Top*
%FSLAX46Y46*%
G04 Gerber Fmt 4.6, Leading zero omitted, Abs format (unit mm)*
G04 Created by KiCad (PCBNEW 4.0.2-stable) date 2018-03-19 11:23:05 AM*
%MOMM*%
G01*
G04 APERTURE LIST*
%ADD10C,0.100000*%
%ADD11C,2.020000*%
%ADD12R,1.620000X2.820000*%
%ADD13C,1.520000*%
%ADD14R,1.544000X1.544000*%
%ADD15C,1.544000*%
%ADD16C,1.320000*%
%ADD17R,1.747200X1.747200*%
%ADD18O,1.747200X1.747200*%
%ADD19R,1.220000X1.220000*%
%ADD20C,1.220000*%
%ADD21C,2.018980*%
%ADD22O,4.020000X2.520000*%
%ADD23O,2.520000X2.020000*%
%ADD24O,1.520000X3.520000*%
%ADD25O,2.520000X4.020000*%
%ADD26O,2.020000X2.520000*%
%ADD27O,3.520000X1.520000*%
%ADD28R,1.520000X2.020000*%
%ADD29C,2.270000*%
G04 APERTURE END LIST*
D10*
D11*
X310500000Y-77500000D03*
X310500000Y-190000000D03*
X56500000Y-190000000D03*
X56500000Y-77500000D03*
D12*
X311750000Y-86250000D03*
D13*
X310250000Y-91500000D03*
D14*
X267000000Y-100960000D03*
D15*
X267000000Y-103500000D03*
X267000000Y-106040000D03*
D13*
X261750000Y-98000000D03*
D16*
X256550000Y-87000000D03*
X252050000Y-87000000D03*
D13*
X245250000Y-91500000D03*
D12*
X246750000Y-86250000D03*
D13*
X205500000Y-126500000D03*
D14*
X202000000Y-100960000D03*
D15*
X202000000Y-103500000D03*
X202000000Y-106040000D03*
D13*
X196750000Y-98000000D03*
D16*
X191550000Y-87000000D03*
X187050000Y-87000000D03*
D13*
X270500000Y-126500000D03*
D17*
X308250000Y-165250000D03*
D18*
X310790000Y-165250000D03*
X308250000Y-162710000D03*
X310790000Y-162710000D03*
X308250000Y-160170000D03*
X310790000Y-160170000D03*
X308250000Y-157630000D03*
X310790000Y-157630000D03*
X308250000Y-155090000D03*
X310790000Y-155090000D03*
D17*
X243250000Y-165250000D03*
D18*
X245790000Y-165250000D03*
X243250000Y-162710000D03*
X245790000Y-162710000D03*
X243250000Y-160170000D03*
X245790000Y-160170000D03*
X243250000Y-157630000D03*
X245790000Y-157630000D03*
X243250000Y-155090000D03*
X245790000Y-155090000D03*
D15*
X192250000Y-177250000D03*
X197250000Y-177250000D03*
X257250000Y-177250000D03*
X262250000Y-177250000D03*
D19*
X229770000Y-96500000D03*
D20*
X227230000Y-96500000D03*
D19*
X229770000Y-91500000D03*
D20*
X227230000Y-91500000D03*
D19*
X229770000Y-81500000D03*
D20*
X227230000Y-81500000D03*
D21*
X237859238Y-104780570D03*
X242790666Y-105605808D03*
X232927810Y-103955332D03*
D19*
X229770000Y-86500000D03*
D20*
X227230000Y-86500000D03*
D19*
X204770000Y-86500000D03*
D20*
X202230000Y-86500000D03*
D19*
X204770000Y-91500000D03*
D20*
X202230000Y-91500000D03*
D19*
X204770000Y-81500000D03*
D20*
X202230000Y-81500000D03*
D21*
X194140762Y-104780570D03*
X199072190Y-103955332D03*
X189209334Y-105605808D03*
D19*
X191500000Y-106270000D03*
D20*
X191500000Y-103730000D03*
D19*
X204770000Y-96500000D03*
D20*
X202230000Y-96500000D03*
D19*
X256500000Y-106270000D03*
D20*
X256500000Y-103730000D03*
D19*
X269770000Y-96500000D03*
D20*
X267230000Y-96500000D03*
D19*
X269770000Y-91500000D03*
D20*
X267230000Y-91500000D03*
D21*
X259140762Y-104780570D03*
X264072190Y-103955332D03*
X254209334Y-105605808D03*
D19*
X269770000Y-81500000D03*
D20*
X267230000Y-81500000D03*
D19*
X269770000Y-86500000D03*
D20*
X267230000Y-86500000D03*
D19*
X240500000Y-106270000D03*
D20*
X240500000Y-103730000D03*
D21*
X302859238Y-104780570D03*
X307790666Y-105605808D03*
X297927810Y-103955332D03*
D19*
X294770000Y-81500000D03*
D20*
X292230000Y-81500000D03*
D19*
X294770000Y-96500000D03*
D20*
X292230000Y-96500000D03*
D19*
X305500000Y-106270000D03*
D20*
X305500000Y-103730000D03*
D19*
X294770000Y-91500000D03*
D20*
X292230000Y-91500000D03*
D19*
X294770000Y-86500000D03*
D20*
X292230000Y-86500000D03*
D21*
X298500000Y-169500000D03*
X303500000Y-169500000D03*
X293500000Y-169500000D03*
D22*
X274000000Y-183700000D03*
D23*
X274000000Y-174300000D03*
D24*
X269100000Y-179000000D03*
X277300000Y-179000000D03*
D22*
X288000000Y-183700000D03*
D23*
X288000000Y-174300000D03*
D24*
X283100000Y-179000000D03*
X291300000Y-179000000D03*
D22*
X305500000Y-183700000D03*
D23*
X305500000Y-174300000D03*
D24*
X300600000Y-179000000D03*
X308800000Y-179000000D03*
D25*
X275200000Y-153500000D03*
D26*
X265800000Y-153500000D03*
D27*
X270500000Y-158400000D03*
X270500000Y-150200000D03*
D21*
X256500000Y-163000000D03*
X251500000Y-163000000D03*
X261500000Y-163000000D03*
D22*
X223000000Y-183700000D03*
D23*
X223000000Y-174300000D03*
D24*
X218100000Y-179000000D03*
X226300000Y-179000000D03*
D22*
X240500000Y-183700000D03*
D23*
X240500000Y-174300000D03*
D24*
X235600000Y-179000000D03*
X243800000Y-179000000D03*
D21*
X233500000Y-169500000D03*
X238500000Y-169500000D03*
X228500000Y-169500000D03*
D25*
X261200000Y-153500000D03*
D26*
X251800000Y-153500000D03*
D27*
X256500000Y-158400000D03*
X256500000Y-150200000D03*
D22*
X209000000Y-183700000D03*
D23*
X209000000Y-174300000D03*
D24*
X204100000Y-179000000D03*
X212300000Y-179000000D03*
D25*
X196200000Y-153500000D03*
D26*
X186800000Y-153500000D03*
D27*
X191500000Y-158400000D03*
X191500000Y-150200000D03*
D25*
X210200000Y-153500000D03*
D26*
X200800000Y-153500000D03*
D27*
X205500000Y-158400000D03*
X205500000Y-150200000D03*
D21*
X191500000Y-163000000D03*
X186500000Y-163000000D03*
X196500000Y-163000000D03*
D25*
X265800000Y-133500000D03*
D26*
X275200000Y-133500000D03*
D27*
X270500000Y-128600000D03*
X270500000Y-136800000D03*
D25*
X265800000Y-113500000D03*
D26*
X275200000Y-113500000D03*
D27*
X270500000Y-108600000D03*
X270500000Y-116800000D03*
D15*
X301500000Y-123550000D03*
X298500000Y-123550000D03*
X295500000Y-123550000D03*
D28*
X305000000Y-123550000D03*
X292000000Y-123550000D03*
D25*
X286800000Y-113500000D03*
D26*
X296200000Y-113500000D03*
D27*
X291500000Y-108600000D03*
X291500000Y-116800000D03*
D25*
X300800000Y-133500000D03*
D26*
X310200000Y-133500000D03*
D27*
X305500000Y-128600000D03*
X305500000Y-136800000D03*
D22*
X291500000Y-138200000D03*
D23*
X291500000Y-128800000D03*
D24*
X286600000Y-133500000D03*
X294800000Y-133500000D03*
D29*
X308000000Y-116000000D03*
X303000000Y-116000000D03*
X303000000Y-111000000D03*
X308000000Y-111000000D03*
X254000000Y-111000000D03*
X259000000Y-111000000D03*
X259000000Y-116000000D03*
X254000000Y-116000000D03*
D25*
X251800000Y-133500000D03*
D26*
X261200000Y-133500000D03*
D27*
X256500000Y-128600000D03*
X256500000Y-136800000D03*
D25*
X221800000Y-113500000D03*
D26*
X231200000Y-113500000D03*
D27*
X226500000Y-108600000D03*
X226500000Y-116800000D03*
D29*
X243000000Y-116000000D03*
X238000000Y-116000000D03*
X238000000Y-111000000D03*
X243000000Y-111000000D03*
D15*
X236500000Y-123550000D03*
X233500000Y-123550000D03*
X230500000Y-123550000D03*
D28*
X240000000Y-123550000D03*
X227000000Y-123550000D03*
D22*
X226500000Y-138200000D03*
D23*
X226500000Y-128800000D03*
D24*
X221600000Y-133500000D03*
X229800000Y-133500000D03*
D25*
X235800000Y-133500000D03*
D26*
X245200000Y-133500000D03*
D27*
X240500000Y-128600000D03*
X240500000Y-136800000D03*
D25*
X200800000Y-133500000D03*
D26*
X210200000Y-133500000D03*
D27*
X205500000Y-128600000D03*
X205500000Y-136800000D03*
D25*
X200800000Y-113500000D03*
D26*
X210200000Y-113500000D03*
D27*
X205500000Y-108600000D03*
X205500000Y-116800000D03*
D29*
X189000000Y-111000000D03*
X194000000Y-111000000D03*
X194000000Y-116000000D03*
X189000000Y-116000000D03*
D25*
X186800000Y-133500000D03*
D26*
X196200000Y-133500000D03*
D27*
X191500000Y-128600000D03*
X191500000Y-136800000D03*
D14*
X137000000Y-100960000D03*
D15*
X137000000Y-103500000D03*
X137000000Y-106040000D03*
D13*
X131750000Y-98000000D03*
D16*
X126550000Y-87000000D03*
X122050000Y-87000000D03*
D15*
X127250000Y-177250000D03*
X132250000Y-177250000D03*
D13*
X140500000Y-126500000D03*
D17*
X178250000Y-165250000D03*
D18*
X180790000Y-165250000D03*
X178250000Y-162710000D03*
X180790000Y-162710000D03*
X178250000Y-160170000D03*
X180790000Y-160170000D03*
X178250000Y-157630000D03*
X180790000Y-157630000D03*
X178250000Y-155090000D03*
X180790000Y-155090000D03*
D12*
X181750000Y-86250000D03*
D13*
X180250000Y-91500000D03*
D21*
X129140762Y-104780570D03*
X134072190Y-103955332D03*
X124209334Y-105605808D03*
D19*
X139770000Y-81500000D03*
D20*
X137230000Y-81500000D03*
D19*
X126500000Y-106270000D03*
D20*
X126500000Y-103730000D03*
D25*
X135800000Y-113500000D03*
D26*
X145200000Y-113500000D03*
D27*
X140500000Y-108600000D03*
X140500000Y-116800000D03*
D19*
X139770000Y-96500000D03*
D20*
X137230000Y-96500000D03*
D19*
X139770000Y-91500000D03*
D20*
X137230000Y-91500000D03*
D19*
X139770000Y-86500000D03*
D20*
X137230000Y-86500000D03*
D21*
X126500000Y-163000000D03*
X121500000Y-163000000D03*
X131500000Y-163000000D03*
D25*
X131200000Y-153500000D03*
D26*
X121800000Y-153500000D03*
D27*
X126500000Y-158400000D03*
X126500000Y-150200000D03*
D21*
X168500000Y-169500000D03*
X173500000Y-169500000D03*
X163500000Y-169500000D03*
D22*
X175500000Y-183700000D03*
D23*
X175500000Y-174300000D03*
D24*
X170600000Y-179000000D03*
X178800000Y-179000000D03*
D22*
X158000000Y-183700000D03*
D23*
X158000000Y-174300000D03*
D24*
X153100000Y-179000000D03*
X161300000Y-179000000D03*
D22*
X144000000Y-183700000D03*
D23*
X144000000Y-174300000D03*
D24*
X139100000Y-179000000D03*
X147300000Y-179000000D03*
D25*
X145200000Y-153500000D03*
D26*
X135800000Y-153500000D03*
D27*
X140500000Y-158400000D03*
X140500000Y-150200000D03*
D15*
X171500000Y-123550000D03*
X168500000Y-123550000D03*
X165500000Y-123550000D03*
D28*
X175000000Y-123550000D03*
X162000000Y-123550000D03*
D25*
X121800000Y-133500000D03*
D26*
X131200000Y-133500000D03*
D27*
X126500000Y-128600000D03*
X126500000Y-136800000D03*
D25*
X135800000Y-133500000D03*
D26*
X145200000Y-133500000D03*
D27*
X140500000Y-128600000D03*
X140500000Y-136800000D03*
D25*
X170800000Y-133500000D03*
D26*
X180200000Y-133500000D03*
D27*
X175500000Y-128600000D03*
X175500000Y-136800000D03*
D29*
X178000000Y-116000000D03*
X173000000Y-116000000D03*
X173000000Y-111000000D03*
X178000000Y-111000000D03*
X124000000Y-111000000D03*
X129000000Y-111000000D03*
X129000000Y-116000000D03*
X124000000Y-116000000D03*
D25*
X156800000Y-113500000D03*
D26*
X166200000Y-113500000D03*
D27*
X161500000Y-108600000D03*
X161500000Y-116800000D03*
D22*
X161500000Y-138200000D03*
D23*
X161500000Y-128800000D03*
D24*
X156600000Y-133500000D03*
X164800000Y-133500000D03*
D19*
X164770000Y-96500000D03*
D20*
X162230000Y-96500000D03*
D19*
X175500000Y-106270000D03*
D20*
X175500000Y-103730000D03*
D19*
X164770000Y-86500000D03*
D20*
X162230000Y-86500000D03*
D19*
X164770000Y-81500000D03*
D20*
X162230000Y-81500000D03*
D21*
X172859238Y-104780570D03*
X177790666Y-105605808D03*
X167927810Y-103955332D03*
D19*
X164770000Y-91500000D03*
D20*
X162230000Y-91500000D03*
D21*
X107859238Y-104780570D03*
X112790666Y-105605808D03*
X102927810Y-103955332D03*
D22*
X96500000Y-138200000D03*
D23*
X96500000Y-128800000D03*
D24*
X91600000Y-133500000D03*
X99800000Y-133500000D03*
D25*
X80200000Y-153500000D03*
D26*
X70800000Y-153500000D03*
D27*
X75500000Y-158400000D03*
X75500000Y-150200000D03*
D19*
X61500000Y-106270000D03*
D20*
X61500000Y-103730000D03*
D19*
X110500000Y-106270000D03*
D20*
X110500000Y-103730000D03*
D19*
X74770000Y-81500000D03*
D20*
X72230000Y-81500000D03*
D19*
X74770000Y-86500000D03*
D20*
X72230000Y-86500000D03*
D19*
X74770000Y-91500000D03*
D20*
X72230000Y-91500000D03*
D19*
X74770000Y-96500000D03*
D20*
X72230000Y-96500000D03*
D19*
X99770000Y-81500000D03*
D20*
X97230000Y-81500000D03*
D19*
X99770000Y-86500000D03*
D20*
X97230000Y-86500000D03*
D19*
X99770000Y-91500000D03*
D20*
X97230000Y-91500000D03*
D19*
X99770000Y-96500000D03*
D20*
X97230000Y-96500000D03*
D25*
X91800000Y-113500000D03*
D26*
X101200000Y-113500000D03*
D27*
X96500000Y-108600000D03*
X96500000Y-116800000D03*
D25*
X66200000Y-153500000D03*
D26*
X56800000Y-153500000D03*
D27*
X61500000Y-158400000D03*
X61500000Y-150200000D03*
D25*
X105800000Y-133500000D03*
D26*
X115200000Y-133500000D03*
D27*
X110500000Y-128600000D03*
X110500000Y-136800000D03*
D25*
X70800000Y-133500000D03*
D26*
X80200000Y-133500000D03*
D27*
X75500000Y-128600000D03*
X75500000Y-136800000D03*
D25*
X70800000Y-113500000D03*
D26*
X80200000Y-113500000D03*
D27*
X75500000Y-108600000D03*
X75500000Y-116800000D03*
D25*
X56800000Y-133500000D03*
D26*
X66200000Y-133500000D03*
D27*
X61500000Y-128600000D03*
X61500000Y-136800000D03*
D22*
X79000000Y-183700000D03*
D23*
X79000000Y-174300000D03*
D24*
X74100000Y-179000000D03*
X82300000Y-179000000D03*
D22*
X93000000Y-183700000D03*
D23*
X93000000Y-174300000D03*
D24*
X88100000Y-179000000D03*
X96300000Y-179000000D03*
D22*
X110500000Y-183700000D03*
D23*
X110500000Y-174300000D03*
D24*
X105600000Y-179000000D03*
X113800000Y-179000000D03*
D17*
X113250000Y-165250000D03*
D18*
X115790000Y-165250000D03*
X113250000Y-162710000D03*
X115790000Y-162710000D03*
X113250000Y-160170000D03*
X115790000Y-160170000D03*
X113250000Y-157630000D03*
X115790000Y-157630000D03*
X113250000Y-155090000D03*
X115790000Y-155090000D03*
D29*
X59000000Y-111000000D03*
X64000000Y-111000000D03*
X64000000Y-116000000D03*
X59000000Y-116000000D03*
X113000000Y-116000000D03*
X108000000Y-116000000D03*
X108000000Y-111000000D03*
X113000000Y-111000000D03*
D12*
X116750000Y-86250000D03*
D15*
X62250000Y-177250000D03*
X67250000Y-177250000D03*
D21*
X103500000Y-169500000D03*
X108500000Y-169500000D03*
X98500000Y-169500000D03*
X64140762Y-104780570D03*
X69072190Y-103955332D03*
X59209334Y-105605808D03*
X61500000Y-163000000D03*
X56500000Y-163000000D03*
X66500000Y-163000000D03*
D13*
X115250000Y-91500000D03*
X66750000Y-98000000D03*
X75500000Y-126500000D03*
D14*
X72000000Y-100960000D03*
D15*
X72000000Y-103500000D03*
X72000000Y-106040000D03*
X106500000Y-123550000D03*
X103500000Y-123550000D03*
X100500000Y-123550000D03*
D28*
X110000000Y-123550000D03*
X97000000Y-123550000D03*
D16*
X61550000Y-87000000D03*
X57050000Y-87000000D03*
M02*
