G04 #@! TF.FileFunction,Paste,Bot*
%FSLAX46Y46*%
G04 Gerber Fmt 4.6, Leading zero omitted, Abs format (unit mm)*
G04 Created by KiCad (PCBNEW 4.0.2-stable) date 2018-03-19 11:27:31 AM*
%MOMM*%
G01*
G04 APERTURE LIST*
%ADD10C,0.100000*%
%ADD11O,0.980000X0.980000*%
%ADD12R,0.880000X0.780000*%
%ADD13R,1.430000X0.430000*%
%ADD14R,1.480000X0.430000*%
%ADD15R,0.681040X0.980760*%
%ADD16R,1.280480X0.380000*%
%ADD17R,2.179640X0.579440*%
%ADD18R,0.742000X0.589600*%
%ADD19R,1.040000X0.630000*%
%ADD20R,0.589600X0.742000*%
%ADD21R,1.580000X1.480000*%
%ADD22R,1.180000X1.180000*%
%ADD23R,0.777560X0.378780*%
%ADD24R,1.123000X1.377000*%
%ADD25R,1.377000X1.123000*%
%ADD26R,0.980760X0.681040*%
%ADD27R,0.980000X1.230000*%
%ADD28R,2.377760X2.377760*%
%ADD29R,1.580000X2.980000*%
%ADD30R,1.480000X1.580000*%
%ADD31R,0.378780X0.777560*%
G04 APERTURE END LIST*
D10*
D11*
X306500000Y-77500000D03*
X60500000Y-190000000D03*
D12*
X285650000Y-90000000D03*
X287350000Y-90000000D03*
D13*
X288950000Y-98550000D03*
X288950000Y-99200000D03*
X288950000Y-99850000D03*
X288950000Y-100500000D03*
X288950000Y-101150000D03*
X288950000Y-101800000D03*
X288950000Y-102450000D03*
X283050000Y-102450000D03*
X283050000Y-101800000D03*
X283050000Y-101150000D03*
X283050000Y-100500000D03*
X283050000Y-99850000D03*
X283050000Y-99200000D03*
X283050000Y-98550000D03*
D14*
X283050000Y-88275000D03*
X283050000Y-87625000D03*
X283050000Y-86975000D03*
X283050000Y-86325000D03*
X283050000Y-85675000D03*
X283050000Y-85025000D03*
X283050000Y-84375000D03*
X283050000Y-83725000D03*
X288950000Y-83725000D03*
X288950000Y-84375000D03*
X288950000Y-85025000D03*
X288950000Y-85675000D03*
X288950000Y-86325000D03*
X288950000Y-86975000D03*
X288950000Y-87625000D03*
X288950000Y-88275000D03*
X283050000Y-96275000D03*
X283050000Y-95625000D03*
X283050000Y-94975000D03*
X283050000Y-94325000D03*
X283050000Y-93675000D03*
X283050000Y-93025000D03*
X283050000Y-92375000D03*
X283050000Y-91725000D03*
X288950000Y-91725000D03*
X288950000Y-92375000D03*
X288950000Y-93025000D03*
X288950000Y-93675000D03*
X288950000Y-94325000D03*
X288950000Y-94975000D03*
X288950000Y-95625000D03*
X288950000Y-96275000D03*
D12*
X290900000Y-102750000D03*
X292600000Y-102750000D03*
X290900000Y-104500000D03*
X292600000Y-104500000D03*
X290900000Y-101000000D03*
X292600000Y-101000000D03*
X299850000Y-93000000D03*
X298150000Y-93000000D03*
D15*
X304000000Y-93230000D03*
X303047500Y-95770000D03*
X304952500Y-95770000D03*
D16*
X301056000Y-99205400D03*
X301056000Y-98570400D03*
X301056000Y-97910000D03*
X301056000Y-97275000D03*
X306644000Y-97275000D03*
X306644000Y-97922700D03*
X306644000Y-98570400D03*
X306644000Y-99218100D03*
D12*
X295550000Y-98900000D03*
X297250000Y-98900000D03*
X297350000Y-96900000D03*
X299050000Y-96900000D03*
X308850000Y-88750000D03*
X307150000Y-88750000D03*
D17*
X303848420Y-82305000D03*
X303848420Y-83575000D03*
X303848420Y-84845000D03*
X303848420Y-86115000D03*
X303848420Y-87385000D03*
X303848420Y-88655000D03*
X303848420Y-89925000D03*
X303848420Y-91195000D03*
X298651580Y-91195000D03*
X298651580Y-89925000D03*
X298651580Y-88655000D03*
X298651580Y-87385000D03*
X298651580Y-86115000D03*
X298651580Y-84845000D03*
X298651580Y-83575000D03*
X298651580Y-82305000D03*
D11*
X311250000Y-82750000D03*
D12*
X308700000Y-83250000D03*
X308700000Y-81550000D03*
X308750000Y-84900000D03*
X307050000Y-84900000D03*
X306650000Y-94000000D03*
X308350000Y-94000000D03*
X306650000Y-95750000D03*
X308350000Y-95750000D03*
X309750000Y-97400000D03*
X309750000Y-99100000D03*
X307150000Y-101000000D03*
X308850000Y-101000000D03*
D18*
X310750000Y-100755400D03*
X310750000Y-103244600D03*
D12*
X304050000Y-101000000D03*
X305750000Y-101000000D03*
D19*
X276350000Y-100300000D03*
X276350000Y-101250000D03*
X276350000Y-102200000D03*
X274150000Y-102200000D03*
X274150000Y-100300000D03*
D12*
X271950000Y-98300000D03*
X273650000Y-98300000D03*
X273650000Y-104000000D03*
X275350000Y-104000000D03*
X274350000Y-94250000D03*
X272650000Y-94250000D03*
X278000000Y-97250000D03*
X278000000Y-95550000D03*
D20*
X272744600Y-112250000D03*
X270255400Y-112250000D03*
X270255400Y-110500000D03*
X272744600Y-110500000D03*
D12*
X259850000Y-97000000D03*
X258150000Y-97000000D03*
D21*
X259000000Y-99050000D03*
D22*
X260000000Y-102300000D03*
X258000000Y-102300000D03*
D12*
X263700000Y-101450000D03*
X263700000Y-99750000D03*
X265350000Y-98000000D03*
X263650000Y-98000000D03*
D17*
X278598420Y-83555000D03*
X278598420Y-84825000D03*
X278598420Y-86095000D03*
X278598420Y-87365000D03*
X278598420Y-88635000D03*
X278598420Y-89905000D03*
X278598420Y-91175000D03*
X278598420Y-92445000D03*
X273401580Y-92445000D03*
X273401580Y-91175000D03*
X273401580Y-89905000D03*
X273401580Y-88635000D03*
X273401580Y-87365000D03*
X273401580Y-86095000D03*
X273401580Y-84825000D03*
X273401580Y-83555000D03*
D12*
X263650000Y-93500000D03*
X265350000Y-93500000D03*
X268500000Y-83350000D03*
X268500000Y-85050000D03*
X264400000Y-86950000D03*
X264400000Y-85250000D03*
X263650000Y-95750000D03*
X265350000Y-95750000D03*
D13*
X253550000Y-84975000D03*
X253550000Y-84325000D03*
X253550000Y-83675000D03*
X253550000Y-83025000D03*
X257950000Y-83025000D03*
X257950000Y-83675000D03*
X257950000Y-84325000D03*
X257950000Y-84975000D03*
D12*
X255150000Y-97000000D03*
X256850000Y-97000000D03*
D23*
X257202440Y-92147700D03*
X257202440Y-91500000D03*
X257202440Y-90852300D03*
X258797560Y-90852300D03*
X258797560Y-91500000D03*
X258797560Y-92147700D03*
D12*
X254600000Y-90750000D03*
X252900000Y-90750000D03*
D16*
X255306000Y-95455400D03*
X255306000Y-94820400D03*
X255306000Y-94160000D03*
X255306000Y-93525000D03*
X260894000Y-93525000D03*
X260894000Y-94172700D03*
X260894000Y-94820400D03*
X260894000Y-95468100D03*
D12*
X252750000Y-95600000D03*
X252750000Y-93900000D03*
X251300000Y-90650000D03*
X251300000Y-92350000D03*
D24*
X253220500Y-87000000D03*
X255379500Y-87000000D03*
D12*
X256500000Y-109600000D03*
X256500000Y-107900000D03*
X254200000Y-99750000D03*
X254200000Y-101450000D03*
X256000000Y-99750000D03*
X256000000Y-101450000D03*
X252300000Y-101450000D03*
X252300000Y-99750000D03*
X252550000Y-108100000D03*
X254250000Y-108100000D03*
X262250000Y-91100000D03*
X262250000Y-89400000D03*
D23*
X257202440Y-89647700D03*
X257202440Y-89000000D03*
X257202440Y-88352300D03*
X258797560Y-88352300D03*
X258797560Y-89000000D03*
X258797560Y-89647700D03*
D12*
X262800000Y-85250000D03*
X262800000Y-86950000D03*
D18*
X260500000Y-91494600D03*
X260500000Y-89005400D03*
D12*
X260200000Y-85250000D03*
X260200000Y-86950000D03*
X241650000Y-94000000D03*
X243350000Y-94000000D03*
X234850000Y-93000000D03*
X233150000Y-93000000D03*
X241650000Y-95750000D03*
X243350000Y-95750000D03*
D15*
X239000000Y-93230000D03*
X238047500Y-95770000D03*
X239952500Y-95770000D03*
D12*
X250500000Y-81450000D03*
X250500000Y-83150000D03*
D11*
X246250000Y-82750000D03*
D12*
X243750000Y-84900000D03*
X242050000Y-84900000D03*
X243700000Y-83250000D03*
X243700000Y-81550000D03*
D17*
X238848420Y-82305000D03*
X238848420Y-83575000D03*
X238848420Y-84845000D03*
X238848420Y-86115000D03*
X238848420Y-87385000D03*
X238848420Y-88655000D03*
X238848420Y-89925000D03*
X238848420Y-91195000D03*
X233651580Y-91195000D03*
X233651580Y-89925000D03*
X233651580Y-88655000D03*
X233651580Y-87385000D03*
X233651580Y-86115000D03*
X233651580Y-84845000D03*
X233651580Y-83575000D03*
X233651580Y-82305000D03*
D12*
X243850000Y-88750000D03*
X242150000Y-88750000D03*
X251000000Y-93900000D03*
X251000000Y-95600000D03*
D18*
X250700000Y-99644600D03*
X250700000Y-97155400D03*
D12*
X244750000Y-97400000D03*
X244750000Y-99100000D03*
D18*
X245750000Y-100755400D03*
X245750000Y-103244600D03*
D12*
X242150000Y-101000000D03*
X243850000Y-101000000D03*
D16*
X236056000Y-99205400D03*
X236056000Y-98570400D03*
X236056000Y-97910000D03*
X236056000Y-97275000D03*
X241644000Y-97275000D03*
X241644000Y-97922700D03*
X241644000Y-98570400D03*
X241644000Y-99218100D03*
X264694000Y-121544600D03*
X264694000Y-122179600D03*
X264694000Y-122840000D03*
X264694000Y-123475000D03*
X259106000Y-123475000D03*
X259106000Y-122827300D03*
X259106000Y-122179600D03*
X259106000Y-121531900D03*
D12*
X261150000Y-125500000D03*
X262850000Y-125500000D03*
X261250000Y-119850000D03*
X261250000Y-118150000D03*
D25*
X256000000Y-123579500D03*
X256000000Y-121420500D03*
D12*
X232500000Y-128550000D03*
X232500000Y-130250000D03*
X237000000Y-121350000D03*
X237000000Y-119650000D03*
X233900000Y-119600900D03*
X233900000Y-121300900D03*
X239650000Y-131000000D03*
X241350000Y-131000000D03*
D20*
X232705400Y-117750000D03*
X235194600Y-117750000D03*
D26*
X232480000Y-110250000D03*
X235020000Y-111202500D03*
X235020000Y-109297500D03*
D12*
X235200000Y-114850000D03*
X233500000Y-114850000D03*
X235200000Y-113000000D03*
X233500000Y-113000000D03*
X236900000Y-108550000D03*
X236900000Y-106850000D03*
X239050000Y-101000000D03*
X240750000Y-101000000D03*
X235750000Y-101000000D03*
X237450000Y-101000000D03*
X240550000Y-108400000D03*
X238850000Y-108400000D03*
X225900000Y-102750000D03*
X227600000Y-102750000D03*
X225900000Y-101000000D03*
X227600000Y-101000000D03*
X225900000Y-104500000D03*
X227600000Y-104500000D03*
X230550000Y-98900000D03*
X232250000Y-98900000D03*
X230850000Y-101000000D03*
X229150000Y-101000000D03*
X232350000Y-101000000D03*
X234050000Y-101000000D03*
X232350000Y-96900000D03*
X234050000Y-96900000D03*
D16*
X199694000Y-121544600D03*
X199694000Y-122179600D03*
X199694000Y-122840000D03*
X199694000Y-123475000D03*
X194106000Y-123475000D03*
X194106000Y-122827300D03*
X194106000Y-122179600D03*
X194106000Y-121531900D03*
D25*
X191000000Y-123579500D03*
X191000000Y-121420500D03*
D12*
X196150000Y-125500000D03*
X197850000Y-125500000D03*
X187550000Y-108100000D03*
X189250000Y-108100000D03*
X191500000Y-109600000D03*
X191500000Y-107900000D03*
D20*
X205255400Y-110500000D03*
X207744600Y-110500000D03*
D12*
X208250000Y-126600000D03*
X208250000Y-124900000D03*
X206850000Y-118700000D03*
X208550000Y-118700000D03*
D20*
X207744600Y-112250000D03*
X205255400Y-112250000D03*
D12*
X208300000Y-123550000D03*
X208300000Y-121850000D03*
X196250000Y-119850000D03*
X196250000Y-118150000D03*
X202000000Y-118650000D03*
X202000000Y-120350000D03*
X202000000Y-121650000D03*
X202000000Y-123350000D03*
D15*
X205500000Y-121730000D03*
X204547500Y-124270000D03*
X206452500Y-124270000D03*
D14*
X218050000Y-88275000D03*
X218050000Y-87625000D03*
X218050000Y-86975000D03*
X218050000Y-86325000D03*
X218050000Y-85675000D03*
X218050000Y-85025000D03*
X218050000Y-84375000D03*
X218050000Y-83725000D03*
X223950000Y-83725000D03*
X223950000Y-84375000D03*
X223950000Y-85025000D03*
X223950000Y-85675000D03*
X223950000Y-86325000D03*
X223950000Y-86975000D03*
X223950000Y-87625000D03*
X223950000Y-88275000D03*
D12*
X220650000Y-90000000D03*
X222350000Y-90000000D03*
D14*
X218050000Y-96275000D03*
X218050000Y-95625000D03*
X218050000Y-94975000D03*
X218050000Y-94325000D03*
X218050000Y-93675000D03*
X218050000Y-93025000D03*
X218050000Y-92375000D03*
X218050000Y-91725000D03*
X223950000Y-91725000D03*
X223950000Y-92375000D03*
X223950000Y-93025000D03*
X223950000Y-93675000D03*
X223950000Y-94325000D03*
X223950000Y-94975000D03*
X223950000Y-95625000D03*
X223950000Y-96275000D03*
D12*
X224000000Y-106100000D03*
X224000000Y-104400000D03*
D13*
X223950000Y-98550000D03*
X223950000Y-99200000D03*
X223950000Y-99850000D03*
X223950000Y-100500000D03*
X223950000Y-101150000D03*
X223950000Y-101800000D03*
X223950000Y-102450000D03*
X218050000Y-102450000D03*
X218050000Y-101800000D03*
X218050000Y-101150000D03*
X218050000Y-100500000D03*
X218050000Y-99850000D03*
X218050000Y-99200000D03*
X218050000Y-98550000D03*
D12*
X222250000Y-106100000D03*
X222250000Y-104400000D03*
X208650000Y-104000000D03*
X210350000Y-104000000D03*
D18*
X222200000Y-107355400D03*
X222200000Y-109844600D03*
D12*
X220500000Y-104400000D03*
X220500000Y-106100000D03*
X218750000Y-104400000D03*
X218750000Y-106100000D03*
X215250000Y-104400000D03*
X215250000Y-106100000D03*
X217000000Y-104400000D03*
X217000000Y-106100000D03*
D21*
X223000000Y-121450000D03*
D22*
X224000000Y-124700000D03*
X222000000Y-124700000D03*
D12*
X223500000Y-118100000D03*
X223500000Y-116400000D03*
X218450000Y-121900000D03*
X220150000Y-121900000D03*
X221750000Y-116400000D03*
X221750000Y-118100000D03*
X216700000Y-123600000D03*
X216700000Y-121900000D03*
X216600000Y-131500000D03*
X214900000Y-131500000D03*
X213250000Y-126650000D03*
X213250000Y-128350000D03*
D20*
X214505400Y-130000000D03*
X216994600Y-130000000D03*
D15*
X215750000Y-125980000D03*
X214797500Y-128520000D03*
X216702500Y-128520000D03*
D12*
X219250000Y-131150000D03*
X219250000Y-132850000D03*
X213250000Y-125350000D03*
X213250000Y-123650000D03*
X213700000Y-113500000D03*
X215400000Y-113500000D03*
X213700000Y-115250000D03*
X215400000Y-115250000D03*
X216950000Y-115250000D03*
X218650000Y-115250000D03*
D16*
X213356000Y-118705400D03*
X213356000Y-118070400D03*
X213356000Y-117410000D03*
X213356000Y-116775000D03*
X218944000Y-116775000D03*
X218944000Y-117422700D03*
X218944000Y-118070400D03*
X218944000Y-118718100D03*
D12*
X215000000Y-123600000D03*
X215000000Y-121900000D03*
D19*
X211350000Y-100300000D03*
X211350000Y-101250000D03*
X211350000Y-102200000D03*
X209150000Y-102200000D03*
X209150000Y-100300000D03*
D12*
X213000000Y-97250000D03*
X213000000Y-95550000D03*
X209350000Y-94250000D03*
X207650000Y-94250000D03*
X206950000Y-98300000D03*
X208650000Y-98300000D03*
D17*
X213598420Y-83555000D03*
X213598420Y-84825000D03*
X213598420Y-86095000D03*
X213598420Y-87365000D03*
X213598420Y-88635000D03*
X213598420Y-89905000D03*
X213598420Y-91175000D03*
X213598420Y-92445000D03*
X208401580Y-92445000D03*
X208401580Y-91175000D03*
X208401580Y-89905000D03*
X208401580Y-88635000D03*
X208401580Y-87365000D03*
X208401580Y-86095000D03*
X208401580Y-84825000D03*
X208401580Y-83555000D03*
D12*
X198650000Y-93500000D03*
X200350000Y-93500000D03*
X198700000Y-101450000D03*
X198700000Y-99750000D03*
X198650000Y-95750000D03*
X200350000Y-95750000D03*
X200350000Y-98000000D03*
X198650000Y-98000000D03*
X197250000Y-91100000D03*
X197250000Y-89400000D03*
X199400000Y-86950000D03*
X199400000Y-85250000D03*
X197800000Y-85250000D03*
X197800000Y-86950000D03*
X203500000Y-83350000D03*
X203500000Y-85050000D03*
D23*
X192202440Y-89647700D03*
X192202440Y-89000000D03*
X192202440Y-88352300D03*
X193797560Y-88352300D03*
X193797560Y-89000000D03*
X193797560Y-89647700D03*
D18*
X195500000Y-91494600D03*
X195500000Y-89005400D03*
D12*
X190150000Y-97000000D03*
X191850000Y-97000000D03*
D16*
X190306000Y-95455400D03*
X190306000Y-94820400D03*
X190306000Y-94160000D03*
X190306000Y-93525000D03*
X195894000Y-93525000D03*
X195894000Y-94172700D03*
X195894000Y-94820400D03*
X195894000Y-95468100D03*
D23*
X192202440Y-92147700D03*
X192202440Y-91500000D03*
X192202440Y-90852300D03*
X193797560Y-90852300D03*
X193797560Y-91500000D03*
X193797560Y-92147700D03*
D12*
X194850000Y-97000000D03*
X193150000Y-97000000D03*
X186000000Y-93900000D03*
X186000000Y-95600000D03*
X186300000Y-90650000D03*
X186300000Y-92350000D03*
X187750000Y-95600000D03*
X187750000Y-93900000D03*
X189600000Y-90750000D03*
X187900000Y-90750000D03*
D21*
X194000000Y-99050000D03*
D22*
X195000000Y-102300000D03*
X193000000Y-102300000D03*
D18*
X185700000Y-99644600D03*
X185700000Y-97155400D03*
D12*
X187300000Y-101450000D03*
X187300000Y-99750000D03*
X191000000Y-99750000D03*
X191000000Y-101450000D03*
X189200000Y-99750000D03*
X189200000Y-101450000D03*
D13*
X188550000Y-84975000D03*
X188550000Y-84325000D03*
X188550000Y-83675000D03*
X188550000Y-83025000D03*
X192950000Y-83025000D03*
X192950000Y-83675000D03*
X192950000Y-84325000D03*
X192950000Y-84975000D03*
D12*
X185500000Y-81450000D03*
X185500000Y-83150000D03*
X195200000Y-85250000D03*
X195200000Y-86950000D03*
D24*
X188220500Y-87000000D03*
X190379500Y-87000000D03*
D15*
X270500000Y-121730000D03*
X269547500Y-124270000D03*
X271452500Y-124270000D03*
D12*
X273250000Y-126600000D03*
X273250000Y-124900000D03*
X267000000Y-121650000D03*
X267000000Y-123350000D03*
X273300000Y-123550000D03*
X273300000Y-121850000D03*
X267000000Y-118650000D03*
X267000000Y-120350000D03*
X271850000Y-118700000D03*
X273550000Y-118700000D03*
X295850000Y-101000000D03*
X294150000Y-101000000D03*
X297350000Y-101000000D03*
X299050000Y-101000000D03*
X300750000Y-101000000D03*
X302450000Y-101000000D03*
X305550000Y-108400000D03*
X303850000Y-108400000D03*
D26*
X297480000Y-110250000D03*
X300020000Y-111202500D03*
X300020000Y-109297500D03*
D12*
X300200000Y-113000000D03*
X298500000Y-113000000D03*
X301900000Y-108550000D03*
X301900000Y-106850000D03*
D15*
X280750000Y-125980000D03*
X279797500Y-128520000D03*
X281702500Y-128520000D03*
D12*
X278250000Y-126650000D03*
X278250000Y-128350000D03*
X281700000Y-123600000D03*
X281700000Y-121900000D03*
X280000000Y-123600000D03*
X280000000Y-121900000D03*
X278250000Y-125350000D03*
X278250000Y-123650000D03*
X283450000Y-121900000D03*
X285150000Y-121900000D03*
D16*
X278356000Y-118705400D03*
X278356000Y-118070400D03*
X278356000Y-117410000D03*
X278356000Y-116775000D03*
X283944000Y-116775000D03*
X283944000Y-117422700D03*
X283944000Y-118070400D03*
X283944000Y-118718100D03*
D21*
X288000000Y-121450000D03*
D22*
X289000000Y-124700000D03*
X287000000Y-124700000D03*
D20*
X297705400Y-117750000D03*
X300194600Y-117750000D03*
D12*
X298900000Y-119600900D03*
X298900000Y-121300900D03*
X288500000Y-118100000D03*
X288500000Y-116400000D03*
X300200000Y-114850000D03*
X298500000Y-114850000D03*
X286750000Y-116400000D03*
X286750000Y-118100000D03*
X302000000Y-121350000D03*
X302000000Y-119650000D03*
X282000000Y-104400000D03*
X282000000Y-106100000D03*
X281950000Y-115250000D03*
X283650000Y-115250000D03*
X280250000Y-104400000D03*
X280250000Y-106100000D03*
X278700000Y-113500000D03*
X280400000Y-113500000D03*
X278700000Y-115250000D03*
X280400000Y-115250000D03*
D18*
X287200000Y-107355400D03*
X287200000Y-109844600D03*
D12*
X283750000Y-104400000D03*
X283750000Y-106100000D03*
X287250000Y-106100000D03*
X287250000Y-104400000D03*
X285500000Y-104400000D03*
X285500000Y-106100000D03*
X289000000Y-106100000D03*
X289000000Y-104400000D03*
X288250000Y-168100000D03*
X288250000Y-166400000D03*
X288300000Y-169450000D03*
X288300000Y-171150000D03*
X289750000Y-166400000D03*
X289750000Y-168100000D03*
D15*
X292500000Y-161270000D03*
X293452500Y-158730000D03*
X291547500Y-158730000D03*
D12*
X285400000Y-163750000D03*
X287100000Y-163750000D03*
D15*
X286000000Y-157480000D03*
X285047500Y-160020000D03*
X286952500Y-160020000D03*
D12*
X286400000Y-161750000D03*
X288100000Y-161750000D03*
X290100000Y-157250000D03*
X288400000Y-157250000D03*
D24*
X297920500Y-159250000D03*
X300079500Y-159250000D03*
D12*
X293250000Y-154900000D03*
X293250000Y-156600000D03*
X295250000Y-163600000D03*
X295250000Y-161900000D03*
X293300000Y-163750000D03*
X293300000Y-165450000D03*
D26*
X300870000Y-164500000D03*
X298330000Y-163547500D03*
X298330000Y-165452500D03*
D27*
X310300000Y-168000000D03*
X308300000Y-168000000D03*
D28*
X307550360Y-171000000D03*
X311949640Y-171000000D03*
D29*
X296250000Y-179450000D03*
X296250000Y-175050000D03*
D12*
X302750000Y-179100000D03*
X302750000Y-177400000D03*
D30*
X296550000Y-152750000D03*
D22*
X299800000Y-151750000D03*
X299800000Y-153750000D03*
D18*
X295700000Y-150544600D03*
X295700000Y-148055400D03*
D12*
X298300000Y-145650000D03*
X298300000Y-147350000D03*
X295250000Y-146850000D03*
X295250000Y-145150000D03*
X226000000Y-151850000D03*
X226000000Y-150150000D03*
D17*
X218401580Y-155695000D03*
X218401580Y-154425000D03*
X218401580Y-153155000D03*
X218401580Y-151885000D03*
X218401580Y-150615000D03*
X218401580Y-149345000D03*
X218401580Y-148075000D03*
X218401580Y-146805000D03*
X223598420Y-146805000D03*
X223598420Y-148075000D03*
X223598420Y-149345000D03*
X223598420Y-150615000D03*
X223598420Y-151885000D03*
X223598420Y-153155000D03*
X223598420Y-154425000D03*
X223598420Y-155695000D03*
D12*
X228250000Y-154900000D03*
X228250000Y-156600000D03*
X227750000Y-151850000D03*
X227750000Y-150150000D03*
X219250000Y-135850000D03*
X219250000Y-134150000D03*
X220550000Y-137900000D03*
X218850000Y-137900000D03*
D16*
X218306000Y-144205400D03*
X218306000Y-143570400D03*
X218306000Y-142910000D03*
X218306000Y-142275000D03*
X223894000Y-142275000D03*
X223894000Y-142922700D03*
X223894000Y-143570400D03*
X223894000Y-144218100D03*
D12*
X219650000Y-140700000D03*
X217950000Y-140700000D03*
X225750000Y-144300000D03*
X227450000Y-144300000D03*
X230250000Y-146850000D03*
X230250000Y-145150000D03*
X227750000Y-148350000D03*
X227750000Y-146650000D03*
X225750000Y-140900000D03*
X227450000Y-140900000D03*
D28*
X245500000Y-148949640D03*
X245500000Y-144550360D03*
D29*
X245500000Y-141200000D03*
X245500000Y-136800000D03*
D12*
X238700000Y-145650000D03*
X238700000Y-147350000D03*
D18*
X230700000Y-150544600D03*
X230700000Y-148055400D03*
D30*
X231550000Y-152750000D03*
D22*
X234800000Y-151750000D03*
X234800000Y-153750000D03*
D15*
X235900000Y-148270000D03*
X236852500Y-145730000D03*
X234947500Y-145730000D03*
D12*
X233300000Y-145650000D03*
X233300000Y-147350000D03*
D28*
X242550360Y-171000000D03*
X246949640Y-171000000D03*
D27*
X245500000Y-151900000D03*
X243500000Y-151900000D03*
X245300000Y-168000000D03*
X243300000Y-168000000D03*
D24*
X232920500Y-159250000D03*
X235079500Y-159250000D03*
D12*
X230250000Y-163600000D03*
X230250000Y-161900000D03*
D26*
X235870000Y-164500000D03*
X233330000Y-163547500D03*
X233330000Y-165452500D03*
D12*
X228300000Y-163750000D03*
X228300000Y-165450000D03*
D16*
X213681000Y-168330400D03*
X213681000Y-167695400D03*
X213681000Y-167035000D03*
X213681000Y-166400000D03*
X219269000Y-166400000D03*
X219269000Y-167047700D03*
X219269000Y-167695400D03*
X219269000Y-168343100D03*
D12*
X217000000Y-169900000D03*
X217000000Y-171600000D03*
X215000000Y-171600000D03*
X215000000Y-169900000D03*
X223250000Y-168100000D03*
X223250000Y-166400000D03*
X221500000Y-166400000D03*
X221500000Y-168100000D03*
X221500000Y-169450000D03*
X221500000Y-171150000D03*
X223300000Y-169450000D03*
X223300000Y-171150000D03*
D29*
X231250000Y-179450000D03*
X231250000Y-175050000D03*
D12*
X224750000Y-166400000D03*
X224750000Y-168100000D03*
X237750000Y-179100000D03*
X237750000Y-177400000D03*
X221400000Y-161750000D03*
X223100000Y-161750000D03*
D15*
X221000000Y-157480000D03*
X220047500Y-160020000D03*
X221952500Y-160020000D03*
D12*
X220400000Y-163750000D03*
X222100000Y-163750000D03*
X225100000Y-157250000D03*
X223400000Y-157250000D03*
D15*
X227500000Y-161270000D03*
X228452500Y-158730000D03*
X226547500Y-158730000D03*
D12*
X219850000Y-161750000D03*
X218150000Y-161750000D03*
X189750000Y-167100000D03*
X189750000Y-165400000D03*
X187750000Y-165400000D03*
X187750000Y-167100000D03*
D24*
X193670500Y-177250000D03*
X195829500Y-177250000D03*
D15*
X192500000Y-168020000D03*
X193452500Y-165480000D03*
X191547500Y-165480000D03*
D12*
X196400000Y-173750000D03*
X198100000Y-173750000D03*
D30*
X203050000Y-174600000D03*
D22*
X199800000Y-175600000D03*
X199800000Y-173600000D03*
D26*
X195230000Y-167750000D03*
X197770000Y-168702500D03*
X197770000Y-166797500D03*
D12*
X199500000Y-171600000D03*
X199500000Y-169900000D03*
X199500000Y-168550000D03*
X199500000Y-166850000D03*
X201250000Y-171600000D03*
X201250000Y-169900000D03*
X193600000Y-180250000D03*
X191900000Y-180250000D03*
X189200000Y-183750000D03*
X189200000Y-182050000D03*
D11*
X186000000Y-184750000D03*
D12*
X201500000Y-181600000D03*
X201500000Y-179900000D03*
D16*
X192056000Y-183955400D03*
X192056000Y-183320400D03*
X192056000Y-182660000D03*
X192056000Y-182025000D03*
X197644000Y-182025000D03*
X197644000Y-182672700D03*
X197644000Y-183320400D03*
X197644000Y-183968100D03*
D12*
X199950000Y-183700000D03*
X201650000Y-183700000D03*
X197600000Y-180250000D03*
X195900000Y-180250000D03*
X207100000Y-160750000D03*
X205400000Y-160750000D03*
X203500000Y-165350000D03*
X203500000Y-163650000D03*
X211900000Y-163250000D03*
X213600000Y-163250000D03*
X201750000Y-165350000D03*
X201750000Y-163650000D03*
X211750000Y-166850000D03*
X211750000Y-165150000D03*
X207350000Y-167100000D03*
X209050000Y-167100000D03*
D26*
X210270000Y-163750000D03*
X207730000Y-162797500D03*
X207730000Y-164702500D03*
D24*
X202579500Y-158500000D03*
X200420500Y-158500000D03*
D12*
X195150000Y-158750000D03*
X196850000Y-158750000D03*
X200900000Y-156500000D03*
X202600000Y-156500000D03*
X202600000Y-160500000D03*
X200900000Y-160500000D03*
D20*
X215505400Y-165000000D03*
X217994600Y-165000000D03*
X217944600Y-163400000D03*
X215455400Y-163400000D03*
D12*
X217600000Y-159500000D03*
X215900000Y-159500000D03*
X210100000Y-160750000D03*
X208400000Y-160750000D03*
X210100000Y-158000000D03*
X208400000Y-158000000D03*
X211800000Y-158050000D03*
X213500000Y-158050000D03*
X211900000Y-160750000D03*
X213600000Y-160750000D03*
X215900000Y-157250000D03*
X217600000Y-157250000D03*
X260750000Y-149900000D03*
X262450000Y-149900000D03*
D30*
X268950000Y-145000000D03*
D22*
X265700000Y-146000000D03*
X265700000Y-144000000D03*
D12*
X267450000Y-147900000D03*
X265750000Y-147900000D03*
D15*
X261500000Y-145530000D03*
X260547500Y-148070000D03*
X262452500Y-148070000D03*
D12*
X265900000Y-156500000D03*
X267600000Y-156500000D03*
D26*
X271770000Y-155500000D03*
X269230000Y-154547500D03*
X269230000Y-156452500D03*
D24*
X267579500Y-158500000D03*
X265420500Y-158500000D03*
D12*
X260150000Y-158750000D03*
X261850000Y-158750000D03*
X267600000Y-160500000D03*
X265900000Y-160500000D03*
X253850000Y-156250000D03*
X252150000Y-156250000D03*
X254750000Y-167100000D03*
X254750000Y-165400000D03*
X252750000Y-165400000D03*
X252750000Y-167100000D03*
D24*
X255920500Y-156250000D03*
X258079500Y-156250000D03*
D15*
X257500000Y-168020000D03*
X258452500Y-165480000D03*
X256547500Y-165480000D03*
D23*
X276297560Y-145852300D03*
X276297560Y-146500000D03*
X276297560Y-147147700D03*
X274702440Y-147147700D03*
X274702440Y-146500000D03*
X274702440Y-145852300D03*
D12*
X276500000Y-142400000D03*
X276500000Y-144100000D03*
X272400000Y-145650000D03*
X272400000Y-147350000D03*
X268950000Y-142000000D03*
X270650000Y-142000000D03*
X274750000Y-144100000D03*
X274750000Y-142400000D03*
D26*
X275270000Y-163750000D03*
X272730000Y-162797500D03*
X272730000Y-164702500D03*
D12*
X272350000Y-167100000D03*
X274050000Y-167100000D03*
X272100000Y-160750000D03*
X270400000Y-160750000D03*
X275100000Y-160750000D03*
X273400000Y-160750000D03*
X275100000Y-158000000D03*
X273400000Y-158000000D03*
D11*
X251000000Y-184750000D03*
D12*
X254200000Y-183750000D03*
X254200000Y-182050000D03*
X258600000Y-180250000D03*
X256900000Y-180250000D03*
D24*
X258670500Y-177250000D03*
X260829500Y-177250000D03*
D16*
X257056000Y-183955400D03*
X257056000Y-183320400D03*
X257056000Y-182660000D03*
X257056000Y-182025000D03*
X262644000Y-182025000D03*
X262644000Y-182672700D03*
X262644000Y-183320400D03*
X262644000Y-183968100D03*
D12*
X276750000Y-166850000D03*
X276750000Y-165150000D03*
X280000000Y-171600000D03*
X280000000Y-169900000D03*
D16*
X278681000Y-168330400D03*
X278681000Y-167695400D03*
X278681000Y-167035000D03*
X278681000Y-166400000D03*
X284269000Y-166400000D03*
X284269000Y-167047700D03*
X284269000Y-167695400D03*
X284269000Y-168343100D03*
D12*
X286500000Y-169450000D03*
X286500000Y-171150000D03*
X286500000Y-166400000D03*
X286500000Y-168100000D03*
X282000000Y-169900000D03*
X282000000Y-171600000D03*
D20*
X280505400Y-165000000D03*
X282994600Y-165000000D03*
D26*
X260230000Y-167750000D03*
X262770000Y-168702500D03*
X262770000Y-166797500D03*
D12*
X266250000Y-171600000D03*
X266250000Y-169900000D03*
X264500000Y-168550000D03*
X264500000Y-166850000D03*
X264500000Y-171600000D03*
X264500000Y-169900000D03*
X266750000Y-165350000D03*
X266750000Y-163650000D03*
X268500000Y-165350000D03*
X268500000Y-163650000D03*
X261400000Y-173750000D03*
X263100000Y-173750000D03*
X264950000Y-183700000D03*
X266650000Y-183700000D03*
X262600000Y-180250000D03*
X260900000Y-180250000D03*
D30*
X268050000Y-174600000D03*
D22*
X264800000Y-175600000D03*
X264800000Y-173600000D03*
D12*
X266500000Y-181600000D03*
X266500000Y-179900000D03*
D20*
X282944600Y-163400000D03*
X280455400Y-163400000D03*
D12*
X276900000Y-163250000D03*
X278600000Y-163250000D03*
X284850000Y-161750000D03*
X283150000Y-161750000D03*
X280900000Y-157250000D03*
X282600000Y-157250000D03*
X276900000Y-160750000D03*
X278600000Y-160750000D03*
X276800000Y-158050000D03*
X278500000Y-158050000D03*
X282600000Y-159500000D03*
X280900000Y-159500000D03*
X216000000Y-151850000D03*
X216000000Y-150150000D03*
X214500000Y-148350000D03*
X214500000Y-146650000D03*
X214500000Y-151850000D03*
X214500000Y-150150000D03*
X209750000Y-144100000D03*
X209750000Y-142400000D03*
X211500000Y-142400000D03*
X211500000Y-144100000D03*
X216600000Y-142500000D03*
X214900000Y-142500000D03*
D23*
X211297560Y-145852300D03*
X211297560Y-146500000D03*
X211297560Y-147147700D03*
X209702440Y-147147700D03*
X209702440Y-146500000D03*
X209702440Y-145852300D03*
D26*
X206770000Y-155500000D03*
X204230000Y-154547500D03*
X204230000Y-156452500D03*
D12*
X202450000Y-147900000D03*
X200750000Y-147900000D03*
D30*
X203950000Y-145000000D03*
D22*
X200700000Y-146000000D03*
X200700000Y-144000000D03*
D12*
X203950000Y-142000000D03*
X205650000Y-142000000D03*
X207400000Y-145650000D03*
X207400000Y-147350000D03*
X213250000Y-133650000D03*
X213250000Y-135350000D03*
D31*
X215102300Y-133702440D03*
X215750000Y-133702440D03*
X216397700Y-133702440D03*
X216397700Y-135297560D03*
X215750000Y-135297560D03*
X215102300Y-135297560D03*
D12*
X213350000Y-140750000D03*
X211650000Y-140750000D03*
X214900000Y-137750000D03*
X216600000Y-137750000D03*
X211650000Y-137250000D03*
X213350000Y-137250000D03*
X214900000Y-140750000D03*
X216600000Y-140750000D03*
X188850000Y-156250000D03*
X187150000Y-156250000D03*
D15*
X196500000Y-145530000D03*
X195547500Y-148070000D03*
X197452500Y-148070000D03*
D24*
X190920500Y-156250000D03*
X193079500Y-156250000D03*
D12*
X195750000Y-149900000D03*
X197450000Y-149900000D03*
D31*
X280102300Y-133702440D03*
X280750000Y-133702440D03*
X281397700Y-133702440D03*
X281397700Y-135297560D03*
X280750000Y-135297560D03*
X280102300Y-135297560D03*
D12*
X278250000Y-133650000D03*
X278250000Y-135350000D03*
X284250000Y-131150000D03*
X284250000Y-132850000D03*
X281600000Y-131500000D03*
X279900000Y-131500000D03*
D20*
X279505400Y-130000000D03*
X281994600Y-130000000D03*
D12*
X279900000Y-137750000D03*
X281600000Y-137750000D03*
X279900000Y-140750000D03*
X281600000Y-140750000D03*
X284250000Y-135850000D03*
X284250000Y-134150000D03*
X276650000Y-137250000D03*
X278350000Y-137250000D03*
X284650000Y-140700000D03*
X282950000Y-140700000D03*
X278350000Y-140750000D03*
X276650000Y-140750000D03*
X279500000Y-148350000D03*
X279500000Y-146650000D03*
X279500000Y-151850000D03*
X279500000Y-150150000D03*
X281000000Y-151850000D03*
X281000000Y-150150000D03*
X292750000Y-148350000D03*
X292750000Y-146650000D03*
X291000000Y-151850000D03*
X291000000Y-150150000D03*
X292750000Y-151850000D03*
X292750000Y-150150000D03*
D17*
X283401580Y-155695000D03*
X283401580Y-154425000D03*
X283401580Y-153155000D03*
X283401580Y-151885000D03*
X283401580Y-150615000D03*
X283401580Y-149345000D03*
X283401580Y-148075000D03*
X283401580Y-146805000D03*
X288598420Y-146805000D03*
X288598420Y-148075000D03*
X288598420Y-149345000D03*
X288598420Y-150615000D03*
X288598420Y-151885000D03*
X288598420Y-153155000D03*
X288598420Y-154425000D03*
X288598420Y-155695000D03*
D27*
X310500000Y-151900000D03*
X308500000Y-151900000D03*
D28*
X310500000Y-148949640D03*
X310500000Y-144550360D03*
D12*
X304650000Y-131000000D03*
X306350000Y-131000000D03*
X303700000Y-145650000D03*
X303700000Y-147350000D03*
D15*
X300900000Y-148270000D03*
X301852500Y-145730000D03*
X299947500Y-145730000D03*
D12*
X297500000Y-128550000D03*
X297500000Y-130250000D03*
D29*
X310500000Y-141200000D03*
X310500000Y-136800000D03*
D12*
X285550000Y-137900000D03*
X283850000Y-137900000D03*
X281600000Y-142500000D03*
X279900000Y-142500000D03*
X290750000Y-140900000D03*
X292450000Y-140900000D03*
X290750000Y-144300000D03*
X292450000Y-144300000D03*
D16*
X283306000Y-144205400D03*
X283306000Y-143570400D03*
X283306000Y-142910000D03*
X283306000Y-142275000D03*
X288894000Y-142275000D03*
X288894000Y-142922700D03*
X288894000Y-143570400D03*
X288894000Y-144218100D03*
D12*
X143300000Y-123550000D03*
X143300000Y-121850000D03*
X143250000Y-126600000D03*
X143250000Y-124900000D03*
X148250000Y-126650000D03*
X148250000Y-128350000D03*
X148250000Y-125350000D03*
X148250000Y-123650000D03*
X141850000Y-118700000D03*
X143550000Y-118700000D03*
D21*
X158000000Y-121450000D03*
D22*
X159000000Y-124700000D03*
X157000000Y-124700000D03*
D12*
X151600000Y-131500000D03*
X149900000Y-131500000D03*
X151700000Y-123600000D03*
X151700000Y-121900000D03*
D20*
X149505400Y-130000000D03*
X151994600Y-130000000D03*
D12*
X150000000Y-123600000D03*
X150000000Y-121900000D03*
D15*
X150750000Y-125980000D03*
X149797500Y-128520000D03*
X151702500Y-128520000D03*
D12*
X154250000Y-131150000D03*
X154250000Y-132850000D03*
X153450000Y-121900000D03*
X155150000Y-121900000D03*
X174650000Y-131000000D03*
X176350000Y-131000000D03*
D20*
X167705400Y-117750000D03*
X170194600Y-117750000D03*
D12*
X167500000Y-128550000D03*
X167500000Y-130250000D03*
X168900000Y-119600900D03*
X168900000Y-121300900D03*
X172000000Y-121350000D03*
X172000000Y-119650000D03*
D20*
X142744600Y-112250000D03*
X140255400Y-112250000D03*
D16*
X148356000Y-118705400D03*
X148356000Y-118070400D03*
X148356000Y-117410000D03*
X148356000Y-116775000D03*
X153944000Y-116775000D03*
X153944000Y-117422700D03*
X153944000Y-118070400D03*
X153944000Y-118718100D03*
D12*
X158500000Y-118100000D03*
X158500000Y-116400000D03*
X151950000Y-115250000D03*
X153650000Y-115250000D03*
X156750000Y-116400000D03*
X156750000Y-118100000D03*
X148700000Y-113500000D03*
X150400000Y-113500000D03*
D20*
X140255400Y-110500000D03*
X142744600Y-110500000D03*
D12*
X148700000Y-115250000D03*
X150400000Y-115250000D03*
X170200000Y-113000000D03*
X168500000Y-113000000D03*
D26*
X167480000Y-110250000D03*
X170020000Y-111202500D03*
X170020000Y-109297500D03*
D12*
X175550000Y-108400000D03*
X173850000Y-108400000D03*
X170200000Y-114850000D03*
X168500000Y-114850000D03*
D19*
X146350000Y-100300000D03*
X146350000Y-101250000D03*
X146350000Y-102200000D03*
X144150000Y-102200000D03*
X144150000Y-100300000D03*
D12*
X143650000Y-104000000D03*
X145350000Y-104000000D03*
X150250000Y-104400000D03*
X150250000Y-106100000D03*
X148000000Y-97250000D03*
X148000000Y-95550000D03*
X141950000Y-98300000D03*
X143650000Y-98300000D03*
X144350000Y-94250000D03*
X142650000Y-94250000D03*
X133650000Y-93500000D03*
X135350000Y-93500000D03*
D17*
X148598420Y-83555000D03*
X148598420Y-84825000D03*
X148598420Y-86095000D03*
X148598420Y-87365000D03*
X148598420Y-88635000D03*
X148598420Y-89905000D03*
X148598420Y-91175000D03*
X148598420Y-92445000D03*
X143401580Y-92445000D03*
X143401580Y-91175000D03*
X143401580Y-89905000D03*
X143401580Y-88635000D03*
X143401580Y-87365000D03*
X143401580Y-86095000D03*
X143401580Y-84825000D03*
X143401580Y-83555000D03*
D12*
X132800000Y-85250000D03*
X132800000Y-86950000D03*
X132250000Y-91100000D03*
X132250000Y-89400000D03*
X134400000Y-86950000D03*
X134400000Y-85250000D03*
X138500000Y-83350000D03*
X138500000Y-85050000D03*
D21*
X129000000Y-99050000D03*
D22*
X130000000Y-102300000D03*
X128000000Y-102300000D03*
D12*
X126500000Y-109600000D03*
X126500000Y-107900000D03*
X129850000Y-97000000D03*
X128150000Y-97000000D03*
X125150000Y-97000000D03*
X126850000Y-97000000D03*
X122550000Y-108100000D03*
X124250000Y-108100000D03*
D18*
X130500000Y-91494600D03*
X130500000Y-89005400D03*
D23*
X127202440Y-92147700D03*
X127202440Y-91500000D03*
X127202440Y-90852300D03*
X128797560Y-90852300D03*
X128797560Y-91500000D03*
X128797560Y-92147700D03*
D12*
X130200000Y-85250000D03*
X130200000Y-86950000D03*
D23*
X127202440Y-89647700D03*
X127202440Y-89000000D03*
X127202440Y-88352300D03*
X128797560Y-88352300D03*
X128797560Y-89000000D03*
X128797560Y-89647700D03*
D12*
X135350000Y-98000000D03*
X133650000Y-98000000D03*
X133650000Y-95750000D03*
X135350000Y-95750000D03*
X133700000Y-101450000D03*
X133700000Y-99750000D03*
D16*
X125306000Y-95455400D03*
X125306000Y-94820400D03*
X125306000Y-94160000D03*
X125306000Y-93525000D03*
X130894000Y-93525000D03*
X130894000Y-94172700D03*
X130894000Y-94820400D03*
X130894000Y-95468100D03*
D12*
X121000000Y-93900000D03*
X121000000Y-95600000D03*
X124200000Y-99750000D03*
X124200000Y-101450000D03*
D18*
X120700000Y-99644600D03*
X120700000Y-97155400D03*
D12*
X122300000Y-101450000D03*
X122300000Y-99750000D03*
X126000000Y-99750000D03*
X126000000Y-101450000D03*
X122750000Y-95600000D03*
X122750000Y-93900000D03*
D24*
X123220500Y-87000000D03*
X125379500Y-87000000D03*
D12*
X124600000Y-90750000D03*
X122900000Y-90750000D03*
X121300000Y-90650000D03*
X121300000Y-92350000D03*
X120500000Y-81450000D03*
X120500000Y-83150000D03*
D13*
X123550000Y-84975000D03*
X123550000Y-84325000D03*
X123550000Y-83675000D03*
X123550000Y-83025000D03*
X127950000Y-83025000D03*
X127950000Y-83675000D03*
X127950000Y-84325000D03*
X127950000Y-84975000D03*
D12*
X145100000Y-160750000D03*
X143400000Y-160750000D03*
X150900000Y-157250000D03*
X152600000Y-157250000D03*
X145100000Y-158000000D03*
X143400000Y-158000000D03*
X146900000Y-163250000D03*
X148600000Y-163250000D03*
X146900000Y-160750000D03*
X148600000Y-160750000D03*
X146800000Y-158050000D03*
X148500000Y-158050000D03*
X142100000Y-160750000D03*
X140400000Y-160750000D03*
X136750000Y-165350000D03*
X136750000Y-163650000D03*
X138500000Y-165350000D03*
X138500000Y-163650000D03*
X142350000Y-167100000D03*
X144050000Y-167100000D03*
X146750000Y-166850000D03*
X146750000Y-165150000D03*
D26*
X145270000Y-163750000D03*
X142730000Y-162797500D03*
X142730000Y-164702500D03*
D11*
X121000000Y-184750000D03*
D12*
X128600000Y-180250000D03*
X126900000Y-180250000D03*
D24*
X128670500Y-177250000D03*
X130829500Y-177250000D03*
D12*
X132600000Y-180250000D03*
X130900000Y-180250000D03*
X124200000Y-183750000D03*
X124200000Y-182050000D03*
D16*
X127056000Y-183955400D03*
X127056000Y-183320400D03*
X127056000Y-182660000D03*
X127056000Y-182025000D03*
X132644000Y-182025000D03*
X132644000Y-182672700D03*
X132644000Y-183320400D03*
X132644000Y-183968100D03*
D24*
X125920500Y-156250000D03*
X128079500Y-156250000D03*
D12*
X130150000Y-158750000D03*
X131850000Y-158750000D03*
X123850000Y-156250000D03*
X122150000Y-156250000D03*
X137600000Y-160500000D03*
X135900000Y-160500000D03*
X135900000Y-156500000D03*
X137600000Y-156500000D03*
D24*
X137579500Y-158500000D03*
X135420500Y-158500000D03*
D16*
X148681000Y-168330400D03*
X148681000Y-167695400D03*
X148681000Y-167035000D03*
X148681000Y-166400000D03*
X154269000Y-166400000D03*
X154269000Y-167047700D03*
X154269000Y-167695400D03*
X154269000Y-168343100D03*
D20*
X152944600Y-163400000D03*
X150455400Y-163400000D03*
D12*
X152000000Y-169900000D03*
X152000000Y-171600000D03*
X150000000Y-171600000D03*
X150000000Y-169900000D03*
D20*
X150505400Y-165000000D03*
X152994600Y-165000000D03*
D12*
X131400000Y-173750000D03*
X133100000Y-173750000D03*
X134500000Y-168550000D03*
X134500000Y-166850000D03*
D26*
X130230000Y-167750000D03*
X132770000Y-168702500D03*
X132770000Y-166797500D03*
D12*
X122750000Y-165400000D03*
X122750000Y-167100000D03*
X124750000Y-167100000D03*
X124750000Y-165400000D03*
D15*
X127500000Y-168020000D03*
X128452500Y-165480000D03*
X126547500Y-165480000D03*
D30*
X138050000Y-174600000D03*
D22*
X134800000Y-175600000D03*
X134800000Y-173600000D03*
D12*
X134950000Y-183700000D03*
X136650000Y-183700000D03*
X136250000Y-171600000D03*
X136250000Y-169900000D03*
X134500000Y-171600000D03*
X134500000Y-169900000D03*
X136500000Y-181600000D03*
X136500000Y-179900000D03*
X155550000Y-137900000D03*
X153850000Y-137900000D03*
D31*
X150102300Y-133702440D03*
X150750000Y-133702440D03*
X151397700Y-133702440D03*
X151397700Y-135297560D03*
X150750000Y-135297560D03*
X150102300Y-135297560D03*
D12*
X154650000Y-140700000D03*
X152950000Y-140700000D03*
X154250000Y-135850000D03*
X154250000Y-134150000D03*
X137000000Y-118650000D03*
X137000000Y-120350000D03*
D16*
X134694000Y-121544600D03*
X134694000Y-122179600D03*
X134694000Y-122840000D03*
X134694000Y-123475000D03*
X129106000Y-123475000D03*
X129106000Y-122827300D03*
X129106000Y-122179600D03*
X129106000Y-121531900D03*
D25*
X126000000Y-123579500D03*
X126000000Y-121420500D03*
D12*
X131250000Y-119850000D03*
X131250000Y-118150000D03*
X137000000Y-121650000D03*
X137000000Y-123350000D03*
X131150000Y-125500000D03*
X132850000Y-125500000D03*
D15*
X140500000Y-121730000D03*
X139547500Y-124270000D03*
X141452500Y-124270000D03*
X131500000Y-145530000D03*
X130547500Y-148070000D03*
X132452500Y-148070000D03*
D30*
X138950000Y-145000000D03*
D22*
X135700000Y-146000000D03*
X135700000Y-144000000D03*
D12*
X137450000Y-147900000D03*
X135750000Y-147900000D03*
X130750000Y-149900000D03*
X132450000Y-149900000D03*
X149500000Y-148350000D03*
X149500000Y-146650000D03*
X151600000Y-142500000D03*
X149900000Y-142500000D03*
X151000000Y-151850000D03*
X151000000Y-150150000D03*
X149500000Y-151850000D03*
X149500000Y-150150000D03*
X149900000Y-137750000D03*
X151600000Y-137750000D03*
X149900000Y-140750000D03*
X151600000Y-140750000D03*
X146650000Y-137250000D03*
X148350000Y-137250000D03*
X148350000Y-140750000D03*
X146650000Y-140750000D03*
X148250000Y-133650000D03*
X148250000Y-135350000D03*
X142400000Y-145650000D03*
X142400000Y-147350000D03*
D23*
X146297560Y-145852300D03*
X146297560Y-146500000D03*
X146297560Y-147147700D03*
X144702440Y-147147700D03*
X144702440Y-146500000D03*
X144702440Y-145852300D03*
D12*
X146500000Y-142400000D03*
X146500000Y-144100000D03*
X138950000Y-142000000D03*
X140650000Y-142000000D03*
D26*
X141770000Y-155500000D03*
X139230000Y-154547500D03*
X139230000Y-156452500D03*
D12*
X144750000Y-144100000D03*
X144750000Y-142400000D03*
D27*
X180300000Y-168000000D03*
X178300000Y-168000000D03*
D28*
X177550360Y-171000000D03*
X181949640Y-171000000D03*
D26*
X170870000Y-164500000D03*
X168330000Y-163547500D03*
X168330000Y-165452500D03*
D24*
X167920500Y-159250000D03*
X170079500Y-159250000D03*
D12*
X155400000Y-163750000D03*
X157100000Y-163750000D03*
X156400000Y-161750000D03*
X158100000Y-161750000D03*
X154850000Y-161750000D03*
X153150000Y-161750000D03*
X160100000Y-157250000D03*
X158400000Y-157250000D03*
D15*
X156000000Y-157480000D03*
X155047500Y-160020000D03*
X156952500Y-160020000D03*
D12*
X152600000Y-159500000D03*
X150900000Y-159500000D03*
X163300000Y-163750000D03*
X163300000Y-165450000D03*
X165250000Y-163600000D03*
X165250000Y-161900000D03*
X163250000Y-154900000D03*
X163250000Y-156600000D03*
D15*
X162500000Y-161270000D03*
X163452500Y-158730000D03*
X161547500Y-158730000D03*
D12*
X160750000Y-140900000D03*
X162450000Y-140900000D03*
X162750000Y-148350000D03*
X162750000Y-146650000D03*
X165250000Y-146850000D03*
X165250000Y-145150000D03*
X160750000Y-144300000D03*
X162450000Y-144300000D03*
X172750000Y-179100000D03*
X172750000Y-177400000D03*
D29*
X166250000Y-179450000D03*
X166250000Y-175050000D03*
D12*
X158300000Y-169450000D03*
X158300000Y-171150000D03*
X159750000Y-166400000D03*
X159750000Y-168100000D03*
X158250000Y-168100000D03*
X158250000Y-166400000D03*
X156500000Y-169450000D03*
X156500000Y-171150000D03*
X156500000Y-166400000D03*
X156500000Y-168100000D03*
D27*
X180500000Y-151900000D03*
X178500000Y-151900000D03*
D15*
X170900000Y-148270000D03*
X171852500Y-145730000D03*
X169947500Y-145730000D03*
D28*
X180500000Y-148949640D03*
X180500000Y-144550360D03*
D12*
X173700000Y-145650000D03*
X173700000Y-147350000D03*
D29*
X180500000Y-141200000D03*
X180500000Y-136800000D03*
D30*
X166550000Y-152750000D03*
D22*
X169800000Y-151750000D03*
X169800000Y-153750000D03*
D17*
X153401580Y-155695000D03*
X153401580Y-154425000D03*
X153401580Y-153155000D03*
X153401580Y-151885000D03*
X153401580Y-150615000D03*
X153401580Y-149345000D03*
X153401580Y-148075000D03*
X153401580Y-146805000D03*
X158598420Y-146805000D03*
X158598420Y-148075000D03*
X158598420Y-149345000D03*
X158598420Y-150615000D03*
X158598420Y-151885000D03*
X158598420Y-153155000D03*
X158598420Y-154425000D03*
X158598420Y-155695000D03*
D12*
X161000000Y-151850000D03*
X161000000Y-150150000D03*
D18*
X165700000Y-150544600D03*
X165700000Y-148055400D03*
D12*
X162750000Y-151850000D03*
X162750000Y-150150000D03*
X168300000Y-145650000D03*
X168300000Y-147350000D03*
D16*
X153306000Y-144205400D03*
X153306000Y-143570400D03*
X153306000Y-142910000D03*
X153306000Y-142275000D03*
X158894000Y-142275000D03*
X158894000Y-142922700D03*
X158894000Y-143570400D03*
X158894000Y-144218100D03*
D14*
X153050000Y-96275000D03*
X153050000Y-95625000D03*
X153050000Y-94975000D03*
X153050000Y-94325000D03*
X153050000Y-93675000D03*
X153050000Y-93025000D03*
X153050000Y-92375000D03*
X153050000Y-91725000D03*
X158950000Y-91725000D03*
X158950000Y-92375000D03*
X158950000Y-93025000D03*
X158950000Y-93675000D03*
X158950000Y-94325000D03*
X158950000Y-94975000D03*
X158950000Y-95625000D03*
X158950000Y-96275000D03*
X153050000Y-88275000D03*
X153050000Y-87625000D03*
X153050000Y-86975000D03*
X153050000Y-86325000D03*
X153050000Y-85675000D03*
X153050000Y-85025000D03*
X153050000Y-84375000D03*
X153050000Y-83725000D03*
X158950000Y-83725000D03*
X158950000Y-84375000D03*
X158950000Y-85025000D03*
X158950000Y-85675000D03*
X158950000Y-86325000D03*
X158950000Y-86975000D03*
X158950000Y-87625000D03*
X158950000Y-88275000D03*
D12*
X155650000Y-90000000D03*
X157350000Y-90000000D03*
D13*
X158950000Y-98550000D03*
X158950000Y-99200000D03*
X158950000Y-99850000D03*
X158950000Y-100500000D03*
X158950000Y-101150000D03*
X158950000Y-101800000D03*
X158950000Y-102450000D03*
X153050000Y-102450000D03*
X153050000Y-101800000D03*
X153050000Y-101150000D03*
X153050000Y-100500000D03*
X153050000Y-99850000D03*
X153050000Y-99200000D03*
X153050000Y-98550000D03*
D15*
X174000000Y-93230000D03*
X173047500Y-95770000D03*
X174952500Y-95770000D03*
D12*
X169850000Y-93000000D03*
X168150000Y-93000000D03*
X176650000Y-95750000D03*
X178350000Y-95750000D03*
X176650000Y-94000000D03*
X178350000Y-94000000D03*
D11*
X181250000Y-82750000D03*
D12*
X178850000Y-88750000D03*
X177150000Y-88750000D03*
D17*
X173848420Y-82305000D03*
X173848420Y-83575000D03*
X173848420Y-84845000D03*
X173848420Y-86115000D03*
X173848420Y-87385000D03*
X173848420Y-88655000D03*
X173848420Y-89925000D03*
X173848420Y-91195000D03*
X168651580Y-91195000D03*
X168651580Y-89925000D03*
X168651580Y-88655000D03*
X168651580Y-87385000D03*
X168651580Y-86115000D03*
X168651580Y-84845000D03*
X168651580Y-83575000D03*
X168651580Y-82305000D03*
D12*
X178700000Y-83250000D03*
X178700000Y-81550000D03*
X178750000Y-84900000D03*
X177050000Y-84900000D03*
D16*
X171056000Y-99205400D03*
X171056000Y-98570400D03*
X171056000Y-97910000D03*
X171056000Y-97275000D03*
X176644000Y-97275000D03*
X176644000Y-97922700D03*
X176644000Y-98570400D03*
X176644000Y-99218100D03*
D12*
X179750000Y-97400000D03*
X179750000Y-99100000D03*
X177150000Y-101000000D03*
X178850000Y-101000000D03*
X174050000Y-101000000D03*
X175750000Y-101000000D03*
X170750000Y-101000000D03*
X172450000Y-101000000D03*
D18*
X180750000Y-100755400D03*
X180750000Y-103244600D03*
D12*
X171900000Y-108550000D03*
X171900000Y-106850000D03*
X167350000Y-96900000D03*
X169050000Y-96900000D03*
X160900000Y-104500000D03*
X162600000Y-104500000D03*
X167350000Y-101000000D03*
X169050000Y-101000000D03*
X165850000Y-101000000D03*
X164150000Y-101000000D03*
X160900000Y-101000000D03*
X162600000Y-101000000D03*
X165550000Y-98900000D03*
X167250000Y-98900000D03*
X160900000Y-102750000D03*
X162600000Y-102750000D03*
X152000000Y-104400000D03*
X152000000Y-106100000D03*
X157250000Y-106100000D03*
X157250000Y-104400000D03*
X159000000Y-106100000D03*
X159000000Y-104400000D03*
X153750000Y-104400000D03*
X153750000Y-106100000D03*
D18*
X157200000Y-107355400D03*
X157200000Y-109844600D03*
D12*
X155500000Y-104400000D03*
X155500000Y-106100000D03*
X103900000Y-119600900D03*
X103900000Y-121300900D03*
D31*
X85102300Y-133702440D03*
X85750000Y-133702440D03*
X86397700Y-133702440D03*
X86397700Y-135297560D03*
X85750000Y-135297560D03*
X85102300Y-135297560D03*
D23*
X81297560Y-145852300D03*
X81297560Y-146500000D03*
X81297560Y-147147700D03*
X79702440Y-147147700D03*
X79702440Y-146500000D03*
X79702440Y-145852300D03*
X62202440Y-89647700D03*
X62202440Y-89000000D03*
X62202440Y-88352300D03*
X63797560Y-88352300D03*
X63797560Y-89000000D03*
X63797560Y-89647700D03*
X62202440Y-92147700D03*
X62202440Y-91500000D03*
X62202440Y-90852300D03*
X63797560Y-90852300D03*
X63797560Y-91500000D03*
X63797560Y-92147700D03*
D13*
X93950000Y-98550000D03*
X93950000Y-99200000D03*
X93950000Y-99850000D03*
X93950000Y-100500000D03*
X93950000Y-101150000D03*
X93950000Y-101800000D03*
X93950000Y-102450000D03*
X88050000Y-102450000D03*
X88050000Y-101800000D03*
X88050000Y-101150000D03*
X88050000Y-100500000D03*
X88050000Y-99850000D03*
X88050000Y-99200000D03*
X88050000Y-98550000D03*
D12*
X81800000Y-158050000D03*
X83500000Y-158050000D03*
X65200000Y-85250000D03*
X65200000Y-86950000D03*
X61000000Y-99750000D03*
X61000000Y-101450000D03*
X55500000Y-81450000D03*
X55500000Y-83150000D03*
X56300000Y-90650000D03*
X56300000Y-92350000D03*
X110550000Y-108400000D03*
X108850000Y-108400000D03*
X102350000Y-96900000D03*
X104050000Y-96900000D03*
X81750000Y-166850000D03*
X81750000Y-165150000D03*
X102500000Y-128550000D03*
X102500000Y-130250000D03*
X76850000Y-118700000D03*
X78550000Y-118700000D03*
X95750000Y-144300000D03*
X97450000Y-144300000D03*
X89650000Y-140700000D03*
X87950000Y-140700000D03*
X89250000Y-131150000D03*
X89250000Y-132850000D03*
X91500000Y-169450000D03*
X91500000Y-171150000D03*
X77350000Y-167100000D03*
X79050000Y-167100000D03*
X100250000Y-146850000D03*
X100250000Y-145150000D03*
X69950000Y-183700000D03*
X71650000Y-183700000D03*
X59200000Y-183750000D03*
X59200000Y-182050000D03*
X73500000Y-165350000D03*
X73500000Y-163650000D03*
X69500000Y-171600000D03*
X69500000Y-169900000D03*
X73500000Y-83350000D03*
X73500000Y-85050000D03*
X113750000Y-84900000D03*
X112050000Y-84900000D03*
X87600000Y-159500000D03*
X85900000Y-159500000D03*
X93250000Y-168100000D03*
X93250000Y-166400000D03*
X57300000Y-101450000D03*
X57300000Y-99750000D03*
X70350000Y-98000000D03*
X68650000Y-98000000D03*
X113700000Y-83250000D03*
X113700000Y-81550000D03*
X90650000Y-90000000D03*
X92350000Y-90000000D03*
X76950000Y-98300000D03*
X78650000Y-98300000D03*
X87000000Y-104400000D03*
X87000000Y-106100000D03*
X95900000Y-101000000D03*
X97600000Y-101000000D03*
X94000000Y-106100000D03*
X94000000Y-104400000D03*
D20*
X84505400Y-130000000D03*
X86994600Y-130000000D03*
D18*
X100700000Y-150544600D03*
X100700000Y-148055400D03*
D28*
X115500000Y-148949640D03*
X115500000Y-144550360D03*
X112550360Y-171000000D03*
X116949640Y-171000000D03*
D20*
X87944600Y-163400000D03*
X85455400Y-163400000D03*
X85505400Y-165000000D03*
X87994600Y-165000000D03*
D18*
X115750000Y-100755400D03*
X115750000Y-103244600D03*
D20*
X102705400Y-117750000D03*
X105194600Y-117750000D03*
D18*
X55700000Y-99644600D03*
X55700000Y-97155400D03*
X65500000Y-91494600D03*
X65500000Y-89005400D03*
X92200000Y-107355400D03*
X92200000Y-109844600D03*
D26*
X76770000Y-155500000D03*
X74230000Y-154547500D03*
X74230000Y-156452500D03*
X80270000Y-163750000D03*
X77730000Y-162797500D03*
X77730000Y-164702500D03*
X65230000Y-167750000D03*
X67770000Y-168702500D03*
X67770000Y-166797500D03*
D15*
X105900000Y-148270000D03*
X106852500Y-145730000D03*
X104947500Y-145730000D03*
X62500000Y-168020000D03*
X63452500Y-165480000D03*
X61547500Y-165480000D03*
X85750000Y-125980000D03*
X84797500Y-128520000D03*
X86702500Y-128520000D03*
D26*
X105870000Y-164500000D03*
X103330000Y-163547500D03*
X103330000Y-165452500D03*
D15*
X97500000Y-161270000D03*
X98452500Y-158730000D03*
X96547500Y-158730000D03*
X91000000Y-157480000D03*
X90047500Y-160020000D03*
X91952500Y-160020000D03*
X109000000Y-93230000D03*
X108047500Y-95770000D03*
X109952500Y-95770000D03*
X75500000Y-121730000D03*
X74547500Y-124270000D03*
X76452500Y-124270000D03*
D26*
X102480000Y-110250000D03*
X105020000Y-111202500D03*
X105020000Y-109297500D03*
D12*
X107000000Y-121350000D03*
X107000000Y-119650000D03*
X73950000Y-142000000D03*
X75650000Y-142000000D03*
X81900000Y-160750000D03*
X83600000Y-160750000D03*
X81650000Y-137250000D03*
X83350000Y-137250000D03*
X80100000Y-160750000D03*
X78400000Y-160750000D03*
X80100000Y-158000000D03*
X78400000Y-158000000D03*
X84900000Y-140750000D03*
X86600000Y-140750000D03*
X66400000Y-173750000D03*
X68100000Y-173750000D03*
X81900000Y-163250000D03*
X83600000Y-163250000D03*
X77100000Y-160750000D03*
X75400000Y-160750000D03*
X86600000Y-142500000D03*
X84900000Y-142500000D03*
X83350000Y-140750000D03*
X81650000Y-140750000D03*
X85000000Y-171600000D03*
X85000000Y-169900000D03*
X87000000Y-169900000D03*
X87000000Y-171600000D03*
X89250000Y-135850000D03*
X89250000Y-134150000D03*
X71250000Y-171600000D03*
X71250000Y-169900000D03*
X81500000Y-142400000D03*
X81500000Y-144100000D03*
X79750000Y-144100000D03*
X79750000Y-142400000D03*
X69500000Y-168550000D03*
X69500000Y-166850000D03*
X86600000Y-131500000D03*
X84900000Y-131500000D03*
X72450000Y-147900000D03*
X70750000Y-147900000D03*
X103300000Y-145650000D03*
X103300000Y-147350000D03*
X71750000Y-165350000D03*
X71750000Y-163650000D03*
X83250000Y-133650000D03*
X83250000Y-135350000D03*
X59750000Y-167100000D03*
X59750000Y-165400000D03*
X70900000Y-156500000D03*
X72600000Y-156500000D03*
X84900000Y-137750000D03*
X86600000Y-137750000D03*
X57750000Y-165400000D03*
X57750000Y-167100000D03*
X85900000Y-157250000D03*
X87600000Y-157250000D03*
X108700000Y-145650000D03*
X108700000Y-147350000D03*
X65150000Y-158750000D03*
X66850000Y-158750000D03*
X90550000Y-137900000D03*
X88850000Y-137900000D03*
X84500000Y-148350000D03*
X84500000Y-146650000D03*
X98300000Y-163750000D03*
X98300000Y-165450000D03*
X86700000Y-123600000D03*
X86700000Y-121900000D03*
X84500000Y-151850000D03*
X84500000Y-150150000D03*
X72600000Y-160500000D03*
X70900000Y-160500000D03*
X58850000Y-156250000D03*
X57150000Y-156250000D03*
X86000000Y-151850000D03*
X86000000Y-150150000D03*
X100250000Y-163600000D03*
X100250000Y-161900000D03*
X98250000Y-154900000D03*
X98250000Y-156600000D03*
X97750000Y-148350000D03*
X97750000Y-146650000D03*
X97750000Y-151850000D03*
X97750000Y-150150000D03*
X96000000Y-151850000D03*
X96000000Y-150150000D03*
X95100000Y-157250000D03*
X93400000Y-157250000D03*
X83250000Y-125350000D03*
X83250000Y-123650000D03*
X83250000Y-126650000D03*
X83250000Y-128350000D03*
X85000000Y-123600000D03*
X85000000Y-121900000D03*
X83700000Y-113500000D03*
X85400000Y-113500000D03*
X93500000Y-118100000D03*
X93500000Y-116400000D03*
X100850000Y-101000000D03*
X99150000Y-101000000D03*
X66150000Y-125500000D03*
X67850000Y-125500000D03*
X72000000Y-121650000D03*
X72000000Y-123350000D03*
X89850000Y-161750000D03*
X88150000Y-161750000D03*
X95750000Y-140900000D03*
X97450000Y-140900000D03*
X102350000Y-101000000D03*
X104050000Y-101000000D03*
X100550000Y-98900000D03*
X102250000Y-98900000D03*
X57550000Y-108100000D03*
X59250000Y-108100000D03*
X94750000Y-166400000D03*
X94750000Y-168100000D03*
X83700000Y-115250000D03*
X85400000Y-115250000D03*
X66250000Y-119850000D03*
X66250000Y-118150000D03*
X111650000Y-94000000D03*
X113350000Y-94000000D03*
X88450000Y-121900000D03*
X90150000Y-121900000D03*
X105750000Y-101000000D03*
X107450000Y-101000000D03*
X91500000Y-166400000D03*
X91500000Y-168100000D03*
X86950000Y-115250000D03*
X88650000Y-115250000D03*
X109650000Y-131000000D03*
X111350000Y-131000000D03*
X91750000Y-116400000D03*
X91750000Y-118100000D03*
X91400000Y-161750000D03*
X93100000Y-161750000D03*
X93300000Y-169450000D03*
X93300000Y-171150000D03*
X109050000Y-101000000D03*
X110750000Y-101000000D03*
X111650000Y-95750000D03*
X113350000Y-95750000D03*
X112150000Y-101000000D03*
X113850000Y-101000000D03*
X78250000Y-126600000D03*
X78250000Y-124900000D03*
X114750000Y-97400000D03*
X114750000Y-99100000D03*
X61500000Y-109600000D03*
X61500000Y-107900000D03*
X105200000Y-113000000D03*
X103500000Y-113000000D03*
X105200000Y-114850000D03*
X103500000Y-114850000D03*
X106900000Y-108550000D03*
X106900000Y-106850000D03*
X113850000Y-88750000D03*
X112150000Y-88750000D03*
X60150000Y-97000000D03*
X61850000Y-97000000D03*
X59200000Y-99750000D03*
X59200000Y-101450000D03*
X57750000Y-95600000D03*
X57750000Y-93900000D03*
X56000000Y-93900000D03*
X56000000Y-95600000D03*
X67800000Y-85250000D03*
X67800000Y-86950000D03*
X59600000Y-90750000D03*
X57900000Y-90750000D03*
X67250000Y-91100000D03*
X67250000Y-89400000D03*
X69400000Y-86950000D03*
X69400000Y-85250000D03*
X64850000Y-97000000D03*
X63150000Y-97000000D03*
X79350000Y-94250000D03*
X77650000Y-94250000D03*
X104850000Y-93000000D03*
X103150000Y-93000000D03*
X68650000Y-95750000D03*
X70350000Y-95750000D03*
X71500000Y-181600000D03*
X71500000Y-179900000D03*
X88750000Y-104400000D03*
X88750000Y-106100000D03*
X90500000Y-104400000D03*
X90500000Y-106100000D03*
X95900000Y-102750000D03*
X97600000Y-102750000D03*
X67600000Y-180250000D03*
X65900000Y-180250000D03*
X92250000Y-106100000D03*
X92250000Y-104400000D03*
X85250000Y-104400000D03*
X85250000Y-106100000D03*
X95900000Y-104500000D03*
X97600000Y-104500000D03*
X63600000Y-180250000D03*
X61900000Y-180250000D03*
D17*
X88401580Y-155695000D03*
X88401580Y-154425000D03*
X88401580Y-153155000D03*
X88401580Y-151885000D03*
X88401580Y-150615000D03*
X88401580Y-149345000D03*
X88401580Y-148075000D03*
X88401580Y-146805000D03*
X93598420Y-146805000D03*
X93598420Y-148075000D03*
X93598420Y-149345000D03*
X93598420Y-150615000D03*
X93598420Y-151885000D03*
X93598420Y-153155000D03*
X93598420Y-154425000D03*
X93598420Y-155695000D03*
D14*
X88050000Y-88275000D03*
X88050000Y-87625000D03*
X88050000Y-86975000D03*
X88050000Y-86325000D03*
X88050000Y-85675000D03*
X88050000Y-85025000D03*
X88050000Y-84375000D03*
X88050000Y-83725000D03*
X93950000Y-83725000D03*
X93950000Y-84375000D03*
X93950000Y-85025000D03*
X93950000Y-85675000D03*
X93950000Y-86325000D03*
X93950000Y-86975000D03*
X93950000Y-87625000D03*
X93950000Y-88275000D03*
X88050000Y-96275000D03*
X88050000Y-95625000D03*
X88050000Y-94975000D03*
X88050000Y-94325000D03*
X88050000Y-93675000D03*
X88050000Y-93025000D03*
X88050000Y-92375000D03*
X88050000Y-91725000D03*
X93950000Y-91725000D03*
X93950000Y-92375000D03*
X93950000Y-93025000D03*
X93950000Y-93675000D03*
X93950000Y-94325000D03*
X93950000Y-94975000D03*
X93950000Y-95625000D03*
X93950000Y-96275000D03*
D13*
X58550000Y-84975000D03*
X58550000Y-84325000D03*
X58550000Y-83675000D03*
X58550000Y-83025000D03*
X62950000Y-83025000D03*
X62950000Y-83675000D03*
X62950000Y-84325000D03*
X62950000Y-84975000D03*
D17*
X83598420Y-83555000D03*
X83598420Y-84825000D03*
X83598420Y-86095000D03*
X83598420Y-87365000D03*
X83598420Y-88635000D03*
X83598420Y-89905000D03*
X83598420Y-91175000D03*
X83598420Y-92445000D03*
X78401580Y-92445000D03*
X78401580Y-91175000D03*
X78401580Y-89905000D03*
X78401580Y-88635000D03*
X78401580Y-87365000D03*
X78401580Y-86095000D03*
X78401580Y-84825000D03*
X78401580Y-83555000D03*
X108848420Y-82305000D03*
X108848420Y-83575000D03*
X108848420Y-84845000D03*
X108848420Y-86115000D03*
X108848420Y-87385000D03*
X108848420Y-88655000D03*
X108848420Y-89925000D03*
X108848420Y-91195000D03*
X103651580Y-91195000D03*
X103651580Y-89925000D03*
X103651580Y-88655000D03*
X103651580Y-87385000D03*
X103651580Y-86115000D03*
X103651580Y-84845000D03*
X103651580Y-83575000D03*
X103651580Y-82305000D03*
D24*
X72579500Y-158500000D03*
X70420500Y-158500000D03*
X60920500Y-156250000D03*
X63079500Y-156250000D03*
X63670500Y-177250000D03*
X65829500Y-177250000D03*
D25*
X61000000Y-123579500D03*
X61000000Y-121420500D03*
D16*
X62056000Y-183955400D03*
X62056000Y-183320400D03*
X62056000Y-182660000D03*
X62056000Y-182025000D03*
X67644000Y-182025000D03*
X67644000Y-182672700D03*
X67644000Y-183320400D03*
X67644000Y-183968100D03*
X60306000Y-95455400D03*
X60306000Y-94820400D03*
X60306000Y-94160000D03*
X60306000Y-93525000D03*
X65894000Y-93525000D03*
X65894000Y-94172700D03*
X65894000Y-94820400D03*
X65894000Y-95468100D03*
X69694000Y-121544600D03*
X69694000Y-122179600D03*
X69694000Y-122840000D03*
X69694000Y-123475000D03*
X64106000Y-123475000D03*
X64106000Y-122827300D03*
X64106000Y-122179600D03*
X64106000Y-121531900D03*
X83681000Y-168330400D03*
X83681000Y-167695400D03*
X83681000Y-167035000D03*
X83681000Y-166400000D03*
X89269000Y-166400000D03*
X89269000Y-167047700D03*
X89269000Y-167695400D03*
X89269000Y-168343100D03*
X88306000Y-144205400D03*
X88306000Y-143570400D03*
X88306000Y-142910000D03*
X88306000Y-142275000D03*
X93894000Y-142275000D03*
X93894000Y-142922700D03*
X93894000Y-143570400D03*
X93894000Y-144218100D03*
X83356000Y-118705400D03*
X83356000Y-118070400D03*
X83356000Y-117410000D03*
X83356000Y-116775000D03*
X88944000Y-116775000D03*
X88944000Y-117422700D03*
X88944000Y-118070400D03*
X88944000Y-118718100D03*
X106056000Y-99205400D03*
X106056000Y-98570400D03*
X106056000Y-97910000D03*
X106056000Y-97275000D03*
X111644000Y-97275000D03*
X111644000Y-97922700D03*
X111644000Y-98570400D03*
X111644000Y-99218100D03*
D29*
X115500000Y-141200000D03*
X115500000Y-136800000D03*
X101250000Y-179450000D03*
X101250000Y-175050000D03*
D20*
X75255400Y-110500000D03*
X77744600Y-110500000D03*
X77744600Y-112250000D03*
X75255400Y-112250000D03*
D12*
X90400000Y-163750000D03*
X92100000Y-163750000D03*
D30*
X73050000Y-174600000D03*
D22*
X69800000Y-175600000D03*
X69800000Y-173600000D03*
D30*
X73950000Y-145000000D03*
D22*
X70700000Y-146000000D03*
X70700000Y-144000000D03*
D30*
X101550000Y-152750000D03*
D22*
X104800000Y-151750000D03*
X104800000Y-153750000D03*
D21*
X93000000Y-121450000D03*
D22*
X94000000Y-124700000D03*
X92000000Y-124700000D03*
D21*
X64000000Y-99050000D03*
D22*
X65000000Y-102300000D03*
X63000000Y-102300000D03*
D12*
X83000000Y-97250000D03*
X83000000Y-95550000D03*
X78650000Y-104000000D03*
X80350000Y-104000000D03*
D19*
X81350000Y-100300000D03*
X81350000Y-101250000D03*
X81350000Y-102200000D03*
X79150000Y-102200000D03*
X79150000Y-100300000D03*
D24*
X102920500Y-159250000D03*
X105079500Y-159250000D03*
D11*
X56000000Y-184750000D03*
X116250000Y-82750000D03*
D12*
X77400000Y-145650000D03*
X77400000Y-147350000D03*
X72000000Y-118650000D03*
X72000000Y-120350000D03*
X107750000Y-179100000D03*
X107750000Y-177400000D03*
X78300000Y-123550000D03*
X78300000Y-121850000D03*
D15*
X66500000Y-145530000D03*
X65547500Y-148070000D03*
X67452500Y-148070000D03*
D27*
X115500000Y-151900000D03*
X113500000Y-151900000D03*
X115300000Y-168000000D03*
X113300000Y-168000000D03*
D12*
X65750000Y-149900000D03*
X67450000Y-149900000D03*
D24*
X58220500Y-87000000D03*
X60379500Y-87000000D03*
D12*
X68700000Y-101450000D03*
X68700000Y-99750000D03*
X68650000Y-93500000D03*
X70350000Y-93500000D03*
M02*
