G04 #@! TF.FileFunction,Soldermask,Bot*
%FSLAX46Y46*%
G04 Gerber Fmt 4.6, Leading zero omitted, Abs format (unit mm)*
G04 Created by KiCad (PCBNEW 4.0.2-stable) date 2018-03-19 11:23:05 AM*
%MOMM*%
G01*
G04 APERTURE LIST*
%ADD10C,0.100000*%
%ADD11C,2.020000*%
%ADD12O,2.000000X2.000000*%
%ADD13R,0.920000X0.820000*%
%ADD14R,1.470000X0.470000*%
%ADD15R,1.520000X0.470000*%
%ADD16R,0.721040X1.020760*%
%ADD17R,1.320480X0.420000*%
%ADD18R,2.219640X0.619440*%
%ADD19R,1.620000X2.820000*%
%ADD20C,1.520000*%
%ADD21R,0.782000X0.629600*%
%ADD22R,1.080000X0.670000*%
%ADD23R,0.629600X0.782000*%
%ADD24R,1.620000X1.520000*%
%ADD25R,1.220000X1.220000*%
%ADD26R,1.544000X1.544000*%
%ADD27C,1.544000*%
%ADD28R,0.817560X0.418780*%
%ADD29R,1.163000X1.417000*%
%ADD30C,1.320000*%
%ADD31R,1.417000X1.163000*%
%ADD32R,1.020760X0.721040*%
%ADD33R,1.747200X1.747200*%
%ADD34O,1.747200X1.747200*%
%ADD35R,1.020000X1.270000*%
%ADD36R,2.417760X2.417760*%
%ADD37R,1.620000X3.020000*%
%ADD38R,1.520000X1.620000*%
%ADD39R,0.418780X0.817560*%
%ADD40C,1.220000*%
%ADD41C,2.018980*%
%ADD42O,4.020000X2.520000*%
%ADD43O,2.520000X2.020000*%
%ADD44O,1.520000X3.520000*%
%ADD45O,2.520000X4.020000*%
%ADD46O,2.020000X2.520000*%
%ADD47O,3.520000X1.520000*%
%ADD48R,1.520000X2.020000*%
%ADD49C,2.270000*%
G04 APERTURE END LIST*
D10*
D11*
X310500000Y-77500000D03*
D12*
X306500000Y-77500000D03*
D11*
X310500000Y-190000000D03*
X56500000Y-190000000D03*
D12*
X60500000Y-190000000D03*
D11*
X56500000Y-77500000D03*
D13*
X285650000Y-90000000D03*
X287350000Y-90000000D03*
D14*
X288950000Y-98550000D03*
X288950000Y-99200000D03*
X288950000Y-99850000D03*
X288950000Y-100500000D03*
X288950000Y-101150000D03*
X288950000Y-101800000D03*
X288950000Y-102450000D03*
X283050000Y-102450000D03*
X283050000Y-101800000D03*
X283050000Y-101150000D03*
X283050000Y-100500000D03*
X283050000Y-99850000D03*
X283050000Y-99200000D03*
X283050000Y-98550000D03*
D15*
X283050000Y-88275000D03*
X283050000Y-87625000D03*
X283050000Y-86975000D03*
X283050000Y-86325000D03*
X283050000Y-85675000D03*
X283050000Y-85025000D03*
X283050000Y-84375000D03*
X283050000Y-83725000D03*
X288950000Y-83725000D03*
X288950000Y-84375000D03*
X288950000Y-85025000D03*
X288950000Y-85675000D03*
X288950000Y-86325000D03*
X288950000Y-86975000D03*
X288950000Y-87625000D03*
X288950000Y-88275000D03*
X283050000Y-96275000D03*
X283050000Y-95625000D03*
X283050000Y-94975000D03*
X283050000Y-94325000D03*
X283050000Y-93675000D03*
X283050000Y-93025000D03*
X283050000Y-92375000D03*
X283050000Y-91725000D03*
X288950000Y-91725000D03*
X288950000Y-92375000D03*
X288950000Y-93025000D03*
X288950000Y-93675000D03*
X288950000Y-94325000D03*
X288950000Y-94975000D03*
X288950000Y-95625000D03*
X288950000Y-96275000D03*
D13*
X290900000Y-102750000D03*
X292600000Y-102750000D03*
X290900000Y-104500000D03*
X292600000Y-104500000D03*
X290900000Y-101000000D03*
X292600000Y-101000000D03*
X299850000Y-93000000D03*
X298150000Y-93000000D03*
D16*
X304000000Y-93230000D03*
X303047500Y-95770000D03*
X304952500Y-95770000D03*
D17*
X301056000Y-99205400D03*
X301056000Y-98570400D03*
X301056000Y-97910000D03*
X301056000Y-97275000D03*
X306644000Y-97275000D03*
X306644000Y-97922700D03*
X306644000Y-98570400D03*
X306644000Y-99218100D03*
D13*
X295550000Y-98900000D03*
X297250000Y-98900000D03*
X297350000Y-96900000D03*
X299050000Y-96900000D03*
X308850000Y-88750000D03*
X307150000Y-88750000D03*
D18*
X303848420Y-82305000D03*
X303848420Y-83575000D03*
X303848420Y-84845000D03*
X303848420Y-86115000D03*
X303848420Y-87385000D03*
X303848420Y-88655000D03*
X303848420Y-89925000D03*
X303848420Y-91195000D03*
X298651580Y-91195000D03*
X298651580Y-89925000D03*
X298651580Y-88655000D03*
X298651580Y-87385000D03*
X298651580Y-86115000D03*
X298651580Y-84845000D03*
X298651580Y-83575000D03*
X298651580Y-82305000D03*
D12*
X311250000Y-82750000D03*
D13*
X308700000Y-83250000D03*
X308700000Y-81550000D03*
D19*
X311750000Y-86250000D03*
D20*
X310250000Y-91500000D03*
D13*
X308750000Y-84900000D03*
X307050000Y-84900000D03*
X306650000Y-94000000D03*
X308350000Y-94000000D03*
X306650000Y-95750000D03*
X308350000Y-95750000D03*
X309750000Y-97400000D03*
X309750000Y-99100000D03*
X307150000Y-101000000D03*
X308850000Y-101000000D03*
D21*
X310750000Y-100755400D03*
X310750000Y-103244600D03*
D13*
X304050000Y-101000000D03*
X305750000Y-101000000D03*
D22*
X276350000Y-100300000D03*
X276350000Y-101250000D03*
X276350000Y-102200000D03*
X274150000Y-102200000D03*
X274150000Y-100300000D03*
D13*
X271950000Y-98300000D03*
X273650000Y-98300000D03*
X273650000Y-104000000D03*
X275350000Y-104000000D03*
X274350000Y-94250000D03*
X272650000Y-94250000D03*
X278000000Y-97250000D03*
X278000000Y-95550000D03*
D23*
X272744600Y-112250000D03*
X270255400Y-112250000D03*
X270255400Y-110500000D03*
X272744600Y-110500000D03*
D13*
X259850000Y-97000000D03*
X258150000Y-97000000D03*
D24*
X259000000Y-99050000D03*
D25*
X260000000Y-102300000D03*
X258000000Y-102300000D03*
D26*
X267000000Y-100960000D03*
D27*
X267000000Y-103500000D03*
X267000000Y-106040000D03*
D20*
X261750000Y-98000000D03*
D13*
X263700000Y-101450000D03*
X263700000Y-99750000D03*
X265350000Y-98000000D03*
X263650000Y-98000000D03*
D18*
X278598420Y-83555000D03*
X278598420Y-84825000D03*
X278598420Y-86095000D03*
X278598420Y-87365000D03*
X278598420Y-88635000D03*
X278598420Y-89905000D03*
X278598420Y-91175000D03*
X278598420Y-92445000D03*
X273401580Y-92445000D03*
X273401580Y-91175000D03*
X273401580Y-89905000D03*
X273401580Y-88635000D03*
X273401580Y-87365000D03*
X273401580Y-86095000D03*
X273401580Y-84825000D03*
X273401580Y-83555000D03*
D13*
X263650000Y-93500000D03*
X265350000Y-93500000D03*
X268500000Y-83350000D03*
X268500000Y-85050000D03*
X264400000Y-86950000D03*
X264400000Y-85250000D03*
X263650000Y-95750000D03*
X265350000Y-95750000D03*
D14*
X253550000Y-84975000D03*
X253550000Y-84325000D03*
X253550000Y-83675000D03*
X253550000Y-83025000D03*
X257950000Y-83025000D03*
X257950000Y-83675000D03*
X257950000Y-84325000D03*
X257950000Y-84975000D03*
D13*
X255150000Y-97000000D03*
X256850000Y-97000000D03*
D28*
X257202440Y-92147700D03*
X257202440Y-91500000D03*
X257202440Y-90852300D03*
X258797560Y-90852300D03*
X258797560Y-91500000D03*
X258797560Y-92147700D03*
D13*
X254600000Y-90750000D03*
X252900000Y-90750000D03*
D17*
X255306000Y-95455400D03*
X255306000Y-94820400D03*
X255306000Y-94160000D03*
X255306000Y-93525000D03*
X260894000Y-93525000D03*
X260894000Y-94172700D03*
X260894000Y-94820400D03*
X260894000Y-95468100D03*
D13*
X252750000Y-95600000D03*
X252750000Y-93900000D03*
X251300000Y-90650000D03*
X251300000Y-92350000D03*
D29*
X253220500Y-87000000D03*
X255379500Y-87000000D03*
D30*
X256550000Y-87000000D03*
X252050000Y-87000000D03*
D13*
X256500000Y-109600000D03*
X256500000Y-107900000D03*
X254200000Y-99750000D03*
X254200000Y-101450000D03*
X256000000Y-99750000D03*
X256000000Y-101450000D03*
X252300000Y-101450000D03*
X252300000Y-99750000D03*
X252550000Y-108100000D03*
X254250000Y-108100000D03*
X262250000Y-91100000D03*
X262250000Y-89400000D03*
D28*
X257202440Y-89647700D03*
X257202440Y-89000000D03*
X257202440Y-88352300D03*
X258797560Y-88352300D03*
X258797560Y-89000000D03*
X258797560Y-89647700D03*
D13*
X262800000Y-85250000D03*
X262800000Y-86950000D03*
D21*
X260500000Y-91494600D03*
X260500000Y-89005400D03*
D13*
X260200000Y-85250000D03*
X260200000Y-86950000D03*
X241650000Y-94000000D03*
X243350000Y-94000000D03*
X234850000Y-93000000D03*
X233150000Y-93000000D03*
X241650000Y-95750000D03*
X243350000Y-95750000D03*
D16*
X239000000Y-93230000D03*
X238047500Y-95770000D03*
X239952500Y-95770000D03*
D13*
X250500000Y-81450000D03*
X250500000Y-83150000D03*
D12*
X246250000Y-82750000D03*
D13*
X243750000Y-84900000D03*
X242050000Y-84900000D03*
X243700000Y-83250000D03*
X243700000Y-81550000D03*
D20*
X245250000Y-91500000D03*
D19*
X246750000Y-86250000D03*
D18*
X238848420Y-82305000D03*
X238848420Y-83575000D03*
X238848420Y-84845000D03*
X238848420Y-86115000D03*
X238848420Y-87385000D03*
X238848420Y-88655000D03*
X238848420Y-89925000D03*
X238848420Y-91195000D03*
X233651580Y-91195000D03*
X233651580Y-89925000D03*
X233651580Y-88655000D03*
X233651580Y-87385000D03*
X233651580Y-86115000D03*
X233651580Y-84845000D03*
X233651580Y-83575000D03*
X233651580Y-82305000D03*
D13*
X243850000Y-88750000D03*
X242150000Y-88750000D03*
X251000000Y-93900000D03*
X251000000Y-95600000D03*
D21*
X250700000Y-99644600D03*
X250700000Y-97155400D03*
D13*
X244750000Y-97400000D03*
X244750000Y-99100000D03*
D21*
X245750000Y-100755400D03*
X245750000Y-103244600D03*
D13*
X242150000Y-101000000D03*
X243850000Y-101000000D03*
D17*
X236056000Y-99205400D03*
X236056000Y-98570400D03*
X236056000Y-97910000D03*
X236056000Y-97275000D03*
X241644000Y-97275000D03*
X241644000Y-97922700D03*
X241644000Y-98570400D03*
X241644000Y-99218100D03*
X264694000Y-121544600D03*
X264694000Y-122179600D03*
X264694000Y-122840000D03*
X264694000Y-123475000D03*
X259106000Y-123475000D03*
X259106000Y-122827300D03*
X259106000Y-122179600D03*
X259106000Y-121531900D03*
D13*
X261150000Y-125500000D03*
X262850000Y-125500000D03*
X261250000Y-119850000D03*
X261250000Y-118150000D03*
D31*
X256000000Y-123579500D03*
X256000000Y-121420500D03*
D13*
X232500000Y-128550000D03*
X232500000Y-130250000D03*
X237000000Y-121350000D03*
X237000000Y-119650000D03*
X233900000Y-119600900D03*
X233900000Y-121300900D03*
X239650000Y-131000000D03*
X241350000Y-131000000D03*
D23*
X232705400Y-117750000D03*
X235194600Y-117750000D03*
D32*
X232480000Y-110250000D03*
X235020000Y-111202500D03*
X235020000Y-109297500D03*
D13*
X235200000Y-114850000D03*
X233500000Y-114850000D03*
X235200000Y-113000000D03*
X233500000Y-113000000D03*
X236900000Y-108550000D03*
X236900000Y-106850000D03*
X239050000Y-101000000D03*
X240750000Y-101000000D03*
X235750000Y-101000000D03*
X237450000Y-101000000D03*
X240550000Y-108400000D03*
X238850000Y-108400000D03*
X225900000Y-102750000D03*
X227600000Y-102750000D03*
X225900000Y-101000000D03*
X227600000Y-101000000D03*
X225900000Y-104500000D03*
X227600000Y-104500000D03*
X230550000Y-98900000D03*
X232250000Y-98900000D03*
X230850000Y-101000000D03*
X229150000Y-101000000D03*
X232350000Y-101000000D03*
X234050000Y-101000000D03*
X232350000Y-96900000D03*
X234050000Y-96900000D03*
D17*
X199694000Y-121544600D03*
X199694000Y-122179600D03*
X199694000Y-122840000D03*
X199694000Y-123475000D03*
X194106000Y-123475000D03*
X194106000Y-122827300D03*
X194106000Y-122179600D03*
X194106000Y-121531900D03*
D31*
X191000000Y-123579500D03*
X191000000Y-121420500D03*
D13*
X196150000Y-125500000D03*
X197850000Y-125500000D03*
X187550000Y-108100000D03*
X189250000Y-108100000D03*
X191500000Y-109600000D03*
X191500000Y-107900000D03*
D23*
X205255400Y-110500000D03*
X207744600Y-110500000D03*
D13*
X208250000Y-126600000D03*
X208250000Y-124900000D03*
X206850000Y-118700000D03*
X208550000Y-118700000D03*
D23*
X207744600Y-112250000D03*
X205255400Y-112250000D03*
D13*
X208300000Y-123550000D03*
X208300000Y-121850000D03*
X196250000Y-119850000D03*
X196250000Y-118150000D03*
X202000000Y-118650000D03*
X202000000Y-120350000D03*
D20*
X205500000Y-126500000D03*
D13*
X202000000Y-121650000D03*
X202000000Y-123350000D03*
D16*
X205500000Y-121730000D03*
X204547500Y-124270000D03*
X206452500Y-124270000D03*
D15*
X218050000Y-88275000D03*
X218050000Y-87625000D03*
X218050000Y-86975000D03*
X218050000Y-86325000D03*
X218050000Y-85675000D03*
X218050000Y-85025000D03*
X218050000Y-84375000D03*
X218050000Y-83725000D03*
X223950000Y-83725000D03*
X223950000Y-84375000D03*
X223950000Y-85025000D03*
X223950000Y-85675000D03*
X223950000Y-86325000D03*
X223950000Y-86975000D03*
X223950000Y-87625000D03*
X223950000Y-88275000D03*
D13*
X220650000Y-90000000D03*
X222350000Y-90000000D03*
D15*
X218050000Y-96275000D03*
X218050000Y-95625000D03*
X218050000Y-94975000D03*
X218050000Y-94325000D03*
X218050000Y-93675000D03*
X218050000Y-93025000D03*
X218050000Y-92375000D03*
X218050000Y-91725000D03*
X223950000Y-91725000D03*
X223950000Y-92375000D03*
X223950000Y-93025000D03*
X223950000Y-93675000D03*
X223950000Y-94325000D03*
X223950000Y-94975000D03*
X223950000Y-95625000D03*
X223950000Y-96275000D03*
D13*
X224000000Y-106100000D03*
X224000000Y-104400000D03*
D14*
X223950000Y-98550000D03*
X223950000Y-99200000D03*
X223950000Y-99850000D03*
X223950000Y-100500000D03*
X223950000Y-101150000D03*
X223950000Y-101800000D03*
X223950000Y-102450000D03*
X218050000Y-102450000D03*
X218050000Y-101800000D03*
X218050000Y-101150000D03*
X218050000Y-100500000D03*
X218050000Y-99850000D03*
X218050000Y-99200000D03*
X218050000Y-98550000D03*
D13*
X222250000Y-106100000D03*
X222250000Y-104400000D03*
X208650000Y-104000000D03*
X210350000Y-104000000D03*
D21*
X222200000Y-107355400D03*
X222200000Y-109844600D03*
D13*
X220500000Y-104400000D03*
X220500000Y-106100000D03*
X218750000Y-104400000D03*
X218750000Y-106100000D03*
X215250000Y-104400000D03*
X215250000Y-106100000D03*
X217000000Y-104400000D03*
X217000000Y-106100000D03*
D24*
X223000000Y-121450000D03*
D25*
X224000000Y-124700000D03*
X222000000Y-124700000D03*
D13*
X223500000Y-118100000D03*
X223500000Y-116400000D03*
X218450000Y-121900000D03*
X220150000Y-121900000D03*
X221750000Y-116400000D03*
X221750000Y-118100000D03*
X216700000Y-123600000D03*
X216700000Y-121900000D03*
X216600000Y-131500000D03*
X214900000Y-131500000D03*
X213250000Y-126650000D03*
X213250000Y-128350000D03*
D23*
X214505400Y-130000000D03*
X216994600Y-130000000D03*
D16*
X215750000Y-125980000D03*
X214797500Y-128520000D03*
X216702500Y-128520000D03*
D13*
X219250000Y-131150000D03*
X219250000Y-132850000D03*
X213250000Y-125350000D03*
X213250000Y-123650000D03*
X213700000Y-113500000D03*
X215400000Y-113500000D03*
X213700000Y-115250000D03*
X215400000Y-115250000D03*
X216950000Y-115250000D03*
X218650000Y-115250000D03*
D17*
X213356000Y-118705400D03*
X213356000Y-118070400D03*
X213356000Y-117410000D03*
X213356000Y-116775000D03*
X218944000Y-116775000D03*
X218944000Y-117422700D03*
X218944000Y-118070400D03*
X218944000Y-118718100D03*
D13*
X215000000Y-123600000D03*
X215000000Y-121900000D03*
D22*
X211350000Y-100300000D03*
X211350000Y-101250000D03*
X211350000Y-102200000D03*
X209150000Y-102200000D03*
X209150000Y-100300000D03*
D13*
X213000000Y-97250000D03*
X213000000Y-95550000D03*
X209350000Y-94250000D03*
X207650000Y-94250000D03*
X206950000Y-98300000D03*
X208650000Y-98300000D03*
D18*
X213598420Y-83555000D03*
X213598420Y-84825000D03*
X213598420Y-86095000D03*
X213598420Y-87365000D03*
X213598420Y-88635000D03*
X213598420Y-89905000D03*
X213598420Y-91175000D03*
X213598420Y-92445000D03*
X208401580Y-92445000D03*
X208401580Y-91175000D03*
X208401580Y-89905000D03*
X208401580Y-88635000D03*
X208401580Y-87365000D03*
X208401580Y-86095000D03*
X208401580Y-84825000D03*
X208401580Y-83555000D03*
D13*
X198650000Y-93500000D03*
X200350000Y-93500000D03*
X198700000Y-101450000D03*
X198700000Y-99750000D03*
X198650000Y-95750000D03*
X200350000Y-95750000D03*
D26*
X202000000Y-100960000D03*
D27*
X202000000Y-103500000D03*
X202000000Y-106040000D03*
D13*
X200350000Y-98000000D03*
X198650000Y-98000000D03*
X197250000Y-91100000D03*
X197250000Y-89400000D03*
X199400000Y-86950000D03*
X199400000Y-85250000D03*
X197800000Y-85250000D03*
X197800000Y-86950000D03*
X203500000Y-83350000D03*
X203500000Y-85050000D03*
D28*
X192202440Y-89647700D03*
X192202440Y-89000000D03*
X192202440Y-88352300D03*
X193797560Y-88352300D03*
X193797560Y-89000000D03*
X193797560Y-89647700D03*
D21*
X195500000Y-91494600D03*
X195500000Y-89005400D03*
D13*
X190150000Y-97000000D03*
X191850000Y-97000000D03*
D20*
X196750000Y-98000000D03*
D17*
X190306000Y-95455400D03*
X190306000Y-94820400D03*
X190306000Y-94160000D03*
X190306000Y-93525000D03*
X195894000Y-93525000D03*
X195894000Y-94172700D03*
X195894000Y-94820400D03*
X195894000Y-95468100D03*
D28*
X192202440Y-92147700D03*
X192202440Y-91500000D03*
X192202440Y-90852300D03*
X193797560Y-90852300D03*
X193797560Y-91500000D03*
X193797560Y-92147700D03*
D13*
X194850000Y-97000000D03*
X193150000Y-97000000D03*
X186000000Y-93900000D03*
X186000000Y-95600000D03*
X186300000Y-90650000D03*
X186300000Y-92350000D03*
X187750000Y-95600000D03*
X187750000Y-93900000D03*
X189600000Y-90750000D03*
X187900000Y-90750000D03*
D24*
X194000000Y-99050000D03*
D25*
X195000000Y-102300000D03*
X193000000Y-102300000D03*
D21*
X185700000Y-99644600D03*
X185700000Y-97155400D03*
D13*
X187300000Y-101450000D03*
X187300000Y-99750000D03*
X191000000Y-99750000D03*
X191000000Y-101450000D03*
X189200000Y-99750000D03*
X189200000Y-101450000D03*
D14*
X188550000Y-84975000D03*
X188550000Y-84325000D03*
X188550000Y-83675000D03*
X188550000Y-83025000D03*
X192950000Y-83025000D03*
X192950000Y-83675000D03*
X192950000Y-84325000D03*
X192950000Y-84975000D03*
D13*
X185500000Y-81450000D03*
X185500000Y-83150000D03*
X195200000Y-85250000D03*
X195200000Y-86950000D03*
D29*
X188220500Y-87000000D03*
X190379500Y-87000000D03*
D30*
X191550000Y-87000000D03*
X187050000Y-87000000D03*
D16*
X270500000Y-121730000D03*
X269547500Y-124270000D03*
X271452500Y-124270000D03*
D13*
X273250000Y-126600000D03*
X273250000Y-124900000D03*
X267000000Y-121650000D03*
X267000000Y-123350000D03*
X273300000Y-123550000D03*
X273300000Y-121850000D03*
D20*
X270500000Y-126500000D03*
D13*
X267000000Y-118650000D03*
X267000000Y-120350000D03*
X271850000Y-118700000D03*
X273550000Y-118700000D03*
X295850000Y-101000000D03*
X294150000Y-101000000D03*
X297350000Y-101000000D03*
X299050000Y-101000000D03*
X300750000Y-101000000D03*
X302450000Y-101000000D03*
X305550000Y-108400000D03*
X303850000Y-108400000D03*
D32*
X297480000Y-110250000D03*
X300020000Y-111202500D03*
X300020000Y-109297500D03*
D13*
X300200000Y-113000000D03*
X298500000Y-113000000D03*
X301900000Y-108550000D03*
X301900000Y-106850000D03*
D16*
X280750000Y-125980000D03*
X279797500Y-128520000D03*
X281702500Y-128520000D03*
D13*
X278250000Y-126650000D03*
X278250000Y-128350000D03*
X281700000Y-123600000D03*
X281700000Y-121900000D03*
X280000000Y-123600000D03*
X280000000Y-121900000D03*
X278250000Y-125350000D03*
X278250000Y-123650000D03*
X283450000Y-121900000D03*
X285150000Y-121900000D03*
D17*
X278356000Y-118705400D03*
X278356000Y-118070400D03*
X278356000Y-117410000D03*
X278356000Y-116775000D03*
X283944000Y-116775000D03*
X283944000Y-117422700D03*
X283944000Y-118070400D03*
X283944000Y-118718100D03*
D24*
X288000000Y-121450000D03*
D25*
X289000000Y-124700000D03*
X287000000Y-124700000D03*
D23*
X297705400Y-117750000D03*
X300194600Y-117750000D03*
D13*
X298900000Y-119600900D03*
X298900000Y-121300900D03*
X288500000Y-118100000D03*
X288500000Y-116400000D03*
X300200000Y-114850000D03*
X298500000Y-114850000D03*
X286750000Y-116400000D03*
X286750000Y-118100000D03*
X302000000Y-121350000D03*
X302000000Y-119650000D03*
X282000000Y-104400000D03*
X282000000Y-106100000D03*
X281950000Y-115250000D03*
X283650000Y-115250000D03*
X280250000Y-104400000D03*
X280250000Y-106100000D03*
X278700000Y-113500000D03*
X280400000Y-113500000D03*
X278700000Y-115250000D03*
X280400000Y-115250000D03*
D21*
X287200000Y-107355400D03*
X287200000Y-109844600D03*
D13*
X283750000Y-104400000D03*
X283750000Y-106100000D03*
X287250000Y-106100000D03*
X287250000Y-104400000D03*
X285500000Y-104400000D03*
X285500000Y-106100000D03*
X289000000Y-106100000D03*
X289000000Y-104400000D03*
X288250000Y-168100000D03*
X288250000Y-166400000D03*
X288300000Y-169450000D03*
X288300000Y-171150000D03*
X289750000Y-166400000D03*
X289750000Y-168100000D03*
D16*
X292500000Y-161270000D03*
X293452500Y-158730000D03*
X291547500Y-158730000D03*
D13*
X285400000Y-163750000D03*
X287100000Y-163750000D03*
D16*
X286000000Y-157480000D03*
X285047500Y-160020000D03*
X286952500Y-160020000D03*
D13*
X286400000Y-161750000D03*
X288100000Y-161750000D03*
X290100000Y-157250000D03*
X288400000Y-157250000D03*
D29*
X297920500Y-159250000D03*
X300079500Y-159250000D03*
D13*
X293250000Y-154900000D03*
X293250000Y-156600000D03*
D33*
X308250000Y-165250000D03*
D34*
X310790000Y-165250000D03*
X308250000Y-162710000D03*
X310790000Y-162710000D03*
X308250000Y-160170000D03*
X310790000Y-160170000D03*
X308250000Y-157630000D03*
X310790000Y-157630000D03*
X308250000Y-155090000D03*
X310790000Y-155090000D03*
D13*
X295250000Y-163600000D03*
X295250000Y-161900000D03*
X293300000Y-163750000D03*
X293300000Y-165450000D03*
D32*
X300870000Y-164500000D03*
X298330000Y-163547500D03*
X298330000Y-165452500D03*
D35*
X310300000Y-168000000D03*
X308300000Y-168000000D03*
D36*
X307550360Y-171000000D03*
X311949640Y-171000000D03*
D37*
X296250000Y-179450000D03*
X296250000Y-175050000D03*
D13*
X302750000Y-179100000D03*
X302750000Y-177400000D03*
D38*
X296550000Y-152750000D03*
D25*
X299800000Y-151750000D03*
X299800000Y-153750000D03*
D21*
X295700000Y-150544600D03*
X295700000Y-148055400D03*
D13*
X298300000Y-145650000D03*
X298300000Y-147350000D03*
X295250000Y-146850000D03*
X295250000Y-145150000D03*
X226000000Y-151850000D03*
X226000000Y-150150000D03*
D18*
X218401580Y-155695000D03*
X218401580Y-154425000D03*
X218401580Y-153155000D03*
X218401580Y-151885000D03*
X218401580Y-150615000D03*
X218401580Y-149345000D03*
X218401580Y-148075000D03*
X218401580Y-146805000D03*
X223598420Y-146805000D03*
X223598420Y-148075000D03*
X223598420Y-149345000D03*
X223598420Y-150615000D03*
X223598420Y-151885000D03*
X223598420Y-153155000D03*
X223598420Y-154425000D03*
X223598420Y-155695000D03*
D13*
X228250000Y-154900000D03*
X228250000Y-156600000D03*
X227750000Y-151850000D03*
X227750000Y-150150000D03*
X219250000Y-135850000D03*
X219250000Y-134150000D03*
X220550000Y-137900000D03*
X218850000Y-137900000D03*
D17*
X218306000Y-144205400D03*
X218306000Y-143570400D03*
X218306000Y-142910000D03*
X218306000Y-142275000D03*
X223894000Y-142275000D03*
X223894000Y-142922700D03*
X223894000Y-143570400D03*
X223894000Y-144218100D03*
D13*
X219650000Y-140700000D03*
X217950000Y-140700000D03*
X225750000Y-144300000D03*
X227450000Y-144300000D03*
X230250000Y-146850000D03*
X230250000Y-145150000D03*
X227750000Y-148350000D03*
X227750000Y-146650000D03*
X225750000Y-140900000D03*
X227450000Y-140900000D03*
D36*
X245500000Y-148949640D03*
X245500000Y-144550360D03*
D37*
X245500000Y-141200000D03*
X245500000Y-136800000D03*
D13*
X238700000Y-145650000D03*
X238700000Y-147350000D03*
D21*
X230700000Y-150544600D03*
X230700000Y-148055400D03*
D38*
X231550000Y-152750000D03*
D25*
X234800000Y-151750000D03*
X234800000Y-153750000D03*
D16*
X235900000Y-148270000D03*
X236852500Y-145730000D03*
X234947500Y-145730000D03*
D13*
X233300000Y-145650000D03*
X233300000Y-147350000D03*
D36*
X242550360Y-171000000D03*
X246949640Y-171000000D03*
D33*
X243250000Y-165250000D03*
D34*
X245790000Y-165250000D03*
X243250000Y-162710000D03*
X245790000Y-162710000D03*
X243250000Y-160170000D03*
X245790000Y-160170000D03*
X243250000Y-157630000D03*
X245790000Y-157630000D03*
X243250000Y-155090000D03*
X245790000Y-155090000D03*
D35*
X245500000Y-151900000D03*
X243500000Y-151900000D03*
X245300000Y-168000000D03*
X243300000Y-168000000D03*
D29*
X232920500Y-159250000D03*
X235079500Y-159250000D03*
D13*
X230250000Y-163600000D03*
X230250000Y-161900000D03*
D32*
X235870000Y-164500000D03*
X233330000Y-163547500D03*
X233330000Y-165452500D03*
D13*
X228300000Y-163750000D03*
X228300000Y-165450000D03*
D17*
X213681000Y-168330400D03*
X213681000Y-167695400D03*
X213681000Y-167035000D03*
X213681000Y-166400000D03*
X219269000Y-166400000D03*
X219269000Y-167047700D03*
X219269000Y-167695400D03*
X219269000Y-168343100D03*
D13*
X217000000Y-169900000D03*
X217000000Y-171600000D03*
X215000000Y-171600000D03*
X215000000Y-169900000D03*
X223250000Y-168100000D03*
X223250000Y-166400000D03*
X221500000Y-166400000D03*
X221500000Y-168100000D03*
X221500000Y-169450000D03*
X221500000Y-171150000D03*
X223300000Y-169450000D03*
X223300000Y-171150000D03*
D37*
X231250000Y-179450000D03*
X231250000Y-175050000D03*
D13*
X224750000Y-166400000D03*
X224750000Y-168100000D03*
X237750000Y-179100000D03*
X237750000Y-177400000D03*
X221400000Y-161750000D03*
X223100000Y-161750000D03*
D16*
X221000000Y-157480000D03*
X220047500Y-160020000D03*
X221952500Y-160020000D03*
D13*
X220400000Y-163750000D03*
X222100000Y-163750000D03*
X225100000Y-157250000D03*
X223400000Y-157250000D03*
D16*
X227500000Y-161270000D03*
X228452500Y-158730000D03*
X226547500Y-158730000D03*
D13*
X219850000Y-161750000D03*
X218150000Y-161750000D03*
X189750000Y-167100000D03*
X189750000Y-165400000D03*
X187750000Y-165400000D03*
X187750000Y-167100000D03*
D27*
X192250000Y-177250000D03*
X197250000Y-177250000D03*
D29*
X193670500Y-177250000D03*
X195829500Y-177250000D03*
D16*
X192500000Y-168020000D03*
X193452500Y-165480000D03*
X191547500Y-165480000D03*
D13*
X196400000Y-173750000D03*
X198100000Y-173750000D03*
D38*
X203050000Y-174600000D03*
D25*
X199800000Y-175600000D03*
X199800000Y-173600000D03*
D32*
X195230000Y-167750000D03*
X197770000Y-168702500D03*
X197770000Y-166797500D03*
D13*
X199500000Y-171600000D03*
X199500000Y-169900000D03*
X199500000Y-168550000D03*
X199500000Y-166850000D03*
X201250000Y-171600000D03*
X201250000Y-169900000D03*
X193600000Y-180250000D03*
X191900000Y-180250000D03*
X189200000Y-183750000D03*
X189200000Y-182050000D03*
D12*
X186000000Y-184750000D03*
D13*
X201500000Y-181600000D03*
X201500000Y-179900000D03*
D17*
X192056000Y-183955400D03*
X192056000Y-183320400D03*
X192056000Y-182660000D03*
X192056000Y-182025000D03*
X197644000Y-182025000D03*
X197644000Y-182672700D03*
X197644000Y-183320400D03*
X197644000Y-183968100D03*
D13*
X199950000Y-183700000D03*
X201650000Y-183700000D03*
X197600000Y-180250000D03*
X195900000Y-180250000D03*
X207100000Y-160750000D03*
X205400000Y-160750000D03*
X203500000Y-165350000D03*
X203500000Y-163650000D03*
X211900000Y-163250000D03*
X213600000Y-163250000D03*
X201750000Y-165350000D03*
X201750000Y-163650000D03*
X211750000Y-166850000D03*
X211750000Y-165150000D03*
X207350000Y-167100000D03*
X209050000Y-167100000D03*
D32*
X210270000Y-163750000D03*
X207730000Y-162797500D03*
X207730000Y-164702500D03*
D29*
X202579500Y-158500000D03*
X200420500Y-158500000D03*
D13*
X195150000Y-158750000D03*
X196850000Y-158750000D03*
X200900000Y-156500000D03*
X202600000Y-156500000D03*
X202600000Y-160500000D03*
X200900000Y-160500000D03*
D23*
X215505400Y-165000000D03*
X217994600Y-165000000D03*
X217944600Y-163400000D03*
X215455400Y-163400000D03*
D13*
X217600000Y-159500000D03*
X215900000Y-159500000D03*
X210100000Y-160750000D03*
X208400000Y-160750000D03*
X210100000Y-158000000D03*
X208400000Y-158000000D03*
X211800000Y-158050000D03*
X213500000Y-158050000D03*
X211900000Y-160750000D03*
X213600000Y-160750000D03*
X215900000Y-157250000D03*
X217600000Y-157250000D03*
X260750000Y-149900000D03*
X262450000Y-149900000D03*
D38*
X268950000Y-145000000D03*
D25*
X265700000Y-146000000D03*
X265700000Y-144000000D03*
D13*
X267450000Y-147900000D03*
X265750000Y-147900000D03*
D16*
X261500000Y-145530000D03*
X260547500Y-148070000D03*
X262452500Y-148070000D03*
D13*
X265900000Y-156500000D03*
X267600000Y-156500000D03*
D32*
X271770000Y-155500000D03*
X269230000Y-154547500D03*
X269230000Y-156452500D03*
D29*
X267579500Y-158500000D03*
X265420500Y-158500000D03*
D13*
X260150000Y-158750000D03*
X261850000Y-158750000D03*
X267600000Y-160500000D03*
X265900000Y-160500000D03*
X253850000Y-156250000D03*
X252150000Y-156250000D03*
X254750000Y-167100000D03*
X254750000Y-165400000D03*
X252750000Y-165400000D03*
X252750000Y-167100000D03*
D29*
X255920500Y-156250000D03*
X258079500Y-156250000D03*
D16*
X257500000Y-168020000D03*
X258452500Y-165480000D03*
X256547500Y-165480000D03*
D28*
X276297560Y-145852300D03*
X276297560Y-146500000D03*
X276297560Y-147147700D03*
X274702440Y-147147700D03*
X274702440Y-146500000D03*
X274702440Y-145852300D03*
D13*
X276500000Y-142400000D03*
X276500000Y-144100000D03*
X272400000Y-145650000D03*
X272400000Y-147350000D03*
X268950000Y-142000000D03*
X270650000Y-142000000D03*
X274750000Y-144100000D03*
X274750000Y-142400000D03*
D32*
X275270000Y-163750000D03*
X272730000Y-162797500D03*
X272730000Y-164702500D03*
D13*
X272350000Y-167100000D03*
X274050000Y-167100000D03*
X272100000Y-160750000D03*
X270400000Y-160750000D03*
X275100000Y-160750000D03*
X273400000Y-160750000D03*
X275100000Y-158000000D03*
X273400000Y-158000000D03*
D12*
X251000000Y-184750000D03*
D13*
X254200000Y-183750000D03*
X254200000Y-182050000D03*
X258600000Y-180250000D03*
X256900000Y-180250000D03*
D27*
X257250000Y-177250000D03*
X262250000Y-177250000D03*
D29*
X258670500Y-177250000D03*
X260829500Y-177250000D03*
D17*
X257056000Y-183955400D03*
X257056000Y-183320400D03*
X257056000Y-182660000D03*
X257056000Y-182025000D03*
X262644000Y-182025000D03*
X262644000Y-182672700D03*
X262644000Y-183320400D03*
X262644000Y-183968100D03*
D13*
X276750000Y-166850000D03*
X276750000Y-165150000D03*
X280000000Y-171600000D03*
X280000000Y-169900000D03*
D17*
X278681000Y-168330400D03*
X278681000Y-167695400D03*
X278681000Y-167035000D03*
X278681000Y-166400000D03*
X284269000Y-166400000D03*
X284269000Y-167047700D03*
X284269000Y-167695400D03*
X284269000Y-168343100D03*
D13*
X286500000Y-169450000D03*
X286500000Y-171150000D03*
X286500000Y-166400000D03*
X286500000Y-168100000D03*
X282000000Y-169900000D03*
X282000000Y-171600000D03*
D23*
X280505400Y-165000000D03*
X282994600Y-165000000D03*
D32*
X260230000Y-167750000D03*
X262770000Y-168702500D03*
X262770000Y-166797500D03*
D13*
X266250000Y-171600000D03*
X266250000Y-169900000D03*
X264500000Y-168550000D03*
X264500000Y-166850000D03*
X264500000Y-171600000D03*
X264500000Y-169900000D03*
X266750000Y-165350000D03*
X266750000Y-163650000D03*
X268500000Y-165350000D03*
X268500000Y-163650000D03*
X261400000Y-173750000D03*
X263100000Y-173750000D03*
X264950000Y-183700000D03*
X266650000Y-183700000D03*
X262600000Y-180250000D03*
X260900000Y-180250000D03*
D38*
X268050000Y-174600000D03*
D25*
X264800000Y-175600000D03*
X264800000Y-173600000D03*
D13*
X266500000Y-181600000D03*
X266500000Y-179900000D03*
D23*
X282944600Y-163400000D03*
X280455400Y-163400000D03*
D13*
X276900000Y-163250000D03*
X278600000Y-163250000D03*
X284850000Y-161750000D03*
X283150000Y-161750000D03*
X280900000Y-157250000D03*
X282600000Y-157250000D03*
X276900000Y-160750000D03*
X278600000Y-160750000D03*
X276800000Y-158050000D03*
X278500000Y-158050000D03*
X282600000Y-159500000D03*
X280900000Y-159500000D03*
X216000000Y-151850000D03*
X216000000Y-150150000D03*
X214500000Y-148350000D03*
X214500000Y-146650000D03*
X214500000Y-151850000D03*
X214500000Y-150150000D03*
X209750000Y-144100000D03*
X209750000Y-142400000D03*
X211500000Y-142400000D03*
X211500000Y-144100000D03*
X216600000Y-142500000D03*
X214900000Y-142500000D03*
D28*
X211297560Y-145852300D03*
X211297560Y-146500000D03*
X211297560Y-147147700D03*
X209702440Y-147147700D03*
X209702440Y-146500000D03*
X209702440Y-145852300D03*
D32*
X206770000Y-155500000D03*
X204230000Y-154547500D03*
X204230000Y-156452500D03*
D13*
X202450000Y-147900000D03*
X200750000Y-147900000D03*
D38*
X203950000Y-145000000D03*
D25*
X200700000Y-146000000D03*
X200700000Y-144000000D03*
D13*
X203950000Y-142000000D03*
X205650000Y-142000000D03*
X207400000Y-145650000D03*
X207400000Y-147350000D03*
X213250000Y-133650000D03*
X213250000Y-135350000D03*
D39*
X215102300Y-133702440D03*
X215750000Y-133702440D03*
X216397700Y-133702440D03*
X216397700Y-135297560D03*
X215750000Y-135297560D03*
X215102300Y-135297560D03*
D13*
X213350000Y-140750000D03*
X211650000Y-140750000D03*
X214900000Y-137750000D03*
X216600000Y-137750000D03*
X211650000Y-137250000D03*
X213350000Y-137250000D03*
X214900000Y-140750000D03*
X216600000Y-140750000D03*
X188850000Y-156250000D03*
X187150000Y-156250000D03*
D16*
X196500000Y-145530000D03*
X195547500Y-148070000D03*
X197452500Y-148070000D03*
D29*
X190920500Y-156250000D03*
X193079500Y-156250000D03*
D13*
X195750000Y-149900000D03*
X197450000Y-149900000D03*
D39*
X280102300Y-133702440D03*
X280750000Y-133702440D03*
X281397700Y-133702440D03*
X281397700Y-135297560D03*
X280750000Y-135297560D03*
X280102300Y-135297560D03*
D13*
X278250000Y-133650000D03*
X278250000Y-135350000D03*
X284250000Y-131150000D03*
X284250000Y-132850000D03*
X281600000Y-131500000D03*
X279900000Y-131500000D03*
D23*
X279505400Y-130000000D03*
X281994600Y-130000000D03*
D13*
X279900000Y-137750000D03*
X281600000Y-137750000D03*
X279900000Y-140750000D03*
X281600000Y-140750000D03*
X284250000Y-135850000D03*
X284250000Y-134150000D03*
X276650000Y-137250000D03*
X278350000Y-137250000D03*
X284650000Y-140700000D03*
X282950000Y-140700000D03*
X278350000Y-140750000D03*
X276650000Y-140750000D03*
X279500000Y-148350000D03*
X279500000Y-146650000D03*
X279500000Y-151850000D03*
X279500000Y-150150000D03*
X281000000Y-151850000D03*
X281000000Y-150150000D03*
X292750000Y-148350000D03*
X292750000Y-146650000D03*
X291000000Y-151850000D03*
X291000000Y-150150000D03*
X292750000Y-151850000D03*
X292750000Y-150150000D03*
D18*
X283401580Y-155695000D03*
X283401580Y-154425000D03*
X283401580Y-153155000D03*
X283401580Y-151885000D03*
X283401580Y-150615000D03*
X283401580Y-149345000D03*
X283401580Y-148075000D03*
X283401580Y-146805000D03*
X288598420Y-146805000D03*
X288598420Y-148075000D03*
X288598420Y-149345000D03*
X288598420Y-150615000D03*
X288598420Y-151885000D03*
X288598420Y-153155000D03*
X288598420Y-154425000D03*
X288598420Y-155695000D03*
D35*
X310500000Y-151900000D03*
X308500000Y-151900000D03*
D36*
X310500000Y-148949640D03*
X310500000Y-144550360D03*
D13*
X304650000Y-131000000D03*
X306350000Y-131000000D03*
X303700000Y-145650000D03*
X303700000Y-147350000D03*
D16*
X300900000Y-148270000D03*
X301852500Y-145730000D03*
X299947500Y-145730000D03*
D13*
X297500000Y-128550000D03*
X297500000Y-130250000D03*
D37*
X310500000Y-141200000D03*
X310500000Y-136800000D03*
D13*
X285550000Y-137900000D03*
X283850000Y-137900000D03*
X281600000Y-142500000D03*
X279900000Y-142500000D03*
X290750000Y-140900000D03*
X292450000Y-140900000D03*
X290750000Y-144300000D03*
X292450000Y-144300000D03*
D17*
X283306000Y-144205400D03*
X283306000Y-143570400D03*
X283306000Y-142910000D03*
X283306000Y-142275000D03*
X288894000Y-142275000D03*
X288894000Y-142922700D03*
X288894000Y-143570400D03*
X288894000Y-144218100D03*
D25*
X229770000Y-96500000D03*
D40*
X227230000Y-96500000D03*
D25*
X229770000Y-91500000D03*
D40*
X227230000Y-91500000D03*
D25*
X229770000Y-81500000D03*
D40*
X227230000Y-81500000D03*
D41*
X237859238Y-104780570D03*
X242790666Y-105605808D03*
X232927810Y-103955332D03*
D25*
X229770000Y-86500000D03*
D40*
X227230000Y-86500000D03*
D25*
X204770000Y-86500000D03*
D40*
X202230000Y-86500000D03*
D25*
X204770000Y-91500000D03*
D40*
X202230000Y-91500000D03*
D25*
X204770000Y-81500000D03*
D40*
X202230000Y-81500000D03*
D41*
X194140762Y-104780570D03*
X199072190Y-103955332D03*
X189209334Y-105605808D03*
D25*
X191500000Y-106270000D03*
D40*
X191500000Y-103730000D03*
D25*
X204770000Y-96500000D03*
D40*
X202230000Y-96500000D03*
D25*
X256500000Y-106270000D03*
D40*
X256500000Y-103730000D03*
D25*
X269770000Y-96500000D03*
D40*
X267230000Y-96500000D03*
D25*
X269770000Y-91500000D03*
D40*
X267230000Y-91500000D03*
D41*
X259140762Y-104780570D03*
X264072190Y-103955332D03*
X254209334Y-105605808D03*
D25*
X269770000Y-81500000D03*
D40*
X267230000Y-81500000D03*
D25*
X269770000Y-86500000D03*
D40*
X267230000Y-86500000D03*
D25*
X240500000Y-106270000D03*
D40*
X240500000Y-103730000D03*
D41*
X302859238Y-104780570D03*
X307790666Y-105605808D03*
X297927810Y-103955332D03*
D25*
X294770000Y-81500000D03*
D40*
X292230000Y-81500000D03*
D25*
X294770000Y-96500000D03*
D40*
X292230000Y-96500000D03*
D25*
X305500000Y-106270000D03*
D40*
X305500000Y-103730000D03*
D25*
X294770000Y-91500000D03*
D40*
X292230000Y-91500000D03*
D25*
X294770000Y-86500000D03*
D40*
X292230000Y-86500000D03*
D41*
X298500000Y-169500000D03*
X303500000Y-169500000D03*
X293500000Y-169500000D03*
D42*
X274000000Y-183700000D03*
D43*
X274000000Y-174300000D03*
D44*
X269100000Y-179000000D03*
X277300000Y-179000000D03*
D42*
X288000000Y-183700000D03*
D43*
X288000000Y-174300000D03*
D44*
X283100000Y-179000000D03*
X291300000Y-179000000D03*
D42*
X305500000Y-183700000D03*
D43*
X305500000Y-174300000D03*
D44*
X300600000Y-179000000D03*
X308800000Y-179000000D03*
D45*
X275200000Y-153500000D03*
D46*
X265800000Y-153500000D03*
D47*
X270500000Y-158400000D03*
X270500000Y-150200000D03*
D41*
X256500000Y-163000000D03*
X251500000Y-163000000D03*
X261500000Y-163000000D03*
D42*
X223000000Y-183700000D03*
D43*
X223000000Y-174300000D03*
D44*
X218100000Y-179000000D03*
X226300000Y-179000000D03*
D42*
X240500000Y-183700000D03*
D43*
X240500000Y-174300000D03*
D44*
X235600000Y-179000000D03*
X243800000Y-179000000D03*
D41*
X233500000Y-169500000D03*
X238500000Y-169500000D03*
X228500000Y-169500000D03*
D45*
X261200000Y-153500000D03*
D46*
X251800000Y-153500000D03*
D47*
X256500000Y-158400000D03*
X256500000Y-150200000D03*
D42*
X209000000Y-183700000D03*
D43*
X209000000Y-174300000D03*
D44*
X204100000Y-179000000D03*
X212300000Y-179000000D03*
D45*
X196200000Y-153500000D03*
D46*
X186800000Y-153500000D03*
D47*
X191500000Y-158400000D03*
X191500000Y-150200000D03*
D45*
X210200000Y-153500000D03*
D46*
X200800000Y-153500000D03*
D47*
X205500000Y-158400000D03*
X205500000Y-150200000D03*
D41*
X191500000Y-163000000D03*
X186500000Y-163000000D03*
X196500000Y-163000000D03*
D45*
X265800000Y-133500000D03*
D46*
X275200000Y-133500000D03*
D47*
X270500000Y-128600000D03*
X270500000Y-136800000D03*
D45*
X265800000Y-113500000D03*
D46*
X275200000Y-113500000D03*
D47*
X270500000Y-108600000D03*
X270500000Y-116800000D03*
D27*
X301500000Y-123550000D03*
X298500000Y-123550000D03*
X295500000Y-123550000D03*
D48*
X305000000Y-123550000D03*
X292000000Y-123550000D03*
D45*
X286800000Y-113500000D03*
D46*
X296200000Y-113500000D03*
D47*
X291500000Y-108600000D03*
X291500000Y-116800000D03*
D45*
X300800000Y-133500000D03*
D46*
X310200000Y-133500000D03*
D47*
X305500000Y-128600000D03*
X305500000Y-136800000D03*
D42*
X291500000Y-138200000D03*
D43*
X291500000Y-128800000D03*
D44*
X286600000Y-133500000D03*
X294800000Y-133500000D03*
D49*
X308000000Y-116000000D03*
X303000000Y-116000000D03*
X303000000Y-111000000D03*
X308000000Y-111000000D03*
X254000000Y-111000000D03*
X259000000Y-111000000D03*
X259000000Y-116000000D03*
X254000000Y-116000000D03*
D45*
X251800000Y-133500000D03*
D46*
X261200000Y-133500000D03*
D47*
X256500000Y-128600000D03*
X256500000Y-136800000D03*
D45*
X221800000Y-113500000D03*
D46*
X231200000Y-113500000D03*
D47*
X226500000Y-108600000D03*
X226500000Y-116800000D03*
D49*
X243000000Y-116000000D03*
X238000000Y-116000000D03*
X238000000Y-111000000D03*
X243000000Y-111000000D03*
D27*
X236500000Y-123550000D03*
X233500000Y-123550000D03*
X230500000Y-123550000D03*
D48*
X240000000Y-123550000D03*
X227000000Y-123550000D03*
D42*
X226500000Y-138200000D03*
D43*
X226500000Y-128800000D03*
D44*
X221600000Y-133500000D03*
X229800000Y-133500000D03*
D45*
X235800000Y-133500000D03*
D46*
X245200000Y-133500000D03*
D47*
X240500000Y-128600000D03*
X240500000Y-136800000D03*
D45*
X200800000Y-133500000D03*
D46*
X210200000Y-133500000D03*
D47*
X205500000Y-128600000D03*
X205500000Y-136800000D03*
D45*
X200800000Y-113500000D03*
D46*
X210200000Y-113500000D03*
D47*
X205500000Y-108600000D03*
X205500000Y-116800000D03*
D49*
X189000000Y-111000000D03*
X194000000Y-111000000D03*
X194000000Y-116000000D03*
X189000000Y-116000000D03*
D45*
X186800000Y-133500000D03*
D46*
X196200000Y-133500000D03*
D47*
X191500000Y-128600000D03*
X191500000Y-136800000D03*
D13*
X143300000Y-123550000D03*
X143300000Y-121850000D03*
X143250000Y-126600000D03*
X143250000Y-124900000D03*
X148250000Y-126650000D03*
X148250000Y-128350000D03*
X148250000Y-125350000D03*
X148250000Y-123650000D03*
X141850000Y-118700000D03*
X143550000Y-118700000D03*
D24*
X158000000Y-121450000D03*
D25*
X159000000Y-124700000D03*
X157000000Y-124700000D03*
D13*
X151600000Y-131500000D03*
X149900000Y-131500000D03*
X151700000Y-123600000D03*
X151700000Y-121900000D03*
D23*
X149505400Y-130000000D03*
X151994600Y-130000000D03*
D13*
X150000000Y-123600000D03*
X150000000Y-121900000D03*
D16*
X150750000Y-125980000D03*
X149797500Y-128520000D03*
X151702500Y-128520000D03*
D13*
X154250000Y-131150000D03*
X154250000Y-132850000D03*
X153450000Y-121900000D03*
X155150000Y-121900000D03*
X174650000Y-131000000D03*
X176350000Y-131000000D03*
D23*
X167705400Y-117750000D03*
X170194600Y-117750000D03*
D13*
X167500000Y-128550000D03*
X167500000Y-130250000D03*
X168900000Y-119600900D03*
X168900000Y-121300900D03*
X172000000Y-121350000D03*
X172000000Y-119650000D03*
D23*
X142744600Y-112250000D03*
X140255400Y-112250000D03*
D17*
X148356000Y-118705400D03*
X148356000Y-118070400D03*
X148356000Y-117410000D03*
X148356000Y-116775000D03*
X153944000Y-116775000D03*
X153944000Y-117422700D03*
X153944000Y-118070400D03*
X153944000Y-118718100D03*
D13*
X158500000Y-118100000D03*
X158500000Y-116400000D03*
X151950000Y-115250000D03*
X153650000Y-115250000D03*
X156750000Y-116400000D03*
X156750000Y-118100000D03*
X148700000Y-113500000D03*
X150400000Y-113500000D03*
D23*
X140255400Y-110500000D03*
X142744600Y-110500000D03*
D13*
X148700000Y-115250000D03*
X150400000Y-115250000D03*
X170200000Y-113000000D03*
X168500000Y-113000000D03*
D32*
X167480000Y-110250000D03*
X170020000Y-111202500D03*
X170020000Y-109297500D03*
D13*
X175550000Y-108400000D03*
X173850000Y-108400000D03*
X170200000Y-114850000D03*
X168500000Y-114850000D03*
D22*
X146350000Y-100300000D03*
X146350000Y-101250000D03*
X146350000Y-102200000D03*
X144150000Y-102200000D03*
X144150000Y-100300000D03*
D13*
X143650000Y-104000000D03*
X145350000Y-104000000D03*
X150250000Y-104400000D03*
X150250000Y-106100000D03*
X148000000Y-97250000D03*
X148000000Y-95550000D03*
X141950000Y-98300000D03*
X143650000Y-98300000D03*
X144350000Y-94250000D03*
X142650000Y-94250000D03*
X133650000Y-93500000D03*
X135350000Y-93500000D03*
D18*
X148598420Y-83555000D03*
X148598420Y-84825000D03*
X148598420Y-86095000D03*
X148598420Y-87365000D03*
X148598420Y-88635000D03*
X148598420Y-89905000D03*
X148598420Y-91175000D03*
X148598420Y-92445000D03*
X143401580Y-92445000D03*
X143401580Y-91175000D03*
X143401580Y-89905000D03*
X143401580Y-88635000D03*
X143401580Y-87365000D03*
X143401580Y-86095000D03*
X143401580Y-84825000D03*
X143401580Y-83555000D03*
D13*
X132800000Y-85250000D03*
X132800000Y-86950000D03*
X132250000Y-91100000D03*
X132250000Y-89400000D03*
X134400000Y-86950000D03*
X134400000Y-85250000D03*
X138500000Y-83350000D03*
X138500000Y-85050000D03*
D24*
X129000000Y-99050000D03*
D25*
X130000000Y-102300000D03*
X128000000Y-102300000D03*
D13*
X126500000Y-109600000D03*
X126500000Y-107900000D03*
X129850000Y-97000000D03*
X128150000Y-97000000D03*
X125150000Y-97000000D03*
X126850000Y-97000000D03*
X122550000Y-108100000D03*
X124250000Y-108100000D03*
D21*
X130500000Y-91494600D03*
X130500000Y-89005400D03*
D28*
X127202440Y-92147700D03*
X127202440Y-91500000D03*
X127202440Y-90852300D03*
X128797560Y-90852300D03*
X128797560Y-91500000D03*
X128797560Y-92147700D03*
D13*
X130200000Y-85250000D03*
X130200000Y-86950000D03*
D28*
X127202440Y-89647700D03*
X127202440Y-89000000D03*
X127202440Y-88352300D03*
X128797560Y-88352300D03*
X128797560Y-89000000D03*
X128797560Y-89647700D03*
D13*
X135350000Y-98000000D03*
X133650000Y-98000000D03*
D26*
X137000000Y-100960000D03*
D27*
X137000000Y-103500000D03*
X137000000Y-106040000D03*
D13*
X133650000Y-95750000D03*
X135350000Y-95750000D03*
X133700000Y-101450000D03*
X133700000Y-99750000D03*
D20*
X131750000Y-98000000D03*
D17*
X125306000Y-95455400D03*
X125306000Y-94820400D03*
X125306000Y-94160000D03*
X125306000Y-93525000D03*
X130894000Y-93525000D03*
X130894000Y-94172700D03*
X130894000Y-94820400D03*
X130894000Y-95468100D03*
D13*
X121000000Y-93900000D03*
X121000000Y-95600000D03*
X124200000Y-99750000D03*
X124200000Y-101450000D03*
D21*
X120700000Y-99644600D03*
X120700000Y-97155400D03*
D13*
X122300000Y-101450000D03*
X122300000Y-99750000D03*
X126000000Y-99750000D03*
X126000000Y-101450000D03*
X122750000Y-95600000D03*
X122750000Y-93900000D03*
D29*
X123220500Y-87000000D03*
X125379500Y-87000000D03*
D30*
X126550000Y-87000000D03*
X122050000Y-87000000D03*
D13*
X124600000Y-90750000D03*
X122900000Y-90750000D03*
X121300000Y-90650000D03*
X121300000Y-92350000D03*
X120500000Y-81450000D03*
X120500000Y-83150000D03*
D14*
X123550000Y-84975000D03*
X123550000Y-84325000D03*
X123550000Y-83675000D03*
X123550000Y-83025000D03*
X127950000Y-83025000D03*
X127950000Y-83675000D03*
X127950000Y-84325000D03*
X127950000Y-84975000D03*
D13*
X145100000Y-160750000D03*
X143400000Y-160750000D03*
X150900000Y-157250000D03*
X152600000Y-157250000D03*
X145100000Y-158000000D03*
X143400000Y-158000000D03*
X146900000Y-163250000D03*
X148600000Y-163250000D03*
X146900000Y-160750000D03*
X148600000Y-160750000D03*
X146800000Y-158050000D03*
X148500000Y-158050000D03*
X142100000Y-160750000D03*
X140400000Y-160750000D03*
X136750000Y-165350000D03*
X136750000Y-163650000D03*
X138500000Y-165350000D03*
X138500000Y-163650000D03*
X142350000Y-167100000D03*
X144050000Y-167100000D03*
X146750000Y-166850000D03*
X146750000Y-165150000D03*
D32*
X145270000Y-163750000D03*
X142730000Y-162797500D03*
X142730000Y-164702500D03*
D12*
X121000000Y-184750000D03*
D13*
X128600000Y-180250000D03*
X126900000Y-180250000D03*
D27*
X127250000Y-177250000D03*
X132250000Y-177250000D03*
D29*
X128670500Y-177250000D03*
X130829500Y-177250000D03*
D13*
X132600000Y-180250000D03*
X130900000Y-180250000D03*
X124200000Y-183750000D03*
X124200000Y-182050000D03*
D17*
X127056000Y-183955400D03*
X127056000Y-183320400D03*
X127056000Y-182660000D03*
X127056000Y-182025000D03*
X132644000Y-182025000D03*
X132644000Y-182672700D03*
X132644000Y-183320400D03*
X132644000Y-183968100D03*
D29*
X125920500Y-156250000D03*
X128079500Y-156250000D03*
D13*
X130150000Y-158750000D03*
X131850000Y-158750000D03*
X123850000Y-156250000D03*
X122150000Y-156250000D03*
X137600000Y-160500000D03*
X135900000Y-160500000D03*
X135900000Y-156500000D03*
X137600000Y-156500000D03*
D29*
X137579500Y-158500000D03*
X135420500Y-158500000D03*
D17*
X148681000Y-168330400D03*
X148681000Y-167695400D03*
X148681000Y-167035000D03*
X148681000Y-166400000D03*
X154269000Y-166400000D03*
X154269000Y-167047700D03*
X154269000Y-167695400D03*
X154269000Y-168343100D03*
D23*
X152944600Y-163400000D03*
X150455400Y-163400000D03*
D13*
X152000000Y-169900000D03*
X152000000Y-171600000D03*
X150000000Y-171600000D03*
X150000000Y-169900000D03*
D23*
X150505400Y-165000000D03*
X152994600Y-165000000D03*
D13*
X131400000Y-173750000D03*
X133100000Y-173750000D03*
X134500000Y-168550000D03*
X134500000Y-166850000D03*
D32*
X130230000Y-167750000D03*
X132770000Y-168702500D03*
X132770000Y-166797500D03*
D13*
X122750000Y-165400000D03*
X122750000Y-167100000D03*
X124750000Y-167100000D03*
X124750000Y-165400000D03*
D16*
X127500000Y-168020000D03*
X128452500Y-165480000D03*
X126547500Y-165480000D03*
D38*
X138050000Y-174600000D03*
D25*
X134800000Y-175600000D03*
X134800000Y-173600000D03*
D13*
X134950000Y-183700000D03*
X136650000Y-183700000D03*
X136250000Y-171600000D03*
X136250000Y-169900000D03*
X134500000Y-171600000D03*
X134500000Y-169900000D03*
X136500000Y-181600000D03*
X136500000Y-179900000D03*
X155550000Y-137900000D03*
X153850000Y-137900000D03*
D39*
X150102300Y-133702440D03*
X150750000Y-133702440D03*
X151397700Y-133702440D03*
X151397700Y-135297560D03*
X150750000Y-135297560D03*
X150102300Y-135297560D03*
D13*
X154650000Y-140700000D03*
X152950000Y-140700000D03*
X154250000Y-135850000D03*
X154250000Y-134150000D03*
X137000000Y-118650000D03*
X137000000Y-120350000D03*
D17*
X134694000Y-121544600D03*
X134694000Y-122179600D03*
X134694000Y-122840000D03*
X134694000Y-123475000D03*
X129106000Y-123475000D03*
X129106000Y-122827300D03*
X129106000Y-122179600D03*
X129106000Y-121531900D03*
D20*
X140500000Y-126500000D03*
D31*
X126000000Y-123579500D03*
X126000000Y-121420500D03*
D13*
X131250000Y-119850000D03*
X131250000Y-118150000D03*
X137000000Y-121650000D03*
X137000000Y-123350000D03*
X131150000Y-125500000D03*
X132850000Y-125500000D03*
D16*
X140500000Y-121730000D03*
X139547500Y-124270000D03*
X141452500Y-124270000D03*
X131500000Y-145530000D03*
X130547500Y-148070000D03*
X132452500Y-148070000D03*
D38*
X138950000Y-145000000D03*
D25*
X135700000Y-146000000D03*
X135700000Y-144000000D03*
D13*
X137450000Y-147900000D03*
X135750000Y-147900000D03*
X130750000Y-149900000D03*
X132450000Y-149900000D03*
X149500000Y-148350000D03*
X149500000Y-146650000D03*
X151600000Y-142500000D03*
X149900000Y-142500000D03*
X151000000Y-151850000D03*
X151000000Y-150150000D03*
X149500000Y-151850000D03*
X149500000Y-150150000D03*
X149900000Y-137750000D03*
X151600000Y-137750000D03*
X149900000Y-140750000D03*
X151600000Y-140750000D03*
X146650000Y-137250000D03*
X148350000Y-137250000D03*
X148350000Y-140750000D03*
X146650000Y-140750000D03*
X148250000Y-133650000D03*
X148250000Y-135350000D03*
X142400000Y-145650000D03*
X142400000Y-147350000D03*
D28*
X146297560Y-145852300D03*
X146297560Y-146500000D03*
X146297560Y-147147700D03*
X144702440Y-147147700D03*
X144702440Y-146500000D03*
X144702440Y-145852300D03*
D13*
X146500000Y-142400000D03*
X146500000Y-144100000D03*
X138950000Y-142000000D03*
X140650000Y-142000000D03*
D32*
X141770000Y-155500000D03*
X139230000Y-154547500D03*
X139230000Y-156452500D03*
D13*
X144750000Y-144100000D03*
X144750000Y-142400000D03*
D35*
X180300000Y-168000000D03*
X178300000Y-168000000D03*
D36*
X177550360Y-171000000D03*
X181949640Y-171000000D03*
D32*
X170870000Y-164500000D03*
X168330000Y-163547500D03*
X168330000Y-165452500D03*
D33*
X178250000Y-165250000D03*
D34*
X180790000Y-165250000D03*
X178250000Y-162710000D03*
X180790000Y-162710000D03*
X178250000Y-160170000D03*
X180790000Y-160170000D03*
X178250000Y-157630000D03*
X180790000Y-157630000D03*
X178250000Y-155090000D03*
X180790000Y-155090000D03*
D29*
X167920500Y-159250000D03*
X170079500Y-159250000D03*
D13*
X155400000Y-163750000D03*
X157100000Y-163750000D03*
X156400000Y-161750000D03*
X158100000Y-161750000D03*
X154850000Y-161750000D03*
X153150000Y-161750000D03*
X160100000Y-157250000D03*
X158400000Y-157250000D03*
D16*
X156000000Y-157480000D03*
X155047500Y-160020000D03*
X156952500Y-160020000D03*
D13*
X152600000Y-159500000D03*
X150900000Y-159500000D03*
X163300000Y-163750000D03*
X163300000Y-165450000D03*
X165250000Y-163600000D03*
X165250000Y-161900000D03*
X163250000Y-154900000D03*
X163250000Y-156600000D03*
D16*
X162500000Y-161270000D03*
X163452500Y-158730000D03*
X161547500Y-158730000D03*
D13*
X160750000Y-140900000D03*
X162450000Y-140900000D03*
X162750000Y-148350000D03*
X162750000Y-146650000D03*
X165250000Y-146850000D03*
X165250000Y-145150000D03*
X160750000Y-144300000D03*
X162450000Y-144300000D03*
X172750000Y-179100000D03*
X172750000Y-177400000D03*
D37*
X166250000Y-179450000D03*
X166250000Y-175050000D03*
D13*
X158300000Y-169450000D03*
X158300000Y-171150000D03*
X159750000Y-166400000D03*
X159750000Y-168100000D03*
X158250000Y-168100000D03*
X158250000Y-166400000D03*
X156500000Y-169450000D03*
X156500000Y-171150000D03*
X156500000Y-166400000D03*
X156500000Y-168100000D03*
D35*
X180500000Y-151900000D03*
X178500000Y-151900000D03*
D16*
X170900000Y-148270000D03*
X171852500Y-145730000D03*
X169947500Y-145730000D03*
D36*
X180500000Y-148949640D03*
X180500000Y-144550360D03*
D13*
X173700000Y-145650000D03*
X173700000Y-147350000D03*
D37*
X180500000Y-141200000D03*
X180500000Y-136800000D03*
D38*
X166550000Y-152750000D03*
D25*
X169800000Y-151750000D03*
X169800000Y-153750000D03*
D18*
X153401580Y-155695000D03*
X153401580Y-154425000D03*
X153401580Y-153155000D03*
X153401580Y-151885000D03*
X153401580Y-150615000D03*
X153401580Y-149345000D03*
X153401580Y-148075000D03*
X153401580Y-146805000D03*
X158598420Y-146805000D03*
X158598420Y-148075000D03*
X158598420Y-149345000D03*
X158598420Y-150615000D03*
X158598420Y-151885000D03*
X158598420Y-153155000D03*
X158598420Y-154425000D03*
X158598420Y-155695000D03*
D13*
X161000000Y-151850000D03*
X161000000Y-150150000D03*
D21*
X165700000Y-150544600D03*
X165700000Y-148055400D03*
D13*
X162750000Y-151850000D03*
X162750000Y-150150000D03*
X168300000Y-145650000D03*
X168300000Y-147350000D03*
D17*
X153306000Y-144205400D03*
X153306000Y-143570400D03*
X153306000Y-142910000D03*
X153306000Y-142275000D03*
X158894000Y-142275000D03*
X158894000Y-142922700D03*
X158894000Y-143570400D03*
X158894000Y-144218100D03*
D15*
X153050000Y-96275000D03*
X153050000Y-95625000D03*
X153050000Y-94975000D03*
X153050000Y-94325000D03*
X153050000Y-93675000D03*
X153050000Y-93025000D03*
X153050000Y-92375000D03*
X153050000Y-91725000D03*
X158950000Y-91725000D03*
X158950000Y-92375000D03*
X158950000Y-93025000D03*
X158950000Y-93675000D03*
X158950000Y-94325000D03*
X158950000Y-94975000D03*
X158950000Y-95625000D03*
X158950000Y-96275000D03*
X153050000Y-88275000D03*
X153050000Y-87625000D03*
X153050000Y-86975000D03*
X153050000Y-86325000D03*
X153050000Y-85675000D03*
X153050000Y-85025000D03*
X153050000Y-84375000D03*
X153050000Y-83725000D03*
X158950000Y-83725000D03*
X158950000Y-84375000D03*
X158950000Y-85025000D03*
X158950000Y-85675000D03*
X158950000Y-86325000D03*
X158950000Y-86975000D03*
X158950000Y-87625000D03*
X158950000Y-88275000D03*
D13*
X155650000Y-90000000D03*
X157350000Y-90000000D03*
D14*
X158950000Y-98550000D03*
X158950000Y-99200000D03*
X158950000Y-99850000D03*
X158950000Y-100500000D03*
X158950000Y-101150000D03*
X158950000Y-101800000D03*
X158950000Y-102450000D03*
X153050000Y-102450000D03*
X153050000Y-101800000D03*
X153050000Y-101150000D03*
X153050000Y-100500000D03*
X153050000Y-99850000D03*
X153050000Y-99200000D03*
X153050000Y-98550000D03*
D16*
X174000000Y-93230000D03*
X173047500Y-95770000D03*
X174952500Y-95770000D03*
D13*
X169850000Y-93000000D03*
X168150000Y-93000000D03*
X176650000Y-95750000D03*
X178350000Y-95750000D03*
X176650000Y-94000000D03*
X178350000Y-94000000D03*
D12*
X181250000Y-82750000D03*
D19*
X181750000Y-86250000D03*
D13*
X178850000Y-88750000D03*
X177150000Y-88750000D03*
D18*
X173848420Y-82305000D03*
X173848420Y-83575000D03*
X173848420Y-84845000D03*
X173848420Y-86115000D03*
X173848420Y-87385000D03*
X173848420Y-88655000D03*
X173848420Y-89925000D03*
X173848420Y-91195000D03*
X168651580Y-91195000D03*
X168651580Y-89925000D03*
X168651580Y-88655000D03*
X168651580Y-87385000D03*
X168651580Y-86115000D03*
X168651580Y-84845000D03*
X168651580Y-83575000D03*
X168651580Y-82305000D03*
D13*
X178700000Y-83250000D03*
X178700000Y-81550000D03*
X178750000Y-84900000D03*
X177050000Y-84900000D03*
D20*
X180250000Y-91500000D03*
D17*
X171056000Y-99205400D03*
X171056000Y-98570400D03*
X171056000Y-97910000D03*
X171056000Y-97275000D03*
X176644000Y-97275000D03*
X176644000Y-97922700D03*
X176644000Y-98570400D03*
X176644000Y-99218100D03*
D13*
X179750000Y-97400000D03*
X179750000Y-99100000D03*
X177150000Y-101000000D03*
X178850000Y-101000000D03*
X174050000Y-101000000D03*
X175750000Y-101000000D03*
X170750000Y-101000000D03*
X172450000Y-101000000D03*
D21*
X180750000Y-100755400D03*
X180750000Y-103244600D03*
D13*
X171900000Y-108550000D03*
X171900000Y-106850000D03*
X167350000Y-96900000D03*
X169050000Y-96900000D03*
X160900000Y-104500000D03*
X162600000Y-104500000D03*
X167350000Y-101000000D03*
X169050000Y-101000000D03*
X165850000Y-101000000D03*
X164150000Y-101000000D03*
X160900000Y-101000000D03*
X162600000Y-101000000D03*
X165550000Y-98900000D03*
X167250000Y-98900000D03*
X160900000Y-102750000D03*
X162600000Y-102750000D03*
X152000000Y-104400000D03*
X152000000Y-106100000D03*
X157250000Y-106100000D03*
X157250000Y-104400000D03*
X159000000Y-106100000D03*
X159000000Y-104400000D03*
X153750000Y-104400000D03*
X153750000Y-106100000D03*
D21*
X157200000Y-107355400D03*
X157200000Y-109844600D03*
D13*
X155500000Y-104400000D03*
X155500000Y-106100000D03*
D41*
X129140762Y-104780570D03*
X134072190Y-103955332D03*
X124209334Y-105605808D03*
D25*
X139770000Y-81500000D03*
D40*
X137230000Y-81500000D03*
D25*
X126500000Y-106270000D03*
D40*
X126500000Y-103730000D03*
D45*
X135800000Y-113500000D03*
D46*
X145200000Y-113500000D03*
D47*
X140500000Y-108600000D03*
X140500000Y-116800000D03*
D25*
X139770000Y-96500000D03*
D40*
X137230000Y-96500000D03*
D25*
X139770000Y-91500000D03*
D40*
X137230000Y-91500000D03*
D25*
X139770000Y-86500000D03*
D40*
X137230000Y-86500000D03*
D41*
X126500000Y-163000000D03*
X121500000Y-163000000D03*
X131500000Y-163000000D03*
D45*
X131200000Y-153500000D03*
D46*
X121800000Y-153500000D03*
D47*
X126500000Y-158400000D03*
X126500000Y-150200000D03*
D41*
X168500000Y-169500000D03*
X173500000Y-169500000D03*
X163500000Y-169500000D03*
D42*
X175500000Y-183700000D03*
D43*
X175500000Y-174300000D03*
D44*
X170600000Y-179000000D03*
X178800000Y-179000000D03*
D42*
X158000000Y-183700000D03*
D43*
X158000000Y-174300000D03*
D44*
X153100000Y-179000000D03*
X161300000Y-179000000D03*
D42*
X144000000Y-183700000D03*
D43*
X144000000Y-174300000D03*
D44*
X139100000Y-179000000D03*
X147300000Y-179000000D03*
D45*
X145200000Y-153500000D03*
D46*
X135800000Y-153500000D03*
D47*
X140500000Y-158400000D03*
X140500000Y-150200000D03*
D27*
X171500000Y-123550000D03*
X168500000Y-123550000D03*
X165500000Y-123550000D03*
D48*
X175000000Y-123550000D03*
X162000000Y-123550000D03*
D45*
X121800000Y-133500000D03*
D46*
X131200000Y-133500000D03*
D47*
X126500000Y-128600000D03*
X126500000Y-136800000D03*
D45*
X135800000Y-133500000D03*
D46*
X145200000Y-133500000D03*
D47*
X140500000Y-128600000D03*
X140500000Y-136800000D03*
D45*
X170800000Y-133500000D03*
D46*
X180200000Y-133500000D03*
D47*
X175500000Y-128600000D03*
X175500000Y-136800000D03*
D49*
X178000000Y-116000000D03*
X173000000Y-116000000D03*
X173000000Y-111000000D03*
X178000000Y-111000000D03*
X124000000Y-111000000D03*
X129000000Y-111000000D03*
X129000000Y-116000000D03*
X124000000Y-116000000D03*
D45*
X156800000Y-113500000D03*
D46*
X166200000Y-113500000D03*
D47*
X161500000Y-108600000D03*
X161500000Y-116800000D03*
D42*
X161500000Y-138200000D03*
D43*
X161500000Y-128800000D03*
D44*
X156600000Y-133500000D03*
X164800000Y-133500000D03*
D25*
X164770000Y-96500000D03*
D40*
X162230000Y-96500000D03*
D25*
X175500000Y-106270000D03*
D40*
X175500000Y-103730000D03*
D25*
X164770000Y-86500000D03*
D40*
X162230000Y-86500000D03*
D25*
X164770000Y-81500000D03*
D40*
X162230000Y-81500000D03*
D41*
X172859238Y-104780570D03*
X177790666Y-105605808D03*
X167927810Y-103955332D03*
D25*
X164770000Y-91500000D03*
D40*
X162230000Y-91500000D03*
D13*
X103900000Y-119600900D03*
X103900000Y-121300900D03*
D41*
X107859238Y-104780570D03*
X112790666Y-105605808D03*
X102927810Y-103955332D03*
D42*
X96500000Y-138200000D03*
D43*
X96500000Y-128800000D03*
D44*
X91600000Y-133500000D03*
X99800000Y-133500000D03*
D39*
X85102300Y-133702440D03*
X85750000Y-133702440D03*
X86397700Y-133702440D03*
X86397700Y-135297560D03*
X85750000Y-135297560D03*
X85102300Y-135297560D03*
D28*
X81297560Y-145852300D03*
X81297560Y-146500000D03*
X81297560Y-147147700D03*
X79702440Y-147147700D03*
X79702440Y-146500000D03*
X79702440Y-145852300D03*
X62202440Y-89647700D03*
X62202440Y-89000000D03*
X62202440Y-88352300D03*
X63797560Y-88352300D03*
X63797560Y-89000000D03*
X63797560Y-89647700D03*
X62202440Y-92147700D03*
X62202440Y-91500000D03*
X62202440Y-90852300D03*
X63797560Y-90852300D03*
X63797560Y-91500000D03*
X63797560Y-92147700D03*
D45*
X80200000Y-153500000D03*
D46*
X70800000Y-153500000D03*
D47*
X75500000Y-158400000D03*
X75500000Y-150200000D03*
D14*
X93950000Y-98550000D03*
X93950000Y-99200000D03*
X93950000Y-99850000D03*
X93950000Y-100500000D03*
X93950000Y-101150000D03*
X93950000Y-101800000D03*
X93950000Y-102450000D03*
X88050000Y-102450000D03*
X88050000Y-101800000D03*
X88050000Y-101150000D03*
X88050000Y-100500000D03*
X88050000Y-99850000D03*
X88050000Y-99200000D03*
X88050000Y-98550000D03*
D13*
X81800000Y-158050000D03*
X83500000Y-158050000D03*
X65200000Y-85250000D03*
X65200000Y-86950000D03*
X61000000Y-99750000D03*
X61000000Y-101450000D03*
X55500000Y-81450000D03*
X55500000Y-83150000D03*
X56300000Y-90650000D03*
X56300000Y-92350000D03*
X110550000Y-108400000D03*
X108850000Y-108400000D03*
X102350000Y-96900000D03*
X104050000Y-96900000D03*
X81750000Y-166850000D03*
X81750000Y-165150000D03*
X102500000Y-128550000D03*
X102500000Y-130250000D03*
X76850000Y-118700000D03*
X78550000Y-118700000D03*
X95750000Y-144300000D03*
X97450000Y-144300000D03*
X89650000Y-140700000D03*
X87950000Y-140700000D03*
X89250000Y-131150000D03*
X89250000Y-132850000D03*
X91500000Y-169450000D03*
X91500000Y-171150000D03*
X77350000Y-167100000D03*
X79050000Y-167100000D03*
X100250000Y-146850000D03*
X100250000Y-145150000D03*
X69950000Y-183700000D03*
X71650000Y-183700000D03*
X59200000Y-183750000D03*
X59200000Y-182050000D03*
X73500000Y-165350000D03*
X73500000Y-163650000D03*
X69500000Y-171600000D03*
X69500000Y-169900000D03*
X73500000Y-83350000D03*
X73500000Y-85050000D03*
X113750000Y-84900000D03*
X112050000Y-84900000D03*
X87600000Y-159500000D03*
X85900000Y-159500000D03*
X93250000Y-168100000D03*
X93250000Y-166400000D03*
X57300000Y-101450000D03*
X57300000Y-99750000D03*
X70350000Y-98000000D03*
X68650000Y-98000000D03*
X113700000Y-83250000D03*
X113700000Y-81550000D03*
X90650000Y-90000000D03*
X92350000Y-90000000D03*
X76950000Y-98300000D03*
X78650000Y-98300000D03*
X87000000Y-104400000D03*
X87000000Y-106100000D03*
X95900000Y-101000000D03*
X97600000Y-101000000D03*
X94000000Y-106100000D03*
X94000000Y-104400000D03*
D23*
X84505400Y-130000000D03*
X86994600Y-130000000D03*
D21*
X100700000Y-150544600D03*
X100700000Y-148055400D03*
D36*
X115500000Y-148949640D03*
X115500000Y-144550360D03*
X112550360Y-171000000D03*
X116949640Y-171000000D03*
D23*
X87944600Y-163400000D03*
X85455400Y-163400000D03*
X85505400Y-165000000D03*
X87994600Y-165000000D03*
D21*
X115750000Y-100755400D03*
X115750000Y-103244600D03*
D23*
X102705400Y-117750000D03*
X105194600Y-117750000D03*
D25*
X61500000Y-106270000D03*
D40*
X61500000Y-103730000D03*
D25*
X110500000Y-106270000D03*
D40*
X110500000Y-103730000D03*
D21*
X55700000Y-99644600D03*
X55700000Y-97155400D03*
X65500000Y-91494600D03*
X65500000Y-89005400D03*
D25*
X74770000Y-81500000D03*
D40*
X72230000Y-81500000D03*
D25*
X74770000Y-86500000D03*
D40*
X72230000Y-86500000D03*
D25*
X74770000Y-91500000D03*
D40*
X72230000Y-91500000D03*
D25*
X74770000Y-96500000D03*
D40*
X72230000Y-96500000D03*
D25*
X99770000Y-81500000D03*
D40*
X97230000Y-81500000D03*
D25*
X99770000Y-86500000D03*
D40*
X97230000Y-86500000D03*
D25*
X99770000Y-91500000D03*
D40*
X97230000Y-91500000D03*
D25*
X99770000Y-96500000D03*
D40*
X97230000Y-96500000D03*
D21*
X92200000Y-107355400D03*
X92200000Y-109844600D03*
D45*
X91800000Y-113500000D03*
D46*
X101200000Y-113500000D03*
D47*
X96500000Y-108600000D03*
X96500000Y-116800000D03*
D45*
X66200000Y-153500000D03*
D46*
X56800000Y-153500000D03*
D47*
X61500000Y-158400000D03*
X61500000Y-150200000D03*
D45*
X105800000Y-133500000D03*
D46*
X115200000Y-133500000D03*
D47*
X110500000Y-128600000D03*
X110500000Y-136800000D03*
D45*
X70800000Y-133500000D03*
D46*
X80200000Y-133500000D03*
D47*
X75500000Y-128600000D03*
X75500000Y-136800000D03*
D45*
X70800000Y-113500000D03*
D46*
X80200000Y-113500000D03*
D47*
X75500000Y-108600000D03*
X75500000Y-116800000D03*
D45*
X56800000Y-133500000D03*
D46*
X66200000Y-133500000D03*
D47*
X61500000Y-128600000D03*
X61500000Y-136800000D03*
D42*
X79000000Y-183700000D03*
D43*
X79000000Y-174300000D03*
D44*
X74100000Y-179000000D03*
X82300000Y-179000000D03*
D42*
X93000000Y-183700000D03*
D43*
X93000000Y-174300000D03*
D44*
X88100000Y-179000000D03*
X96300000Y-179000000D03*
D42*
X110500000Y-183700000D03*
D43*
X110500000Y-174300000D03*
D44*
X105600000Y-179000000D03*
X113800000Y-179000000D03*
D33*
X113250000Y-165250000D03*
D34*
X115790000Y-165250000D03*
X113250000Y-162710000D03*
X115790000Y-162710000D03*
X113250000Y-160170000D03*
X115790000Y-160170000D03*
X113250000Y-157630000D03*
X115790000Y-157630000D03*
X113250000Y-155090000D03*
X115790000Y-155090000D03*
D32*
X76770000Y-155500000D03*
X74230000Y-154547500D03*
X74230000Y-156452500D03*
X80270000Y-163750000D03*
X77730000Y-162797500D03*
X77730000Y-164702500D03*
X65230000Y-167750000D03*
X67770000Y-168702500D03*
X67770000Y-166797500D03*
D16*
X105900000Y-148270000D03*
X106852500Y-145730000D03*
X104947500Y-145730000D03*
X62500000Y-168020000D03*
X63452500Y-165480000D03*
X61547500Y-165480000D03*
X85750000Y-125980000D03*
X84797500Y-128520000D03*
X86702500Y-128520000D03*
D32*
X105870000Y-164500000D03*
X103330000Y-163547500D03*
X103330000Y-165452500D03*
D16*
X97500000Y-161270000D03*
X98452500Y-158730000D03*
X96547500Y-158730000D03*
X91000000Y-157480000D03*
X90047500Y-160020000D03*
X91952500Y-160020000D03*
X109000000Y-93230000D03*
X108047500Y-95770000D03*
X109952500Y-95770000D03*
X75500000Y-121730000D03*
X74547500Y-124270000D03*
X76452500Y-124270000D03*
D32*
X102480000Y-110250000D03*
X105020000Y-111202500D03*
X105020000Y-109297500D03*
D13*
X107000000Y-121350000D03*
X107000000Y-119650000D03*
X73950000Y-142000000D03*
X75650000Y-142000000D03*
X81900000Y-160750000D03*
X83600000Y-160750000D03*
X81650000Y-137250000D03*
X83350000Y-137250000D03*
X80100000Y-160750000D03*
X78400000Y-160750000D03*
X80100000Y-158000000D03*
X78400000Y-158000000D03*
X84900000Y-140750000D03*
X86600000Y-140750000D03*
X66400000Y-173750000D03*
X68100000Y-173750000D03*
X81900000Y-163250000D03*
X83600000Y-163250000D03*
X77100000Y-160750000D03*
X75400000Y-160750000D03*
X86600000Y-142500000D03*
X84900000Y-142500000D03*
X83350000Y-140750000D03*
X81650000Y-140750000D03*
X85000000Y-171600000D03*
X85000000Y-169900000D03*
X87000000Y-169900000D03*
X87000000Y-171600000D03*
X89250000Y-135850000D03*
X89250000Y-134150000D03*
X71250000Y-171600000D03*
X71250000Y-169900000D03*
X81500000Y-142400000D03*
X81500000Y-144100000D03*
X79750000Y-144100000D03*
X79750000Y-142400000D03*
X69500000Y-168550000D03*
X69500000Y-166850000D03*
X86600000Y-131500000D03*
X84900000Y-131500000D03*
X72450000Y-147900000D03*
X70750000Y-147900000D03*
X103300000Y-145650000D03*
X103300000Y-147350000D03*
X71750000Y-165350000D03*
X71750000Y-163650000D03*
X83250000Y-133650000D03*
X83250000Y-135350000D03*
X59750000Y-167100000D03*
X59750000Y-165400000D03*
X70900000Y-156500000D03*
X72600000Y-156500000D03*
X84900000Y-137750000D03*
X86600000Y-137750000D03*
X57750000Y-165400000D03*
X57750000Y-167100000D03*
X85900000Y-157250000D03*
X87600000Y-157250000D03*
X108700000Y-145650000D03*
X108700000Y-147350000D03*
X65150000Y-158750000D03*
X66850000Y-158750000D03*
X90550000Y-137900000D03*
X88850000Y-137900000D03*
X84500000Y-148350000D03*
X84500000Y-146650000D03*
X98300000Y-163750000D03*
X98300000Y-165450000D03*
X86700000Y-123600000D03*
X86700000Y-121900000D03*
X84500000Y-151850000D03*
X84500000Y-150150000D03*
X72600000Y-160500000D03*
X70900000Y-160500000D03*
X58850000Y-156250000D03*
X57150000Y-156250000D03*
X86000000Y-151850000D03*
X86000000Y-150150000D03*
X100250000Y-163600000D03*
X100250000Y-161900000D03*
X98250000Y-154900000D03*
X98250000Y-156600000D03*
X97750000Y-148350000D03*
X97750000Y-146650000D03*
X97750000Y-151850000D03*
X97750000Y-150150000D03*
X96000000Y-151850000D03*
X96000000Y-150150000D03*
X95100000Y-157250000D03*
X93400000Y-157250000D03*
X83250000Y-125350000D03*
X83250000Y-123650000D03*
X83250000Y-126650000D03*
X83250000Y-128350000D03*
X85000000Y-123600000D03*
X85000000Y-121900000D03*
X83700000Y-113500000D03*
X85400000Y-113500000D03*
X93500000Y-118100000D03*
X93500000Y-116400000D03*
X100850000Y-101000000D03*
X99150000Y-101000000D03*
X66150000Y-125500000D03*
X67850000Y-125500000D03*
X72000000Y-121650000D03*
X72000000Y-123350000D03*
X89850000Y-161750000D03*
X88150000Y-161750000D03*
X95750000Y-140900000D03*
X97450000Y-140900000D03*
X102350000Y-101000000D03*
X104050000Y-101000000D03*
X100550000Y-98900000D03*
X102250000Y-98900000D03*
X57550000Y-108100000D03*
X59250000Y-108100000D03*
X94750000Y-166400000D03*
X94750000Y-168100000D03*
X83700000Y-115250000D03*
X85400000Y-115250000D03*
X66250000Y-119850000D03*
X66250000Y-118150000D03*
X111650000Y-94000000D03*
X113350000Y-94000000D03*
X88450000Y-121900000D03*
X90150000Y-121900000D03*
X105750000Y-101000000D03*
X107450000Y-101000000D03*
X91500000Y-166400000D03*
X91500000Y-168100000D03*
X86950000Y-115250000D03*
X88650000Y-115250000D03*
X109650000Y-131000000D03*
X111350000Y-131000000D03*
X91750000Y-116400000D03*
X91750000Y-118100000D03*
X91400000Y-161750000D03*
X93100000Y-161750000D03*
X93300000Y-169450000D03*
X93300000Y-171150000D03*
X109050000Y-101000000D03*
X110750000Y-101000000D03*
X111650000Y-95750000D03*
X113350000Y-95750000D03*
X112150000Y-101000000D03*
X113850000Y-101000000D03*
X78250000Y-126600000D03*
X78250000Y-124900000D03*
X114750000Y-97400000D03*
X114750000Y-99100000D03*
X61500000Y-109600000D03*
X61500000Y-107900000D03*
X105200000Y-113000000D03*
X103500000Y-113000000D03*
X105200000Y-114850000D03*
X103500000Y-114850000D03*
X106900000Y-108550000D03*
X106900000Y-106850000D03*
X113850000Y-88750000D03*
X112150000Y-88750000D03*
X60150000Y-97000000D03*
X61850000Y-97000000D03*
X59200000Y-99750000D03*
X59200000Y-101450000D03*
X57750000Y-95600000D03*
X57750000Y-93900000D03*
X56000000Y-93900000D03*
X56000000Y-95600000D03*
X67800000Y-85250000D03*
X67800000Y-86950000D03*
X59600000Y-90750000D03*
X57900000Y-90750000D03*
X67250000Y-91100000D03*
X67250000Y-89400000D03*
X69400000Y-86950000D03*
X69400000Y-85250000D03*
X64850000Y-97000000D03*
X63150000Y-97000000D03*
X79350000Y-94250000D03*
X77650000Y-94250000D03*
X104850000Y-93000000D03*
X103150000Y-93000000D03*
X68650000Y-95750000D03*
X70350000Y-95750000D03*
X71500000Y-181600000D03*
X71500000Y-179900000D03*
X88750000Y-104400000D03*
X88750000Y-106100000D03*
X90500000Y-104400000D03*
X90500000Y-106100000D03*
X95900000Y-102750000D03*
X97600000Y-102750000D03*
X67600000Y-180250000D03*
X65900000Y-180250000D03*
X92250000Y-106100000D03*
X92250000Y-104400000D03*
X85250000Y-104400000D03*
X85250000Y-106100000D03*
X95900000Y-104500000D03*
X97600000Y-104500000D03*
X63600000Y-180250000D03*
X61900000Y-180250000D03*
D49*
X59000000Y-111000000D03*
X64000000Y-111000000D03*
X64000000Y-116000000D03*
X59000000Y-116000000D03*
X113000000Y-116000000D03*
X108000000Y-116000000D03*
X108000000Y-111000000D03*
X113000000Y-111000000D03*
D19*
X116750000Y-86250000D03*
D18*
X88401580Y-155695000D03*
X88401580Y-154425000D03*
X88401580Y-153155000D03*
X88401580Y-151885000D03*
X88401580Y-150615000D03*
X88401580Y-149345000D03*
X88401580Y-148075000D03*
X88401580Y-146805000D03*
X93598420Y-146805000D03*
X93598420Y-148075000D03*
X93598420Y-149345000D03*
X93598420Y-150615000D03*
X93598420Y-151885000D03*
X93598420Y-153155000D03*
X93598420Y-154425000D03*
X93598420Y-155695000D03*
D15*
X88050000Y-88275000D03*
X88050000Y-87625000D03*
X88050000Y-86975000D03*
X88050000Y-86325000D03*
X88050000Y-85675000D03*
X88050000Y-85025000D03*
X88050000Y-84375000D03*
X88050000Y-83725000D03*
X93950000Y-83725000D03*
X93950000Y-84375000D03*
X93950000Y-85025000D03*
X93950000Y-85675000D03*
X93950000Y-86325000D03*
X93950000Y-86975000D03*
X93950000Y-87625000D03*
X93950000Y-88275000D03*
X88050000Y-96275000D03*
X88050000Y-95625000D03*
X88050000Y-94975000D03*
X88050000Y-94325000D03*
X88050000Y-93675000D03*
X88050000Y-93025000D03*
X88050000Y-92375000D03*
X88050000Y-91725000D03*
X93950000Y-91725000D03*
X93950000Y-92375000D03*
X93950000Y-93025000D03*
X93950000Y-93675000D03*
X93950000Y-94325000D03*
X93950000Y-94975000D03*
X93950000Y-95625000D03*
X93950000Y-96275000D03*
D14*
X58550000Y-84975000D03*
X58550000Y-84325000D03*
X58550000Y-83675000D03*
X58550000Y-83025000D03*
X62950000Y-83025000D03*
X62950000Y-83675000D03*
X62950000Y-84325000D03*
X62950000Y-84975000D03*
D18*
X83598420Y-83555000D03*
X83598420Y-84825000D03*
X83598420Y-86095000D03*
X83598420Y-87365000D03*
X83598420Y-88635000D03*
X83598420Y-89905000D03*
X83598420Y-91175000D03*
X83598420Y-92445000D03*
X78401580Y-92445000D03*
X78401580Y-91175000D03*
X78401580Y-89905000D03*
X78401580Y-88635000D03*
X78401580Y-87365000D03*
X78401580Y-86095000D03*
X78401580Y-84825000D03*
X78401580Y-83555000D03*
X108848420Y-82305000D03*
X108848420Y-83575000D03*
X108848420Y-84845000D03*
X108848420Y-86115000D03*
X108848420Y-87385000D03*
X108848420Y-88655000D03*
X108848420Y-89925000D03*
X108848420Y-91195000D03*
X103651580Y-91195000D03*
X103651580Y-89925000D03*
X103651580Y-88655000D03*
X103651580Y-87385000D03*
X103651580Y-86115000D03*
X103651580Y-84845000D03*
X103651580Y-83575000D03*
X103651580Y-82305000D03*
D29*
X72579500Y-158500000D03*
X70420500Y-158500000D03*
X60920500Y-156250000D03*
X63079500Y-156250000D03*
D27*
X62250000Y-177250000D03*
X67250000Y-177250000D03*
D29*
X63670500Y-177250000D03*
X65829500Y-177250000D03*
D31*
X61000000Y-123579500D03*
X61000000Y-121420500D03*
D41*
X103500000Y-169500000D03*
X108500000Y-169500000D03*
X98500000Y-169500000D03*
X64140762Y-104780570D03*
X69072190Y-103955332D03*
X59209334Y-105605808D03*
X61500000Y-163000000D03*
X56500000Y-163000000D03*
X66500000Y-163000000D03*
D17*
X62056000Y-183955400D03*
X62056000Y-183320400D03*
X62056000Y-182660000D03*
X62056000Y-182025000D03*
X67644000Y-182025000D03*
X67644000Y-182672700D03*
X67644000Y-183320400D03*
X67644000Y-183968100D03*
X60306000Y-95455400D03*
X60306000Y-94820400D03*
X60306000Y-94160000D03*
X60306000Y-93525000D03*
X65894000Y-93525000D03*
X65894000Y-94172700D03*
X65894000Y-94820400D03*
X65894000Y-95468100D03*
X69694000Y-121544600D03*
X69694000Y-122179600D03*
X69694000Y-122840000D03*
X69694000Y-123475000D03*
X64106000Y-123475000D03*
X64106000Y-122827300D03*
X64106000Y-122179600D03*
X64106000Y-121531900D03*
X83681000Y-168330400D03*
X83681000Y-167695400D03*
X83681000Y-167035000D03*
X83681000Y-166400000D03*
X89269000Y-166400000D03*
X89269000Y-167047700D03*
X89269000Y-167695400D03*
X89269000Y-168343100D03*
X88306000Y-144205400D03*
X88306000Y-143570400D03*
X88306000Y-142910000D03*
X88306000Y-142275000D03*
X93894000Y-142275000D03*
X93894000Y-142922700D03*
X93894000Y-143570400D03*
X93894000Y-144218100D03*
X83356000Y-118705400D03*
X83356000Y-118070400D03*
X83356000Y-117410000D03*
X83356000Y-116775000D03*
X88944000Y-116775000D03*
X88944000Y-117422700D03*
X88944000Y-118070400D03*
X88944000Y-118718100D03*
X106056000Y-99205400D03*
X106056000Y-98570400D03*
X106056000Y-97910000D03*
X106056000Y-97275000D03*
X111644000Y-97275000D03*
X111644000Y-97922700D03*
X111644000Y-98570400D03*
X111644000Y-99218100D03*
D37*
X115500000Y-141200000D03*
X115500000Y-136800000D03*
X101250000Y-179450000D03*
X101250000Y-175050000D03*
D23*
X75255400Y-110500000D03*
X77744600Y-110500000D03*
X77744600Y-112250000D03*
X75255400Y-112250000D03*
D13*
X90400000Y-163750000D03*
X92100000Y-163750000D03*
D20*
X115250000Y-91500000D03*
X66750000Y-98000000D03*
D38*
X73050000Y-174600000D03*
D25*
X69800000Y-175600000D03*
X69800000Y-173600000D03*
D38*
X73950000Y-145000000D03*
D25*
X70700000Y-146000000D03*
X70700000Y-144000000D03*
D38*
X101550000Y-152750000D03*
D25*
X104800000Y-151750000D03*
X104800000Y-153750000D03*
D24*
X93000000Y-121450000D03*
D25*
X94000000Y-124700000D03*
X92000000Y-124700000D03*
D24*
X64000000Y-99050000D03*
D25*
X65000000Y-102300000D03*
X63000000Y-102300000D03*
D20*
X75500000Y-126500000D03*
D26*
X72000000Y-100960000D03*
D27*
X72000000Y-103500000D03*
X72000000Y-106040000D03*
D13*
X83000000Y-97250000D03*
X83000000Y-95550000D03*
X78650000Y-104000000D03*
X80350000Y-104000000D03*
D22*
X81350000Y-100300000D03*
X81350000Y-101250000D03*
X81350000Y-102200000D03*
X79150000Y-102200000D03*
X79150000Y-100300000D03*
D29*
X102920500Y-159250000D03*
X105079500Y-159250000D03*
D27*
X106500000Y-123550000D03*
X103500000Y-123550000D03*
X100500000Y-123550000D03*
D48*
X110000000Y-123550000D03*
X97000000Y-123550000D03*
D12*
X56000000Y-184750000D03*
X116250000Y-82750000D03*
D13*
X77400000Y-145650000D03*
X77400000Y-147350000D03*
X72000000Y-118650000D03*
X72000000Y-120350000D03*
X107750000Y-179100000D03*
X107750000Y-177400000D03*
X78300000Y-123550000D03*
X78300000Y-121850000D03*
D16*
X66500000Y-145530000D03*
X65547500Y-148070000D03*
X67452500Y-148070000D03*
D35*
X115500000Y-151900000D03*
X113500000Y-151900000D03*
X115300000Y-168000000D03*
X113300000Y-168000000D03*
D13*
X65750000Y-149900000D03*
X67450000Y-149900000D03*
D29*
X58220500Y-87000000D03*
X60379500Y-87000000D03*
D30*
X61550000Y-87000000D03*
X57050000Y-87000000D03*
D13*
X68700000Y-101450000D03*
X68700000Y-99750000D03*
X68650000Y-93500000D03*
X70350000Y-93500000D03*
M02*
